%
M48
M72
T01C0.01378
T02C0.04724
%
T01
X19710Y10428
X39375Y18638
X89710Y20428
X104710Y20428
X130116Y16943
X142835Y18039
X175276Y17441
X226820Y10556
X226266Y6778
X342217Y15225
X398998Y16673
X419710Y15428
X437211Y16127
X419710Y20428
X400665Y23799
X424884Y28063
X434710Y28243
X455195Y27994
X445971Y25428
X465420Y24180
X467977Y21776
X521359Y20634
X490513Y27357
X460291Y31023
X458373Y34547
X447427Y35428
X469747Y35366
X477243Y37902
X483069Y39718
X486257Y42596
X480329Y42821
X482485Y45429
X487066Y46103
X477724Y45923
X474581Y48531
X470808Y49970
X465733Y50060
X461242Y50150
X455943Y49880
X451092Y50195
X446287Y49970
X441975Y49835
X437215Y49700
X432859Y49655
X428906Y49161
X426032Y46778
X432835Y45578
X437772Y40998
X387723Y37123
X384041Y37034
X351660Y34233
X333394Y33285
X329447Y33351
X325433Y33517
X311593Y34771
X306777Y35050
X301841Y35010
X297582Y35090
X287687Y32714
X302557Y30506
X307015Y30426
X311593Y30147
X297383Y30346
X279662Y30359
X287228Y27601
X280292Y26222
X297462Y25643
X302358Y25682
X306737Y25722
X311712Y25682
X325035Y26012
X328584Y25979
X333029Y26079
X348255Y25061
X353007Y26769
X356196Y29466
X353591Y31310
X372092Y32621
X333328Y29964
X329248Y29864
X325201Y29698
X257249Y34955
X246357Y36851
X251918Y39953
X240969Y43343
X246357Y46215
X297184Y39195
X301960Y39155
X306896Y39116
X311434Y39195
X325533Y36938
X329347Y37037
X333261Y37004
X287744Y38287
X324534Y42416
X330462Y42236
X331540Y46283
X325477Y46059
X338501Y46373
X344564Y46193
X348651Y46238
X383547Y44455
X387319Y44410
X387454Y41082
X384086Y40767
X239708Y31967
X234377Y28061
X226122Y27946
X216320Y27888
X208238Y27888
X197174Y27716
X188117Y28061
X179748Y28290
X172927Y28348
X166048Y28290
X157736Y29439
X152348Y32140
X84710Y30428
X74710Y30428
X64710Y30428
X64710Y35428
X74710Y35428
X84710Y35428
X84710Y40428
X74710Y40428
X64710Y40428
X24710Y40428
X19710Y40428
X14710Y40428
X14710Y35428
X19710Y35428
X24710Y35428
X24710Y45428
X19710Y45428
X14710Y45428
X267585Y21984
X259656Y20482
X419710Y10699
X457191Y11913
X464252Y9902
X482009Y8334
X489812Y8104
X482009Y12912
X502700Y12971
X567078Y38002
X563483Y38603
X568946Y39663
X571117Y38640
X550987Y38913
X563183Y41938
X567337Y41976
X571229Y42163
T02
X146755Y33060
X138881Y33060
X131007Y33060
X123133Y33060
X115259Y33060
M30
