G75*
%MOIN*%
%OFA0B0*%
%FSLAX25Y25*%
%IPPOS*%
%LPD*%
%AMOC8*
5,1,8,0,0,1.08239X$1,22.5*
%
%ADD10C,0.00000*%
%ADD11C,0.00010*%
%ADD12C,0.07087*%
%ADD13C,0.00630*%
%ADD14R,0.05906X0.05906*%
%ADD15R,0.03543X0.03346*%
%ADD16R,0.03346X0.03543*%
%ADD17R,0.12598X0.07087*%
%ADD18R,0.03150X0.02362*%
%ADD19R,0.04724X0.02362*%
%ADD20R,0.02000X0.02000*%
%ADD21C,0.00300*%
%ADD22C,0.02578*%
%ADD23C,0.00600*%
%ADD24C,0.10000*%
%ADD25C,0.00800*%
%ADD26C,0.03200*%
%ADD27C,0.00650*%
%ADD28C,0.01600*%
%ADD29C,0.05000*%
%ADD30C,0.02000*%
%ADD31C,0.01000*%
%ADD32C,0.02400*%
%ADD33C,0.01200*%
%ADD34C,0.06500*%
D10*
X0005297Y0003489D02*
X0005029Y0050796D01*
X0170410Y0050796D01*
X0170410Y0034928D01*
X0233310Y0034928D01*
X0233310Y0050728D01*
X0424962Y0050786D01*
X0427363Y0054333D01*
X0478165Y0054324D01*
X0480836Y0050745D01*
X0587523Y0050838D01*
X0587732Y0003428D01*
X0228078Y0003503D01*
X0227770Y0003237D01*
X0223334Y0003250D01*
X0222935Y0003503D01*
X0005297Y0003489D01*
D11*
X0098534Y0034928D02*
X0098536Y0035067D01*
X0098542Y0035206D01*
X0098552Y0035345D01*
X0098566Y0035484D01*
X0098584Y0035622D01*
X0098605Y0035759D01*
X0098631Y0035896D01*
X0098661Y0036032D01*
X0098694Y0036168D01*
X0098732Y0036302D01*
X0098773Y0036435D01*
X0098818Y0036567D01*
X0098866Y0036697D01*
X0098919Y0036826D01*
X0098975Y0036954D01*
X0099034Y0037079D01*
X0099098Y0037203D01*
X0099164Y0037326D01*
X0099234Y0037446D01*
X0099308Y0037564D01*
X0099385Y0037680D01*
X0099465Y0037794D01*
X0099549Y0037906D01*
X0099635Y0038015D01*
X0099725Y0038121D01*
X0099818Y0038225D01*
X0099913Y0038326D01*
X0100012Y0038425D01*
X0100113Y0038520D01*
X0100217Y0038613D01*
X0100323Y0038703D01*
X0100432Y0038789D01*
X0100544Y0038873D01*
X0100658Y0038953D01*
X0100774Y0039030D01*
X0100892Y0039104D01*
X0101012Y0039174D01*
X0101135Y0039240D01*
X0101259Y0039304D01*
X0101384Y0039363D01*
X0101512Y0039419D01*
X0101641Y0039472D01*
X0101771Y0039520D01*
X0101903Y0039565D01*
X0102036Y0039606D01*
X0102170Y0039644D01*
X0102306Y0039677D01*
X0102442Y0039707D01*
X0102579Y0039733D01*
X0102716Y0039754D01*
X0102854Y0039772D01*
X0102993Y0039786D01*
X0103132Y0039796D01*
X0103271Y0039802D01*
X0103410Y0039804D01*
X0103549Y0039802D01*
X0103688Y0039796D01*
X0103827Y0039786D01*
X0103966Y0039772D01*
X0104104Y0039754D01*
X0104241Y0039733D01*
X0104378Y0039707D01*
X0104514Y0039677D01*
X0104650Y0039644D01*
X0104784Y0039606D01*
X0104917Y0039565D01*
X0105049Y0039520D01*
X0105179Y0039472D01*
X0105308Y0039419D01*
X0105436Y0039363D01*
X0105561Y0039304D01*
X0105685Y0039240D01*
X0105808Y0039174D01*
X0105928Y0039104D01*
X0106046Y0039030D01*
X0106162Y0038953D01*
X0106276Y0038873D01*
X0106388Y0038789D01*
X0106497Y0038703D01*
X0106603Y0038613D01*
X0106707Y0038520D01*
X0106808Y0038425D01*
X0106907Y0038326D01*
X0107002Y0038225D01*
X0107095Y0038121D01*
X0107185Y0038015D01*
X0107271Y0037906D01*
X0107355Y0037794D01*
X0107435Y0037680D01*
X0107512Y0037564D01*
X0107586Y0037446D01*
X0107656Y0037326D01*
X0107722Y0037203D01*
X0107786Y0037079D01*
X0107845Y0036954D01*
X0107901Y0036826D01*
X0107954Y0036697D01*
X0108002Y0036567D01*
X0108047Y0036435D01*
X0108088Y0036302D01*
X0108126Y0036168D01*
X0108159Y0036032D01*
X0108189Y0035896D01*
X0108215Y0035759D01*
X0108236Y0035622D01*
X0108254Y0035484D01*
X0108268Y0035345D01*
X0108278Y0035206D01*
X0108284Y0035067D01*
X0108286Y0034928D01*
X0108284Y0034789D01*
X0108278Y0034650D01*
X0108268Y0034511D01*
X0108254Y0034372D01*
X0108236Y0034234D01*
X0108215Y0034097D01*
X0108189Y0033960D01*
X0108159Y0033824D01*
X0108126Y0033688D01*
X0108088Y0033554D01*
X0108047Y0033421D01*
X0108002Y0033289D01*
X0107954Y0033159D01*
X0107901Y0033030D01*
X0107845Y0032902D01*
X0107786Y0032777D01*
X0107722Y0032653D01*
X0107656Y0032530D01*
X0107586Y0032410D01*
X0107512Y0032292D01*
X0107435Y0032176D01*
X0107355Y0032062D01*
X0107271Y0031950D01*
X0107185Y0031841D01*
X0107095Y0031735D01*
X0107002Y0031631D01*
X0106907Y0031530D01*
X0106808Y0031431D01*
X0106707Y0031336D01*
X0106603Y0031243D01*
X0106497Y0031153D01*
X0106388Y0031067D01*
X0106276Y0030983D01*
X0106162Y0030903D01*
X0106046Y0030826D01*
X0105928Y0030752D01*
X0105808Y0030682D01*
X0105685Y0030616D01*
X0105561Y0030552D01*
X0105436Y0030493D01*
X0105308Y0030437D01*
X0105179Y0030384D01*
X0105049Y0030336D01*
X0104917Y0030291D01*
X0104784Y0030250D01*
X0104650Y0030212D01*
X0104514Y0030179D01*
X0104378Y0030149D01*
X0104241Y0030123D01*
X0104104Y0030102D01*
X0103966Y0030084D01*
X0103827Y0030070D01*
X0103688Y0030060D01*
X0103549Y0030054D01*
X0103410Y0030052D01*
X0103271Y0030054D01*
X0103132Y0030060D01*
X0102993Y0030070D01*
X0102854Y0030084D01*
X0102716Y0030102D01*
X0102579Y0030123D01*
X0102442Y0030149D01*
X0102306Y0030179D01*
X0102170Y0030212D01*
X0102036Y0030250D01*
X0101903Y0030291D01*
X0101771Y0030336D01*
X0101641Y0030384D01*
X0101512Y0030437D01*
X0101384Y0030493D01*
X0101259Y0030552D01*
X0101135Y0030616D01*
X0101012Y0030682D01*
X0100892Y0030752D01*
X0100774Y0030826D01*
X0100658Y0030903D01*
X0100544Y0030983D01*
X0100432Y0031067D01*
X0100323Y0031153D01*
X0100217Y0031243D01*
X0100113Y0031336D01*
X0100012Y0031431D01*
X0099913Y0031530D01*
X0099818Y0031631D01*
X0099725Y0031735D01*
X0099635Y0031841D01*
X0099549Y0031950D01*
X0099465Y0032062D01*
X0099385Y0032176D01*
X0099308Y0032292D01*
X0099234Y0032410D01*
X0099164Y0032530D01*
X0099098Y0032653D01*
X0099034Y0032777D01*
X0098975Y0032902D01*
X0098919Y0033030D01*
X0098866Y0033159D01*
X0098818Y0033289D01*
X0098773Y0033421D01*
X0098732Y0033554D01*
X0098694Y0033688D01*
X0098661Y0033824D01*
X0098631Y0033960D01*
X0098605Y0034097D01*
X0098584Y0034234D01*
X0098566Y0034372D01*
X0098552Y0034511D01*
X0098542Y0034650D01*
X0098536Y0034789D01*
X0098534Y0034928D01*
X0149734Y0042828D02*
X0149736Y0042967D01*
X0149742Y0043106D01*
X0149752Y0043245D01*
X0149766Y0043384D01*
X0149784Y0043522D01*
X0149805Y0043659D01*
X0149831Y0043796D01*
X0149861Y0043932D01*
X0149894Y0044068D01*
X0149932Y0044202D01*
X0149973Y0044335D01*
X0150018Y0044467D01*
X0150066Y0044597D01*
X0150119Y0044726D01*
X0150175Y0044854D01*
X0150234Y0044979D01*
X0150298Y0045103D01*
X0150364Y0045226D01*
X0150434Y0045346D01*
X0150508Y0045464D01*
X0150585Y0045580D01*
X0150665Y0045694D01*
X0150749Y0045806D01*
X0150835Y0045915D01*
X0150925Y0046021D01*
X0151018Y0046125D01*
X0151113Y0046226D01*
X0151212Y0046325D01*
X0151313Y0046420D01*
X0151417Y0046513D01*
X0151523Y0046603D01*
X0151632Y0046689D01*
X0151744Y0046773D01*
X0151858Y0046853D01*
X0151974Y0046930D01*
X0152092Y0047004D01*
X0152212Y0047074D01*
X0152335Y0047140D01*
X0152459Y0047204D01*
X0152584Y0047263D01*
X0152712Y0047319D01*
X0152841Y0047372D01*
X0152971Y0047420D01*
X0153103Y0047465D01*
X0153236Y0047506D01*
X0153370Y0047544D01*
X0153506Y0047577D01*
X0153642Y0047607D01*
X0153779Y0047633D01*
X0153916Y0047654D01*
X0154054Y0047672D01*
X0154193Y0047686D01*
X0154332Y0047696D01*
X0154471Y0047702D01*
X0154610Y0047704D01*
X0154749Y0047702D01*
X0154888Y0047696D01*
X0155027Y0047686D01*
X0155166Y0047672D01*
X0155304Y0047654D01*
X0155441Y0047633D01*
X0155578Y0047607D01*
X0155714Y0047577D01*
X0155850Y0047544D01*
X0155984Y0047506D01*
X0156117Y0047465D01*
X0156249Y0047420D01*
X0156379Y0047372D01*
X0156508Y0047319D01*
X0156636Y0047263D01*
X0156761Y0047204D01*
X0156885Y0047140D01*
X0157008Y0047074D01*
X0157128Y0047004D01*
X0157246Y0046930D01*
X0157362Y0046853D01*
X0157476Y0046773D01*
X0157588Y0046689D01*
X0157697Y0046603D01*
X0157803Y0046513D01*
X0157907Y0046420D01*
X0158008Y0046325D01*
X0158107Y0046226D01*
X0158202Y0046125D01*
X0158295Y0046021D01*
X0158385Y0045915D01*
X0158471Y0045806D01*
X0158555Y0045694D01*
X0158635Y0045580D01*
X0158712Y0045464D01*
X0158786Y0045346D01*
X0158856Y0045226D01*
X0158922Y0045103D01*
X0158986Y0044979D01*
X0159045Y0044854D01*
X0159101Y0044726D01*
X0159154Y0044597D01*
X0159202Y0044467D01*
X0159247Y0044335D01*
X0159288Y0044202D01*
X0159326Y0044068D01*
X0159359Y0043932D01*
X0159389Y0043796D01*
X0159415Y0043659D01*
X0159436Y0043522D01*
X0159454Y0043384D01*
X0159468Y0043245D01*
X0159478Y0043106D01*
X0159484Y0042967D01*
X0159486Y0042828D01*
X0159484Y0042689D01*
X0159478Y0042550D01*
X0159468Y0042411D01*
X0159454Y0042272D01*
X0159436Y0042134D01*
X0159415Y0041997D01*
X0159389Y0041860D01*
X0159359Y0041724D01*
X0159326Y0041588D01*
X0159288Y0041454D01*
X0159247Y0041321D01*
X0159202Y0041189D01*
X0159154Y0041059D01*
X0159101Y0040930D01*
X0159045Y0040802D01*
X0158986Y0040677D01*
X0158922Y0040553D01*
X0158856Y0040430D01*
X0158786Y0040310D01*
X0158712Y0040192D01*
X0158635Y0040076D01*
X0158555Y0039962D01*
X0158471Y0039850D01*
X0158385Y0039741D01*
X0158295Y0039635D01*
X0158202Y0039531D01*
X0158107Y0039430D01*
X0158008Y0039331D01*
X0157907Y0039236D01*
X0157803Y0039143D01*
X0157697Y0039053D01*
X0157588Y0038967D01*
X0157476Y0038883D01*
X0157362Y0038803D01*
X0157246Y0038726D01*
X0157128Y0038652D01*
X0157008Y0038582D01*
X0156885Y0038516D01*
X0156761Y0038452D01*
X0156636Y0038393D01*
X0156508Y0038337D01*
X0156379Y0038284D01*
X0156249Y0038236D01*
X0156117Y0038191D01*
X0155984Y0038150D01*
X0155850Y0038112D01*
X0155714Y0038079D01*
X0155578Y0038049D01*
X0155441Y0038023D01*
X0155304Y0038002D01*
X0155166Y0037984D01*
X0155027Y0037970D01*
X0154888Y0037960D01*
X0154749Y0037954D01*
X0154610Y0037952D01*
X0154471Y0037954D01*
X0154332Y0037960D01*
X0154193Y0037970D01*
X0154054Y0037984D01*
X0153916Y0038002D01*
X0153779Y0038023D01*
X0153642Y0038049D01*
X0153506Y0038079D01*
X0153370Y0038112D01*
X0153236Y0038150D01*
X0153103Y0038191D01*
X0152971Y0038236D01*
X0152841Y0038284D01*
X0152712Y0038337D01*
X0152584Y0038393D01*
X0152459Y0038452D01*
X0152335Y0038516D01*
X0152212Y0038582D01*
X0152092Y0038652D01*
X0151974Y0038726D01*
X0151858Y0038803D01*
X0151744Y0038883D01*
X0151632Y0038967D01*
X0151523Y0039053D01*
X0151417Y0039143D01*
X0151313Y0039236D01*
X0151212Y0039331D01*
X0151113Y0039430D01*
X0151018Y0039531D01*
X0150925Y0039635D01*
X0150835Y0039741D01*
X0150749Y0039850D01*
X0150665Y0039962D01*
X0150585Y0040076D01*
X0150508Y0040192D01*
X0150434Y0040310D01*
X0150364Y0040430D01*
X0150298Y0040553D01*
X0150234Y0040677D01*
X0150175Y0040802D01*
X0150119Y0040930D01*
X0150066Y0041059D01*
X0150018Y0041189D01*
X0149973Y0041321D01*
X0149932Y0041454D01*
X0149894Y0041588D01*
X0149861Y0041724D01*
X0149831Y0041860D01*
X0149805Y0041997D01*
X0149784Y0042134D01*
X0149766Y0042272D01*
X0149752Y0042411D01*
X0149742Y0042550D01*
X0149736Y0042689D01*
X0149734Y0042828D01*
D12*
X0146755Y0036603D02*
X0146755Y0029517D01*
X0138881Y0029517D02*
X0138881Y0036603D01*
X0131007Y0036603D02*
X0131007Y0029517D01*
X0123133Y0029517D02*
X0123133Y0036603D01*
X0115259Y0036603D02*
X0115259Y0029517D01*
D13*
X0457599Y0028462D02*
X0457599Y0028618D01*
X0459921Y0028618D01*
X0459921Y0028462D01*
X0457599Y0028462D01*
X0457599Y0027043D02*
X0457599Y0026887D01*
X0457599Y0027043D02*
X0459921Y0027043D01*
X0459921Y0026887D01*
X0457599Y0026887D01*
X0457599Y0025468D02*
X0457599Y0025312D01*
X0457599Y0025468D02*
X0459921Y0025468D01*
X0459921Y0025312D01*
X0457599Y0025312D01*
X0457599Y0023893D02*
X0457599Y0023737D01*
X0457599Y0023893D02*
X0459921Y0023893D01*
X0459921Y0023737D01*
X0457599Y0023737D01*
X0457599Y0022319D02*
X0457599Y0022163D01*
X0457599Y0022319D02*
X0459921Y0022319D01*
X0459921Y0022163D01*
X0457599Y0022163D01*
X0457599Y0020744D02*
X0457599Y0020588D01*
X0457599Y0020744D02*
X0459921Y0020744D01*
X0459921Y0020588D01*
X0457599Y0020588D01*
X0457599Y0019169D02*
X0457599Y0019013D01*
X0457599Y0019169D02*
X0459921Y0019169D01*
X0459921Y0019013D01*
X0457599Y0019013D01*
X0457599Y0017594D02*
X0457599Y0017438D01*
X0457599Y0017594D02*
X0459921Y0017594D01*
X0459921Y0017438D01*
X0457599Y0017438D01*
X0473499Y0017438D02*
X0473499Y0017594D01*
X0475821Y0017594D01*
X0475821Y0017438D01*
X0473499Y0017438D01*
X0473499Y0019013D02*
X0473499Y0019169D01*
X0475821Y0019169D01*
X0475821Y0019013D01*
X0473499Y0019013D01*
X0473499Y0020588D02*
X0473499Y0020744D01*
X0475821Y0020744D01*
X0475821Y0020588D01*
X0473499Y0020588D01*
X0473499Y0022163D02*
X0473499Y0022319D01*
X0475821Y0022319D01*
X0475821Y0022163D01*
X0473499Y0022163D01*
X0473499Y0023737D02*
X0473499Y0023893D01*
X0475821Y0023893D01*
X0475821Y0023737D01*
X0473499Y0023737D01*
X0473499Y0025312D02*
X0473499Y0025468D01*
X0475821Y0025468D01*
X0475821Y0025312D01*
X0473499Y0025312D01*
X0473499Y0026887D02*
X0473499Y0027043D01*
X0475821Y0027043D01*
X0475821Y0026887D01*
X0473499Y0026887D01*
X0473499Y0028462D02*
X0473499Y0028618D01*
X0475821Y0028618D01*
X0475821Y0028462D01*
X0473499Y0028462D01*
X0472300Y0029817D02*
X0472144Y0029817D01*
X0472144Y0032139D01*
X0472300Y0032139D01*
X0472300Y0029817D01*
X0472300Y0030415D02*
X0472144Y0030415D01*
X0472144Y0031013D02*
X0472300Y0031013D01*
X0472300Y0031611D02*
X0472144Y0031611D01*
X0470725Y0029817D02*
X0470569Y0029817D01*
X0470569Y0032139D01*
X0470725Y0032139D01*
X0470725Y0029817D01*
X0470725Y0030415D02*
X0470569Y0030415D01*
X0470569Y0031013D02*
X0470725Y0031013D01*
X0470725Y0031611D02*
X0470569Y0031611D01*
X0469151Y0029817D02*
X0468995Y0029817D01*
X0468995Y0032139D01*
X0469151Y0032139D01*
X0469151Y0029817D01*
X0469151Y0030415D02*
X0468995Y0030415D01*
X0468995Y0031013D02*
X0469151Y0031013D01*
X0469151Y0031611D02*
X0468995Y0031611D01*
X0467576Y0029817D02*
X0467420Y0029817D01*
X0467420Y0032139D01*
X0467576Y0032139D01*
X0467576Y0029817D01*
X0467576Y0030415D02*
X0467420Y0030415D01*
X0467420Y0031013D02*
X0467576Y0031013D01*
X0467576Y0031611D02*
X0467420Y0031611D01*
X0466001Y0029817D02*
X0465845Y0029817D01*
X0465845Y0032139D01*
X0466001Y0032139D01*
X0466001Y0029817D01*
X0466001Y0030415D02*
X0465845Y0030415D01*
X0465845Y0031013D02*
X0466001Y0031013D01*
X0466001Y0031611D02*
X0465845Y0031611D01*
X0464426Y0029817D02*
X0464270Y0029817D01*
X0464270Y0032139D01*
X0464426Y0032139D01*
X0464426Y0029817D01*
X0464426Y0030415D02*
X0464270Y0030415D01*
X0464270Y0031013D02*
X0464426Y0031013D01*
X0464426Y0031611D02*
X0464270Y0031611D01*
X0462851Y0029817D02*
X0462695Y0029817D01*
X0462695Y0032139D01*
X0462851Y0032139D01*
X0462851Y0029817D01*
X0462851Y0030415D02*
X0462695Y0030415D01*
X0462695Y0031013D02*
X0462851Y0031013D01*
X0462851Y0031611D02*
X0462695Y0031611D01*
X0461277Y0029817D02*
X0461121Y0029817D01*
X0461121Y0032139D01*
X0461277Y0032139D01*
X0461277Y0029817D01*
X0461277Y0030415D02*
X0461121Y0030415D01*
X0461121Y0031013D02*
X0461277Y0031013D01*
X0461277Y0031611D02*
X0461121Y0031611D01*
X0461277Y0013917D02*
X0461121Y0013917D01*
X0461121Y0016239D01*
X0461277Y0016239D01*
X0461277Y0013917D01*
X0461277Y0014515D02*
X0461121Y0014515D01*
X0461121Y0015113D02*
X0461277Y0015113D01*
X0461277Y0015711D02*
X0461121Y0015711D01*
X0462695Y0013917D02*
X0462851Y0013917D01*
X0462695Y0013917D02*
X0462695Y0016239D01*
X0462851Y0016239D01*
X0462851Y0013917D01*
X0462851Y0014515D02*
X0462695Y0014515D01*
X0462695Y0015113D02*
X0462851Y0015113D01*
X0462851Y0015711D02*
X0462695Y0015711D01*
X0464270Y0013917D02*
X0464426Y0013917D01*
X0464270Y0013917D02*
X0464270Y0016239D01*
X0464426Y0016239D01*
X0464426Y0013917D01*
X0464426Y0014515D02*
X0464270Y0014515D01*
X0464270Y0015113D02*
X0464426Y0015113D01*
X0464426Y0015711D02*
X0464270Y0015711D01*
X0465845Y0013917D02*
X0466001Y0013917D01*
X0465845Y0013917D02*
X0465845Y0016239D01*
X0466001Y0016239D01*
X0466001Y0013917D01*
X0466001Y0014515D02*
X0465845Y0014515D01*
X0465845Y0015113D02*
X0466001Y0015113D01*
X0466001Y0015711D02*
X0465845Y0015711D01*
X0467420Y0013917D02*
X0467576Y0013917D01*
X0467420Y0013917D02*
X0467420Y0016239D01*
X0467576Y0016239D01*
X0467576Y0013917D01*
X0467576Y0014515D02*
X0467420Y0014515D01*
X0467420Y0015113D02*
X0467576Y0015113D01*
X0467576Y0015711D02*
X0467420Y0015711D01*
X0468995Y0013917D02*
X0469151Y0013917D01*
X0468995Y0013917D02*
X0468995Y0016239D01*
X0469151Y0016239D01*
X0469151Y0013917D01*
X0469151Y0014515D02*
X0468995Y0014515D01*
X0468995Y0015113D02*
X0469151Y0015113D01*
X0469151Y0015711D02*
X0468995Y0015711D01*
X0470569Y0013917D02*
X0470725Y0013917D01*
X0470569Y0013917D02*
X0470569Y0016239D01*
X0470725Y0016239D01*
X0470725Y0013917D01*
X0470725Y0014515D02*
X0470569Y0014515D01*
X0470569Y0015113D02*
X0470725Y0015113D01*
X0470725Y0015711D02*
X0470569Y0015711D01*
X0472144Y0013917D02*
X0472300Y0013917D01*
X0472144Y0013917D02*
X0472144Y0016239D01*
X0472300Y0016239D01*
X0472300Y0013917D01*
X0472300Y0014515D02*
X0472144Y0014515D01*
X0472144Y0015113D02*
X0472300Y0015113D01*
X0472300Y0015711D02*
X0472144Y0015711D01*
D14*
X0466710Y0023028D03*
D15*
X0450810Y0021411D03*
X0442110Y0023676D03*
X0442110Y0028243D03*
X0348255Y0029628D03*
X0348255Y0025061D03*
X0263255Y0025061D03*
X0251705Y0028329D03*
X0263255Y0029628D03*
X0251705Y0032895D03*
X0442146Y0014545D03*
X0450810Y0016845D03*
X0482009Y0012901D03*
X0489812Y0012671D03*
X0482009Y0008334D03*
X0489812Y0008104D03*
X0442146Y0009978D03*
D16*
X0430994Y0016128D03*
X0426427Y0016128D03*
G36*
X0396563Y0016742D02*
X0398929Y0019108D01*
X0401433Y0016604D01*
X0399067Y0014238D01*
X0396563Y0016742D01*
G37*
G36*
X0399793Y0019971D02*
X0402159Y0022337D01*
X0404663Y0019833D01*
X0402297Y0017467D01*
X0399793Y0019971D01*
G37*
X0426427Y0022128D03*
X0430994Y0022128D03*
X0353257Y0018089D03*
X0348690Y0018089D03*
X0330539Y0017345D03*
X0325972Y0017345D03*
X0285539Y0017345D03*
X0280972Y0017345D03*
X0267689Y0017549D03*
X0263122Y0017549D03*
X0458983Y0039163D03*
X0463550Y0039163D03*
D17*
X0567048Y0039993D03*
X0567048Y0017945D03*
X0039375Y0018638D03*
X0039375Y0040685D03*
D18*
X0494789Y0020428D03*
X0504632Y0020428D03*
D19*
X0339279Y0024845D03*
X0317232Y0024845D03*
X0294279Y0024845D03*
X0272232Y0024845D03*
X0272232Y0029845D03*
X0294279Y0029845D03*
X0317232Y0029845D03*
X0339279Y0029845D03*
X0339279Y0034845D03*
X0317232Y0034845D03*
X0294279Y0034845D03*
X0272232Y0034845D03*
X0272232Y0039845D03*
X0294279Y0039845D03*
X0317232Y0039845D03*
X0339279Y0039845D03*
D20*
G36*
X0139308Y0043740D02*
X0140722Y0042326D01*
X0139308Y0040912D01*
X0137894Y0042326D01*
X0139308Y0043740D01*
G37*
G36*
X0131010Y0043849D02*
X0132424Y0042435D01*
X0131010Y0041021D01*
X0129596Y0042435D01*
X0131010Y0043849D01*
G37*
G36*
X0131010Y0047449D02*
X0132424Y0046035D01*
X0131010Y0044621D01*
X0129596Y0046035D01*
X0131010Y0047449D01*
G37*
G36*
X0139308Y0047340D02*
X0140722Y0045926D01*
X0139308Y0044512D01*
X0137894Y0045926D01*
X0139308Y0047340D01*
G37*
D21*
X0029710Y0047369D02*
X0009710Y0047369D01*
X0009710Y0047464D02*
X0029710Y0047464D01*
X0029710Y0033545D01*
X0009710Y0033545D01*
X0009710Y0047464D01*
X0009710Y0047070D02*
X0029710Y0047070D01*
X0029710Y0046772D02*
X0009710Y0046772D01*
X0009710Y0046473D02*
X0029710Y0046473D01*
X0029710Y0046175D02*
X0009710Y0046175D01*
X0009710Y0045876D02*
X0029710Y0045876D01*
X0029710Y0045578D02*
X0009710Y0045578D01*
X0009710Y0045279D02*
X0029710Y0045279D01*
X0029710Y0044981D02*
X0009710Y0044981D01*
X0009710Y0044682D02*
X0029710Y0044682D01*
X0029710Y0044384D02*
X0009710Y0044384D01*
X0009710Y0044085D02*
X0029710Y0044085D01*
X0029710Y0043787D02*
X0009710Y0043787D01*
X0009710Y0043488D02*
X0029710Y0043488D01*
X0029710Y0043190D02*
X0009710Y0043190D01*
X0009710Y0042891D02*
X0029710Y0042891D01*
X0029710Y0042593D02*
X0009710Y0042593D01*
X0009710Y0042294D02*
X0029710Y0042294D01*
X0029710Y0041996D02*
X0009710Y0041996D01*
X0009710Y0041697D02*
X0029710Y0041697D01*
X0029710Y0041399D02*
X0009710Y0041399D01*
X0009710Y0041100D02*
X0029710Y0041100D01*
X0029710Y0040802D02*
X0009710Y0040802D01*
X0009710Y0040503D02*
X0029710Y0040503D01*
X0029710Y0040205D02*
X0009710Y0040205D01*
X0009710Y0039906D02*
X0029710Y0039906D01*
X0029710Y0039608D02*
X0009710Y0039608D01*
X0009710Y0039309D02*
X0029710Y0039309D01*
X0029710Y0039011D02*
X0009710Y0039011D01*
X0009710Y0038712D02*
X0029710Y0038712D01*
X0029710Y0038414D02*
X0009710Y0038414D01*
X0009710Y0038115D02*
X0029710Y0038115D01*
X0029710Y0037817D02*
X0009710Y0037817D01*
X0009710Y0037518D02*
X0029710Y0037518D01*
X0029710Y0037220D02*
X0009710Y0037220D01*
X0009710Y0036921D02*
X0029710Y0036921D01*
X0029710Y0036623D02*
X0009710Y0036623D01*
X0009710Y0036324D02*
X0029710Y0036324D01*
X0029710Y0036026D02*
X0009710Y0036026D01*
X0009710Y0035727D02*
X0029710Y0035727D01*
X0029710Y0035429D02*
X0009710Y0035429D01*
X0009710Y0035130D02*
X0029710Y0035130D01*
X0029710Y0034832D02*
X0009710Y0034832D01*
X0009710Y0034533D02*
X0029710Y0034533D01*
X0029710Y0034234D02*
X0009710Y0034234D01*
X0009710Y0033936D02*
X0029710Y0033936D01*
X0029710Y0033637D02*
X0009710Y0033637D01*
X0469465Y0048322D02*
X0536731Y0048322D01*
X0553484Y0031569D01*
X0559710Y0030428D01*
X0584710Y0030428D01*
X0584786Y0005597D01*
X0525685Y0005670D01*
X0525815Y0028098D01*
X0493478Y0028098D01*
X0493478Y0031922D01*
X0485865Y0031922D01*
X0479282Y0038505D01*
X0479282Y0038746D01*
X0478087Y0039941D01*
X0477846Y0039941D01*
X0469465Y0048322D01*
X0469523Y0048265D02*
X0536788Y0048265D01*
X0537087Y0047966D02*
X0469821Y0047966D01*
X0470120Y0047668D02*
X0537385Y0047668D01*
X0537684Y0047369D02*
X0470418Y0047369D01*
X0470717Y0047070D02*
X0537982Y0047070D01*
X0538281Y0046772D02*
X0471015Y0046772D01*
X0471314Y0046473D02*
X0538579Y0046473D01*
X0538878Y0046175D02*
X0471612Y0046175D01*
X0471911Y0045876D02*
X0539176Y0045876D01*
X0539475Y0045578D02*
X0472209Y0045578D01*
X0472508Y0045279D02*
X0539773Y0045279D01*
X0540072Y0044981D02*
X0472806Y0044981D01*
X0473105Y0044682D02*
X0540370Y0044682D01*
X0540669Y0044384D02*
X0473403Y0044384D01*
X0473702Y0044085D02*
X0540967Y0044085D01*
X0541266Y0043787D02*
X0474000Y0043787D01*
X0474299Y0043488D02*
X0541564Y0043488D01*
X0541863Y0043190D02*
X0474597Y0043190D01*
X0474896Y0042891D02*
X0542161Y0042891D01*
X0542460Y0042593D02*
X0475194Y0042593D01*
X0475493Y0042294D02*
X0542759Y0042294D01*
X0543057Y0041996D02*
X0475791Y0041996D01*
X0476090Y0041697D02*
X0543356Y0041697D01*
X0543654Y0041399D02*
X0476388Y0041399D01*
X0476687Y0041100D02*
X0543953Y0041100D01*
X0544251Y0040802D02*
X0476985Y0040802D01*
X0477284Y0040503D02*
X0544550Y0040503D01*
X0544848Y0040205D02*
X0477582Y0040205D01*
X0478122Y0039906D02*
X0545147Y0039906D01*
X0545445Y0039608D02*
X0478420Y0039608D01*
X0478719Y0039309D02*
X0545744Y0039309D01*
X0546042Y0039011D02*
X0479017Y0039011D01*
X0479282Y0038712D02*
X0546341Y0038712D01*
X0546639Y0038414D02*
X0479373Y0038414D01*
X0479672Y0038115D02*
X0546938Y0038115D01*
X0547236Y0037817D02*
X0479971Y0037817D01*
X0480269Y0037518D02*
X0547535Y0037518D01*
X0547833Y0037220D02*
X0480568Y0037220D01*
X0480866Y0036921D02*
X0548132Y0036921D01*
X0548430Y0036623D02*
X0481165Y0036623D01*
X0481463Y0036324D02*
X0548729Y0036324D01*
X0549027Y0036026D02*
X0481762Y0036026D01*
X0482060Y0035727D02*
X0549326Y0035727D01*
X0549624Y0035429D02*
X0482359Y0035429D01*
X0482657Y0035130D02*
X0549923Y0035130D01*
X0550221Y0034832D02*
X0482956Y0034832D01*
X0483254Y0034533D02*
X0550520Y0034533D01*
X0550818Y0034234D02*
X0483553Y0034234D01*
X0483851Y0033936D02*
X0551117Y0033936D01*
X0551415Y0033637D02*
X0484150Y0033637D01*
X0484448Y0033339D02*
X0551714Y0033339D01*
X0552012Y0033040D02*
X0484747Y0033040D01*
X0485045Y0032742D02*
X0552311Y0032742D01*
X0552609Y0032443D02*
X0485344Y0032443D01*
X0485642Y0032145D02*
X0552908Y0032145D01*
X0553206Y0031846D02*
X0493478Y0031846D01*
X0493478Y0031548D02*
X0553599Y0031548D01*
X0555228Y0031249D02*
X0493478Y0031249D01*
X0493478Y0030951D02*
X0556857Y0030951D01*
X0558486Y0030652D02*
X0493478Y0030652D01*
X0493478Y0030354D02*
X0584711Y0030354D01*
X0584711Y0030055D02*
X0493478Y0030055D01*
X0493478Y0029757D02*
X0584712Y0029757D01*
X0584713Y0029458D02*
X0493478Y0029458D01*
X0493478Y0029160D02*
X0584714Y0029160D01*
X0584715Y0028861D02*
X0493478Y0028861D01*
X0493478Y0028563D02*
X0584716Y0028563D01*
X0584717Y0028264D02*
X0493478Y0028264D01*
X0525814Y0027966D02*
X0584718Y0027966D01*
X0584719Y0027667D02*
X0525812Y0027667D01*
X0525810Y0027369D02*
X0584720Y0027369D01*
X0584721Y0027070D02*
X0525809Y0027070D01*
X0525807Y0026772D02*
X0584721Y0026772D01*
X0584722Y0026473D02*
X0525805Y0026473D01*
X0525804Y0026175D02*
X0584723Y0026175D01*
X0584724Y0025876D02*
X0525802Y0025876D01*
X0525800Y0025578D02*
X0584725Y0025578D01*
X0584726Y0025279D02*
X0525798Y0025279D01*
X0525797Y0024981D02*
X0584727Y0024981D01*
X0584728Y0024682D02*
X0525795Y0024682D01*
X0525793Y0024384D02*
X0584729Y0024384D01*
X0584730Y0024085D02*
X0525792Y0024085D01*
X0525790Y0023787D02*
X0584731Y0023787D01*
X0584731Y0023488D02*
X0525788Y0023488D01*
X0525786Y0023190D02*
X0584732Y0023190D01*
X0584733Y0022891D02*
X0525785Y0022891D01*
X0525783Y0022593D02*
X0584734Y0022593D01*
X0584735Y0022294D02*
X0525781Y0022294D01*
X0525779Y0021996D02*
X0584736Y0021996D01*
X0584737Y0021697D02*
X0525778Y0021697D01*
X0525776Y0021399D02*
X0584738Y0021399D01*
X0584739Y0021100D02*
X0525774Y0021100D01*
X0525773Y0020801D02*
X0584740Y0020801D01*
X0584741Y0020503D02*
X0525771Y0020503D01*
X0525769Y0020204D02*
X0584741Y0020204D01*
X0584742Y0019906D02*
X0525767Y0019906D01*
X0525766Y0019607D02*
X0584743Y0019607D01*
X0584744Y0019309D02*
X0525764Y0019309D01*
X0525762Y0019010D02*
X0584745Y0019010D01*
X0584746Y0018712D02*
X0525761Y0018712D01*
X0525759Y0018413D02*
X0584747Y0018413D01*
X0584748Y0018115D02*
X0525757Y0018115D01*
X0525755Y0017816D02*
X0584749Y0017816D01*
X0584750Y0017518D02*
X0525754Y0017518D01*
X0525752Y0017219D02*
X0584751Y0017219D01*
X0584752Y0016921D02*
X0525750Y0016921D01*
X0525748Y0016622D02*
X0584752Y0016622D01*
X0584753Y0016324D02*
X0525747Y0016324D01*
X0525745Y0016025D02*
X0584754Y0016025D01*
X0584755Y0015727D02*
X0525743Y0015727D01*
X0525742Y0015428D02*
X0584756Y0015428D01*
X0584757Y0015130D02*
X0525740Y0015130D01*
X0525738Y0014831D02*
X0584758Y0014831D01*
X0584759Y0014533D02*
X0525736Y0014533D01*
X0525735Y0014234D02*
X0584760Y0014234D01*
X0584761Y0013936D02*
X0525733Y0013936D01*
X0525731Y0013637D02*
X0584762Y0013637D01*
X0584762Y0013339D02*
X0525730Y0013339D01*
X0525728Y0013040D02*
X0584763Y0013040D01*
X0584764Y0012742D02*
X0525726Y0012742D01*
X0525724Y0012443D02*
X0584765Y0012443D01*
X0584766Y0012145D02*
X0525723Y0012145D01*
X0525721Y0011846D02*
X0584767Y0011846D01*
X0584768Y0011548D02*
X0525719Y0011548D01*
X0525718Y0011249D02*
X0584769Y0011249D01*
X0584770Y0010951D02*
X0525716Y0010951D01*
X0525714Y0010652D02*
X0584771Y0010652D01*
X0584772Y0010354D02*
X0525712Y0010354D01*
X0525711Y0010055D02*
X0584772Y0010055D01*
X0584773Y0009757D02*
X0525709Y0009757D01*
X0525707Y0009458D02*
X0584774Y0009458D01*
X0584775Y0009160D02*
X0525705Y0009160D01*
X0525704Y0008861D02*
X0584776Y0008861D01*
X0584777Y0008563D02*
X0525702Y0008563D01*
X0525700Y0008264D02*
X0584778Y0008264D01*
X0584779Y0007966D02*
X0525699Y0007966D01*
X0525697Y0007667D02*
X0584780Y0007667D01*
X0584781Y0007368D02*
X0525695Y0007368D01*
X0525693Y0007070D02*
X0584782Y0007070D01*
X0584782Y0006771D02*
X0525692Y0006771D01*
X0525690Y0006473D02*
X0584783Y0006473D01*
X0584784Y0006174D02*
X0525688Y0006174D01*
X0525687Y0005876D02*
X0584785Y0005876D01*
D22*
X0502700Y0012971D03*
X0482009Y0012912D03*
X0457191Y0011913D03*
X0464252Y0009902D03*
X0482009Y0008334D03*
X0489812Y0008104D03*
X0419710Y0010699D03*
X0419710Y0015428D03*
X0437211Y0016127D03*
X0419710Y0020428D03*
X0398998Y0016673D03*
X0342217Y0015225D03*
X0267585Y0021984D03*
X0259656Y0020482D03*
X0297462Y0025643D03*
X0302358Y0025682D03*
X0306737Y0025722D03*
X0311712Y0025682D03*
X0325035Y0026012D03*
X0328584Y0025979D03*
X0333029Y0026079D03*
X0348255Y0025061D03*
X0353007Y0026769D03*
X0356196Y0029466D03*
X0353591Y0031310D03*
X0372092Y0032621D03*
X0351660Y0034233D03*
X0333394Y0033285D03*
X0329447Y0033351D03*
X0325433Y0033517D03*
X0311593Y0034771D03*
X0306777Y0035050D03*
X0301841Y0035010D03*
X0297582Y0035090D03*
X0287687Y0032714D03*
X0302557Y0030506D03*
X0307015Y0030426D03*
X0311593Y0030147D03*
X0297383Y0030346D03*
X0279662Y0030359D03*
X0287228Y0027601D03*
X0280292Y0026222D03*
X0325201Y0029698D03*
X0329248Y0029864D03*
X0333328Y0029964D03*
X0333261Y0037004D03*
X0329347Y0037037D03*
X0325533Y0036938D03*
X0311434Y0039195D03*
X0306896Y0039116D03*
X0301960Y0039155D03*
X0297184Y0039195D03*
X0287744Y0038287D03*
X0257249Y0034955D03*
X0246357Y0036851D03*
X0251918Y0039953D03*
X0240969Y0043343D03*
X0246357Y0046215D03*
X0324534Y0042416D03*
X0330462Y0042236D03*
X0331540Y0046283D03*
X0325477Y0046059D03*
X0338501Y0046373D03*
X0344564Y0046193D03*
X0348651Y0046238D03*
X0383547Y0044455D03*
X0387319Y0044410D03*
X0387454Y0041082D03*
X0384086Y0040767D03*
X0387723Y0037123D03*
X0384041Y0037034D03*
X0437772Y0040998D03*
X0477243Y0037902D03*
X0483069Y0039718D03*
X0486257Y0042596D03*
X0480329Y0042821D03*
X0482485Y0045429D03*
X0487066Y0046103D03*
X0477724Y0045923D03*
X0474581Y0048531D03*
X0470808Y0049970D03*
X0465733Y0050060D03*
X0461242Y0050150D03*
X0455943Y0049880D03*
X0451092Y0050195D03*
X0446287Y0049970D03*
X0441975Y0049835D03*
X0437215Y0049700D03*
X0432859Y0049655D03*
X0428906Y0049161D03*
X0426032Y0046778D03*
X0432835Y0045578D03*
X0447427Y0035428D03*
X0458373Y0034547D03*
X0469747Y0035366D03*
X0460291Y0031023D03*
X0434710Y0028243D03*
X0424884Y0028063D03*
X0445971Y0025428D03*
X0465420Y0024180D03*
X0467977Y0021776D03*
X0521359Y0020634D03*
X0490513Y0027357D03*
X0455195Y0027994D03*
X0400665Y0023799D03*
X0550987Y0038913D03*
X0563483Y0038603D03*
X0567078Y0038002D03*
X0571117Y0038640D03*
X0568946Y0039663D03*
X0567337Y0041976D03*
X0571229Y0042163D03*
X0563183Y0041938D03*
X0239708Y0031967D03*
X0234377Y0028061D03*
X0226122Y0027946D03*
X0216320Y0027888D03*
X0208238Y0027888D03*
X0197174Y0027716D03*
X0188117Y0028061D03*
X0179748Y0028290D03*
X0172927Y0028348D03*
X0166048Y0028290D03*
X0157736Y0029439D03*
X0152348Y0032140D03*
X0084710Y0030428D03*
X0074710Y0030428D03*
X0064710Y0030428D03*
X0064710Y0035428D03*
X0074710Y0035428D03*
X0084710Y0035428D03*
X0084710Y0040428D03*
X0074710Y0040428D03*
X0064710Y0040428D03*
X0024710Y0040428D03*
X0019710Y0040428D03*
X0014710Y0040428D03*
X0014710Y0035428D03*
X0019710Y0035428D03*
X0024710Y0035428D03*
X0024710Y0045428D03*
X0019710Y0045428D03*
X0014710Y0045428D03*
X0089710Y0020428D03*
X0104710Y0020428D03*
X0130116Y0016943D03*
X0142835Y0018039D03*
X0175276Y0017441D03*
X0226820Y0010556D03*
X0226266Y0006778D03*
X0039375Y0018638D03*
X0019710Y0010428D03*
D23*
X0151222Y0026346D02*
X0152453Y0025114D01*
X0184335Y0025114D01*
X0188419Y0021031D01*
X0235533Y0021031D01*
X0246358Y0031856D01*
X0248633Y0031856D01*
X0248633Y0032595D01*
X0251405Y0032595D01*
X0251405Y0033195D01*
X0248633Y0033195D01*
X0248633Y0034740D01*
X0248722Y0035070D01*
X0248893Y0035367D01*
X0249135Y0035609D01*
X0249432Y0035780D01*
X0249762Y0035869D01*
X0251405Y0035869D01*
X0251405Y0033195D01*
X0252005Y0033195D01*
X0254777Y0033195D01*
X0254777Y0034740D01*
X0254688Y0035070D01*
X0254517Y0035367D01*
X0254275Y0035609D01*
X0253978Y0035780D01*
X0253648Y0035869D01*
X0252005Y0035869D01*
X0252005Y0033195D01*
X0252005Y0032595D01*
X0254777Y0032595D01*
X0254777Y0031856D01*
X0257344Y0031856D01*
X0260184Y0029016D01*
X0260184Y0029328D01*
X0262955Y0029328D01*
X0262955Y0029928D01*
X0260184Y0029928D01*
X0260184Y0031473D01*
X0260272Y0031803D01*
X0260443Y0032100D01*
X0260685Y0032342D01*
X0260982Y0032513D01*
X0261312Y0032601D01*
X0262955Y0032601D01*
X0262955Y0029928D01*
X0263555Y0029928D01*
X0263555Y0032601D01*
X0265198Y0032601D01*
X0265529Y0032513D01*
X0265825Y0032342D01*
X0266067Y0032100D01*
X0266238Y0031803D01*
X0266327Y0031473D01*
X0266327Y0029928D01*
X0263555Y0029928D01*
X0263555Y0029328D01*
X0266327Y0029328D01*
X0266327Y0028291D01*
X0268624Y0028291D01*
X0268569Y0028492D01*
X0268569Y0029554D01*
X0271941Y0029554D01*
X0271941Y0030135D01*
X0268569Y0030135D01*
X0268569Y0031197D01*
X0268658Y0031528D01*
X0268829Y0031824D01*
X0269071Y0032066D01*
X0269368Y0032237D01*
X0269698Y0032326D01*
X0271941Y0032326D01*
X0271941Y0030135D01*
X0272522Y0030135D01*
X0275894Y0030135D01*
X0275894Y0031197D01*
X0275805Y0031528D01*
X0275634Y0031824D01*
X0275392Y0032066D01*
X0275096Y0032237D01*
X0274765Y0032326D01*
X0272522Y0032326D01*
X0272522Y0030135D01*
X0272522Y0029554D01*
X0275894Y0029554D01*
X0275894Y0028492D01*
X0275805Y0028162D01*
X0275634Y0027865D01*
X0275516Y0027748D01*
X0278558Y0024706D01*
X0289473Y0024706D01*
X0289560Y0024790D01*
X0289560Y0040801D01*
X0289366Y0040995D01*
X0280001Y0040995D01*
X0275706Y0036699D01*
X0275805Y0036528D01*
X0275894Y0036197D01*
X0275894Y0035135D01*
X0274142Y0035135D01*
X0274038Y0035032D01*
X0272522Y0035032D01*
X0272522Y0034554D01*
X0272522Y0032364D01*
X0274765Y0032364D01*
X0275096Y0032452D01*
X0275392Y0032623D01*
X0275634Y0032865D01*
X0275805Y0033162D01*
X0275894Y0033492D01*
X0275894Y0034554D01*
X0272522Y0034554D01*
X0271941Y0034554D01*
X0271941Y0032364D01*
X0269698Y0032364D01*
X0269368Y0032452D01*
X0269071Y0032623D01*
X0268829Y0032865D01*
X0268658Y0033162D01*
X0268569Y0033492D01*
X0268569Y0034554D01*
X0271941Y0034554D01*
X0271941Y0035032D01*
X0265445Y0035032D01*
X0252043Y0048434D01*
X0236074Y0048429D01*
X0236074Y0035023D01*
X0235610Y0034559D01*
X0235610Y0033975D01*
X0234263Y0032628D01*
X0233679Y0032628D01*
X0232323Y0031272D01*
X0159836Y0031272D01*
X0155281Y0035827D01*
X0153501Y0035827D01*
X0151598Y0033924D01*
X0151598Y0033360D01*
X0151222Y0033360D01*
X0151222Y0032760D01*
X0151598Y0032760D01*
X0151598Y0029136D01*
X0151479Y0028383D01*
X0151244Y0027658D01*
X0151222Y0027615D01*
X0151222Y0026346D01*
X0151222Y0026551D02*
X0241053Y0026551D01*
X0240454Y0025952D02*
X0151616Y0025952D01*
X0152214Y0025354D02*
X0239856Y0025354D01*
X0239257Y0024755D02*
X0184694Y0024755D01*
X0185293Y0024157D02*
X0238659Y0024157D01*
X0238060Y0023558D02*
X0185891Y0023558D01*
X0186490Y0022960D02*
X0237462Y0022960D01*
X0236863Y0022361D02*
X0187088Y0022361D01*
X0187687Y0021763D02*
X0236265Y0021763D01*
X0235666Y0021164D02*
X0188286Y0021164D01*
X0151222Y0027149D02*
X0241651Y0027149D01*
X0242250Y0027748D02*
X0151273Y0027748D01*
X0151467Y0028346D02*
X0242848Y0028346D01*
X0243447Y0028945D02*
X0151568Y0028945D01*
X0151598Y0029543D02*
X0244045Y0029543D01*
X0244644Y0030142D02*
X0151598Y0030142D01*
X0151598Y0030740D02*
X0245242Y0030740D01*
X0245841Y0031339D02*
X0232390Y0031339D01*
X0232988Y0031937D02*
X0248633Y0031937D01*
X0248633Y0032536D02*
X0233587Y0032536D01*
X0234769Y0033134D02*
X0251405Y0033134D01*
X0251705Y0032895D02*
X0255189Y0032895D01*
X0257249Y0034955D01*
X0254726Y0034930D02*
X0271941Y0034930D01*
X0272522Y0034930D02*
X0289560Y0034930D01*
X0289560Y0035528D02*
X0275894Y0035528D01*
X0275894Y0036127D02*
X0289560Y0036127D01*
X0289560Y0036725D02*
X0275732Y0036725D01*
X0276330Y0037324D02*
X0289560Y0037324D01*
X0289560Y0037922D02*
X0276929Y0037922D01*
X0277527Y0038521D02*
X0289560Y0038521D01*
X0289560Y0039119D02*
X0278126Y0039119D01*
X0278724Y0039718D02*
X0289560Y0039718D01*
X0289560Y0040316D02*
X0279323Y0040316D01*
X0279921Y0040915D02*
X0289446Y0040915D01*
X0262555Y0037922D02*
X0236074Y0037922D01*
X0236074Y0037324D02*
X0263153Y0037324D01*
X0263752Y0036725D02*
X0236074Y0036725D01*
X0236074Y0036127D02*
X0264350Y0036127D01*
X0264949Y0035528D02*
X0254355Y0035528D01*
X0252005Y0035528D02*
X0251405Y0035528D01*
X0251405Y0034930D02*
X0252005Y0034930D01*
X0252005Y0034331D02*
X0251405Y0034331D01*
X0248633Y0034331D02*
X0235610Y0034331D01*
X0235981Y0034930D02*
X0248684Y0034930D01*
X0249054Y0035528D02*
X0236074Y0035528D01*
X0254777Y0034331D02*
X0268569Y0034331D01*
X0271941Y0034331D02*
X0272522Y0034331D01*
X0275894Y0034331D02*
X0289560Y0034331D01*
X0289560Y0033733D02*
X0275894Y0033733D01*
X0275789Y0033134D02*
X0289560Y0033134D01*
X0289560Y0032536D02*
X0275240Y0032536D01*
X0275521Y0031937D02*
X0289560Y0031937D01*
X0289560Y0031339D02*
X0275856Y0031339D01*
X0275894Y0030740D02*
X0289560Y0030740D01*
X0289560Y0030142D02*
X0275894Y0030142D01*
X0275894Y0029543D02*
X0289560Y0029543D01*
X0289560Y0028945D02*
X0275894Y0028945D01*
X0275855Y0028346D02*
X0289560Y0028346D01*
X0289560Y0027748D02*
X0275517Y0027748D01*
X0276115Y0027149D02*
X0289560Y0027149D01*
X0289560Y0026551D02*
X0276714Y0026551D01*
X0277312Y0025952D02*
X0289560Y0025952D01*
X0289560Y0025354D02*
X0277911Y0025354D01*
X0278509Y0024755D02*
X0289523Y0024755D01*
X0317232Y0024845D02*
X0317232Y0025428D01*
X0328711Y0025354D02*
X0342748Y0025354D01*
X0342748Y0025952D02*
X0328711Y0025952D01*
X0328711Y0026551D02*
X0342748Y0026551D01*
X0345348Y0026551D02*
X0346767Y0026551D01*
X0346810Y0026508D02*
X0349939Y0026508D01*
X0350285Y0026855D01*
X0350483Y0026855D01*
X0351127Y0027499D01*
X0351127Y0027696D01*
X0351788Y0028357D01*
X0351788Y0042701D01*
X0335632Y0042701D01*
X0332618Y0039687D01*
X0323367Y0039687D01*
X0322827Y0040227D01*
X0322827Y0048455D01*
X0424257Y0048486D01*
X0424461Y0048348D01*
X0425182Y0048486D01*
X0425915Y0048487D01*
X0426090Y0048661D01*
X0426332Y0048708D01*
X0426744Y0049315D01*
X0427262Y0049834D01*
X0427262Y0050081D01*
X0428583Y0052033D01*
X0477012Y0052024D01*
X0478537Y0049980D01*
X0478537Y0049790D01*
X0478944Y0049384D01*
X0478944Y0045267D01*
X0472895Y0045267D01*
X0470018Y0048144D01*
X0429286Y0048144D01*
X0420578Y0039436D01*
X0415385Y0039436D01*
X0411187Y0035237D01*
X0374946Y0035237D01*
X0372380Y0037803D01*
X0366571Y0037803D01*
X0352487Y0023719D01*
X0345348Y0023719D01*
X0345348Y0027970D01*
X0345384Y0027934D01*
X0345384Y0027499D01*
X0346028Y0026855D01*
X0346463Y0026855D01*
X0346810Y0026508D01*
X0345348Y0025952D02*
X0354720Y0025952D01*
X0355318Y0026551D02*
X0349981Y0026551D01*
X0350777Y0027149D02*
X0355917Y0027149D01*
X0356515Y0027748D02*
X0351178Y0027748D01*
X0351777Y0028346D02*
X0357114Y0028346D01*
X0357712Y0028945D02*
X0351788Y0028945D01*
X0351788Y0029543D02*
X0358311Y0029543D01*
X0358909Y0030142D02*
X0351788Y0030142D01*
X0351788Y0030740D02*
X0359508Y0030740D01*
X0360106Y0031339D02*
X0351788Y0031339D01*
X0351788Y0031937D02*
X0360705Y0031937D01*
X0361303Y0032536D02*
X0351788Y0032536D01*
X0351788Y0033134D02*
X0361902Y0033134D01*
X0362500Y0033733D02*
X0351788Y0033733D01*
X0351788Y0034331D02*
X0363099Y0034331D01*
X0363698Y0034930D02*
X0351788Y0034930D01*
X0351788Y0035528D02*
X0364296Y0035528D01*
X0364895Y0036127D02*
X0351788Y0036127D01*
X0351788Y0036725D02*
X0365493Y0036725D01*
X0366092Y0037324D02*
X0351788Y0037324D01*
X0351788Y0037922D02*
X0413872Y0037922D01*
X0413273Y0037324D02*
X0372859Y0037324D01*
X0373458Y0036725D02*
X0412675Y0036725D01*
X0412076Y0036127D02*
X0374056Y0036127D01*
X0374655Y0035528D02*
X0411478Y0035528D01*
X0414470Y0038521D02*
X0351788Y0038521D01*
X0351788Y0039119D02*
X0415069Y0039119D01*
X0420860Y0039718D02*
X0351788Y0039718D01*
X0351788Y0040316D02*
X0421458Y0040316D01*
X0422057Y0040915D02*
X0351788Y0040915D01*
X0351788Y0041513D02*
X0422655Y0041513D01*
X0423254Y0042112D02*
X0351788Y0042112D01*
X0335043Y0042112D02*
X0322827Y0042112D01*
X0322827Y0042710D02*
X0423852Y0042710D01*
X0424451Y0043309D02*
X0322827Y0043309D01*
X0322827Y0043907D02*
X0425049Y0043907D01*
X0425648Y0044506D02*
X0322827Y0044506D01*
X0322827Y0045104D02*
X0426246Y0045104D01*
X0426845Y0045703D02*
X0322827Y0045703D01*
X0322827Y0046301D02*
X0427444Y0046301D01*
X0428042Y0046900D02*
X0322827Y0046900D01*
X0322827Y0047499D02*
X0428641Y0047499D01*
X0429239Y0048097D02*
X0322827Y0048097D01*
X0322827Y0041513D02*
X0334445Y0041513D01*
X0333846Y0040915D02*
X0322827Y0040915D01*
X0322827Y0040316D02*
X0333248Y0040316D01*
X0332649Y0039718D02*
X0323336Y0039718D01*
X0328666Y0038967D02*
X0334351Y0038967D01*
X0342748Y0030570D01*
X0342748Y0023719D01*
X0328756Y0023719D01*
X0328711Y0023764D01*
X0328711Y0038922D01*
X0328666Y0038967D01*
X0328711Y0038521D02*
X0334797Y0038521D01*
X0335396Y0037922D02*
X0328711Y0037922D01*
X0328711Y0037324D02*
X0335994Y0037324D01*
X0336593Y0036725D02*
X0328711Y0036725D01*
X0328711Y0036127D02*
X0337191Y0036127D01*
X0337790Y0035528D02*
X0328711Y0035528D01*
X0328711Y0034930D02*
X0338388Y0034930D01*
X0338987Y0034331D02*
X0328711Y0034331D01*
X0328711Y0033733D02*
X0339585Y0033733D01*
X0340184Y0033134D02*
X0328711Y0033134D01*
X0328711Y0032536D02*
X0340782Y0032536D01*
X0341381Y0031937D02*
X0328711Y0031937D01*
X0328711Y0031339D02*
X0341979Y0031339D01*
X0342578Y0030740D02*
X0328711Y0030740D01*
X0328711Y0030142D02*
X0342748Y0030142D01*
X0342748Y0029543D02*
X0328711Y0029543D01*
X0328711Y0028945D02*
X0342748Y0028945D01*
X0342748Y0028346D02*
X0328711Y0028346D01*
X0328711Y0027748D02*
X0342748Y0027748D01*
X0342748Y0027149D02*
X0328711Y0027149D01*
X0345348Y0027149D02*
X0345734Y0027149D01*
X0345384Y0027748D02*
X0345348Y0027748D01*
X0345348Y0025354D02*
X0354121Y0025354D01*
X0353523Y0024755D02*
X0345348Y0024755D01*
X0345348Y0024157D02*
X0352924Y0024157D01*
X0342748Y0024157D02*
X0328711Y0024157D01*
X0328711Y0024755D02*
X0342748Y0024755D01*
X0272522Y0030142D02*
X0271941Y0030142D01*
X0271941Y0030740D02*
X0272522Y0030740D01*
X0272522Y0031339D02*
X0271941Y0031339D01*
X0271941Y0031937D02*
X0272522Y0031937D01*
X0272522Y0032536D02*
X0271941Y0032536D01*
X0271941Y0033134D02*
X0272522Y0033134D01*
X0272522Y0033733D02*
X0271941Y0033733D01*
X0268674Y0033134D02*
X0252005Y0033134D01*
X0252005Y0033733D02*
X0251405Y0033733D01*
X0248633Y0033733D02*
X0235368Y0033733D01*
X0254777Y0033733D02*
X0268569Y0033733D01*
X0269223Y0032536D02*
X0265443Y0032536D01*
X0266161Y0031937D02*
X0268942Y0031937D01*
X0268607Y0031339D02*
X0266327Y0031339D01*
X0266327Y0030740D02*
X0268569Y0030740D01*
X0268569Y0030142D02*
X0266327Y0030142D01*
X0268569Y0029543D02*
X0263555Y0029543D01*
X0263555Y0030142D02*
X0262955Y0030142D01*
X0262955Y0030740D02*
X0263555Y0030740D01*
X0263555Y0031339D02*
X0262955Y0031339D01*
X0262955Y0031937D02*
X0263555Y0031937D01*
X0263555Y0032536D02*
X0262955Y0032536D01*
X0261067Y0032536D02*
X0254777Y0032536D01*
X0254777Y0031937D02*
X0260350Y0031937D01*
X0260184Y0031339D02*
X0257861Y0031339D01*
X0258460Y0030740D02*
X0260184Y0030740D01*
X0260184Y0030142D02*
X0259058Y0030142D01*
X0259657Y0029543D02*
X0262955Y0029543D01*
X0266327Y0028945D02*
X0268569Y0028945D01*
X0268609Y0028346D02*
X0266327Y0028346D01*
X0259552Y0020482D02*
X0251705Y0028329D01*
X0267585Y0021984D02*
X0269148Y0020420D01*
X0269818Y0020420D01*
X0271057Y0019181D01*
X0271057Y0016622D01*
X0259656Y0020482D02*
X0259552Y0020482D01*
X0159769Y0031339D02*
X0151598Y0031339D01*
X0151598Y0031937D02*
X0159170Y0031937D01*
X0158572Y0032536D02*
X0151598Y0032536D01*
X0151222Y0033134D02*
X0157973Y0033134D01*
X0157375Y0033733D02*
X0151598Y0033733D01*
X0152005Y0034331D02*
X0156776Y0034331D01*
X0156178Y0034930D02*
X0152604Y0034930D01*
X0153202Y0035528D02*
X0155579Y0035528D01*
X0236074Y0038521D02*
X0261956Y0038521D01*
X0261358Y0039119D02*
X0236074Y0039119D01*
X0236074Y0039718D02*
X0260759Y0039718D01*
X0260161Y0040316D02*
X0236074Y0040316D01*
X0236074Y0040915D02*
X0259562Y0040915D01*
X0258964Y0041513D02*
X0236074Y0041513D01*
X0236074Y0042112D02*
X0258365Y0042112D01*
X0257767Y0042710D02*
X0236074Y0042710D01*
X0236074Y0043309D02*
X0257168Y0043309D01*
X0256570Y0043907D02*
X0236074Y0043907D01*
X0236074Y0044506D02*
X0255971Y0044506D01*
X0255373Y0045104D02*
X0236074Y0045104D01*
X0236074Y0045703D02*
X0254774Y0045703D01*
X0254176Y0046301D02*
X0236074Y0046301D01*
X0236074Y0046900D02*
X0253577Y0046900D01*
X0252979Y0047499D02*
X0236074Y0047499D01*
X0236074Y0048097D02*
X0252380Y0048097D01*
X0426268Y0048696D02*
X0478944Y0048696D01*
X0478944Y0049294D02*
X0426729Y0049294D01*
X0427262Y0049893D02*
X0478537Y0049893D01*
X0478156Y0050491D02*
X0427540Y0050491D01*
X0427945Y0051090D02*
X0477709Y0051090D01*
X0477262Y0051688D02*
X0428350Y0051688D01*
X0470065Y0048097D02*
X0478944Y0048097D01*
X0478944Y0047499D02*
X0470664Y0047499D01*
X0471263Y0046900D02*
X0478944Y0046900D01*
X0478944Y0046301D02*
X0471861Y0046301D01*
X0472460Y0045703D02*
X0478944Y0045703D01*
X0479710Y0045428D02*
X0529710Y0045428D01*
X0557193Y0017945D01*
X0567048Y0017945D01*
X0474660Y0026965D02*
X0471628Y0026965D01*
X0473203Y0028540D01*
X0474660Y0028540D01*
X0471628Y0026965D02*
X0467320Y0022657D01*
X0466710Y0023267D01*
X0465923Y0024054D01*
X0465923Y0030978D01*
X0467494Y0030982D02*
X0467498Y0030978D01*
X0467494Y0030982D01*
X0467494Y0042650D01*
X0468794Y0043608D02*
X0470647Y0041755D01*
X0470647Y0037561D01*
X0471936Y0036273D01*
X0471936Y0034459D01*
X0470647Y0033171D01*
X0470647Y0030978D01*
X0469073Y0030978D02*
X0469073Y0034692D01*
X0469747Y0035366D01*
X0462692Y0032726D02*
X0460871Y0034547D01*
X0458373Y0034547D01*
X0447427Y0035428D02*
X0447427Y0032667D01*
X0456197Y0023897D01*
X0458679Y0023897D01*
X0458760Y0023815D01*
X0458760Y0025390D02*
X0458760Y0025428D01*
X0458760Y0026965D01*
X0456224Y0026965D01*
X0455195Y0027994D01*
X0458760Y0028540D02*
X0458760Y0028559D01*
X0460335Y0030978D02*
X0460291Y0031023D01*
X0460335Y0030978D02*
X0461199Y0030978D01*
X0462692Y0031059D02*
X0462773Y0030978D01*
X0462692Y0031059D02*
X0462692Y0032726D01*
X0452432Y0025428D02*
X0445971Y0025428D01*
X0452432Y0025428D02*
X0455619Y0022241D01*
X0458760Y0022241D01*
X0463303Y0019091D02*
X0466710Y0022498D01*
X0466710Y0023028D01*
X0466710Y0023267D01*
X0466710Y0023028D02*
X0467962Y0021776D01*
X0467977Y0021776D01*
X0467320Y0022657D02*
X0466710Y0022047D01*
X0466710Y0022498D01*
X0466710Y0022047D02*
X0466710Y0020590D01*
X0469154Y0018147D01*
X0469154Y0013331D01*
X0469983Y0012502D01*
X0469821Y0012502D01*
X0469145Y0011826D01*
X0469145Y0010993D01*
X0470654Y0012502D01*
X0471312Y0012502D01*
X0472222Y0013412D01*
X0472222Y0015078D01*
X0472141Y0014997D01*
X0472141Y0013331D01*
X0470654Y0012502D02*
X0469983Y0012502D01*
X0469821Y0012502D02*
X0469102Y0012502D01*
X0468991Y0012613D01*
X0468991Y0014997D01*
X0469073Y0015078D01*
X0464348Y0015078D02*
X0464348Y0009999D01*
X0464252Y0009902D01*
X0468991Y0010839D02*
X0469145Y0010993D01*
X0468991Y0011981D02*
X0468991Y0012613D01*
X0462692Y0013331D02*
X0461275Y0011913D01*
X0457191Y0011913D01*
X0462692Y0013331D02*
X0462692Y0014997D01*
X0462773Y0015078D01*
X0461199Y0015078D02*
X0461199Y0017053D01*
X0462008Y0017862D01*
X0462074Y0017862D01*
X0463303Y0019091D01*
X0458760Y0019091D01*
X0450810Y0016845D02*
X0449339Y0018316D01*
X0442136Y0018316D01*
X0442146Y0018306D01*
X0442146Y0014545D01*
X0437211Y0016127D02*
X0435993Y0016127D01*
X0433123Y0013256D01*
X0422268Y0013256D01*
X0419710Y0010699D01*
X0433105Y0013239D02*
X0433123Y0013256D01*
X0432693Y0016128D02*
X0434881Y0018316D01*
X0442136Y0018316D01*
X0442095Y0019911D02*
X0434910Y0019911D01*
X0432694Y0022128D01*
X0430994Y0022128D01*
X0442110Y0023676D02*
X0442110Y0019927D01*
X0442095Y0019911D01*
X0449310Y0019911D01*
X0450810Y0021411D01*
X0451556Y0020666D01*
X0458760Y0020666D01*
X0458760Y0017516D02*
X0451482Y0017516D01*
X0450810Y0016845D01*
X0432693Y0016128D02*
X0430994Y0016128D01*
X0434710Y0007210D02*
X0439710Y0007210D01*
X0567048Y0038032D02*
X0567078Y0038002D01*
X0567048Y0038032D02*
X0567048Y0039993D01*
X0568616Y0039993D01*
X0568946Y0039663D01*
X0569059Y0039993D02*
X0567048Y0039993D01*
X0564873Y0039993D01*
X0563483Y0038603D01*
X0569765Y0039993D02*
X0571117Y0038640D01*
X0569765Y0039993D02*
X0569059Y0039993D01*
X0571229Y0042163D01*
X0567337Y0041976D02*
X0567337Y0040282D01*
X0567048Y0039993D01*
X0566613Y0040428D01*
X0564694Y0040428D01*
X0563183Y0041938D01*
X0039375Y0040685D02*
X0024710Y0040685D01*
X0024710Y0040428D01*
D24*
X0044710Y0040428D01*
X0039375Y0040428D02*
X0019710Y0040428D01*
X0039375Y0040428D02*
X0039375Y0040685D01*
X0059710Y0043796D02*
X0089710Y0043796D01*
X0089710Y0020428D01*
X0089710Y0018687D01*
X0074710Y0018687D01*
X0039375Y0018687D01*
X0039375Y0018638D01*
X0059710Y0018638D01*
X0059710Y0043796D01*
D25*
X0039375Y0040685D02*
X0039375Y0032978D01*
X0036968Y0030571D01*
X0018551Y0030571D01*
X0014005Y0026026D01*
X0014005Y0009575D01*
X0017656Y0005925D01*
X0022127Y0005924D01*
X0225411Y0005924D01*
X0226266Y0006778D01*
X0225318Y0009067D02*
X0223751Y0007501D01*
X0018070Y0007501D01*
X0015494Y0010077D01*
X0015494Y0025428D01*
X0019237Y0029171D01*
X0036695Y0029171D01*
X0039375Y0026491D01*
X0039375Y0018638D01*
X0225318Y0009067D02*
X0225331Y0009067D01*
X0226820Y0010556D01*
X0267689Y0017549D02*
X0274912Y0010326D01*
X0399149Y0010326D01*
X0399531Y0010707D01*
X0400563Y0010707D01*
X0420519Y0030663D01*
X0429417Y0030663D01*
X0437463Y0038709D01*
X0438720Y0038709D01*
X0440061Y0040050D01*
X0440061Y0040779D01*
X0442923Y0043641D01*
X0466503Y0043641D01*
X0467494Y0042650D01*
X0468794Y0043608D02*
X0468794Y0044150D01*
X0467903Y0045041D01*
X0438361Y0045041D01*
X0435483Y0042163D01*
X0435483Y0040689D01*
X0428257Y0033463D01*
X0419214Y0033463D01*
X0407320Y0021569D01*
X0403894Y0021569D01*
X0402228Y0019902D01*
X0419710Y0020428D02*
X0421410Y0022128D01*
X0426427Y0022128D01*
X0474660Y0020666D02*
X0483110Y0020666D01*
X0489812Y0013964D01*
X0489812Y0012671D01*
X0490112Y0012971D01*
X0502700Y0012971D01*
X0482009Y0012912D02*
X0482009Y0012901D01*
X0475818Y0019091D01*
X0474660Y0019091D01*
X0504632Y0020428D02*
X0521153Y0020428D01*
X0521359Y0020634D01*
X0458760Y0028559D02*
X0458760Y0028759D01*
X0437772Y0040998D02*
X0428837Y0032063D01*
X0419939Y0032063D01*
X0399983Y0012107D01*
X0359239Y0012107D01*
X0353257Y0018089D01*
X0348690Y0018089D02*
X0347299Y0018089D01*
X0344048Y0021340D01*
X0344048Y0035316D01*
X0344048Y0033836D01*
X0348255Y0029628D01*
X0344048Y0035316D02*
X0342138Y0037226D01*
X0341898Y0037226D01*
X0339279Y0039845D01*
X0398998Y0016673D02*
X0398998Y0016673D01*
X0419710Y0015428D02*
X0420410Y0016128D01*
X0426427Y0016128D01*
D26*
X0439378Y0007210D02*
X0442146Y0009978D01*
X0439378Y0007210D02*
X0434710Y0007210D01*
X0399710Y0007210D01*
X0400608Y0008107D01*
X0401640Y0008107D01*
X0421596Y0028063D01*
X0424884Y0028063D01*
X0430494Y0028063D01*
X0430674Y0028243D01*
X0434710Y0028243D01*
X0442110Y0028243D01*
X0236492Y0007210D02*
X0229587Y0014115D01*
X0223529Y0014115D01*
X0219842Y0010428D01*
X0019710Y0010428D01*
X0236492Y0007210D02*
X0236614Y0007088D01*
X0237231Y0007088D01*
X0236492Y0007210D02*
X0399710Y0007210D01*
D27*
X0465923Y0030978D02*
X0465923Y0039163D01*
X0463550Y0039163D01*
D28*
X0432835Y0045578D02*
X0424120Y0036863D01*
X0417806Y0036863D01*
X0413563Y0032621D01*
X0372092Y0032621D01*
X0339166Y0025972D02*
X0330539Y0017345D01*
X0325972Y0017345D02*
X0304710Y0017345D01*
X0285539Y0017345D01*
X0263255Y0017682D02*
X0263122Y0017549D01*
X0263255Y0017682D02*
X0263255Y0025061D01*
X0272015Y0025061D01*
X0272232Y0024845D01*
X0139308Y0033487D02*
X0138881Y0033060D01*
X0139308Y0033487D02*
X0139308Y0042326D01*
X0131010Y0042435D02*
X0131010Y0033063D01*
X0131007Y0033060D01*
X0439710Y0007210D02*
X0465362Y0007210D01*
X0468991Y0010839D01*
X0468991Y0011981D01*
D29*
X0249710Y0040428D02*
X0234710Y0025428D01*
X0229710Y0025428D01*
X0227413Y0027726D01*
X0159579Y0027726D01*
X0159206Y0028099D01*
X0151475Y0028099D01*
X0151475Y0028340D01*
X0146755Y0033060D01*
X0152078Y0033060D01*
X0154710Y0030428D01*
D30*
X0117790Y0035591D02*
X0115259Y0033060D01*
X0117790Y0035591D02*
X0117790Y0038817D01*
X0125008Y0046035D01*
X0131010Y0046035D01*
X0139199Y0046035D01*
X0139308Y0045926D01*
X0249710Y0040428D02*
X0271648Y0040428D01*
X0272232Y0039845D01*
X0272232Y0029845D01*
X0263472Y0029845D01*
X0263255Y0029628D01*
X0330539Y0017345D02*
X0338039Y0024845D01*
X0339279Y0024845D01*
X0339279Y0034845D01*
X0339166Y0034732D01*
X0339166Y0025972D01*
D31*
X0340154Y0026382D02*
X0323145Y0026382D01*
X0323145Y0027380D02*
X0340154Y0027380D01*
X0340154Y0028379D02*
X0323145Y0028379D01*
X0323145Y0029377D02*
X0340154Y0029377D01*
X0340154Y0030376D02*
X0323145Y0030376D01*
X0323145Y0031374D02*
X0340154Y0031374D01*
X0340154Y0032373D02*
X0323145Y0032373D01*
X0323145Y0033371D02*
X0340154Y0033371D01*
X0340154Y0034370D02*
X0323145Y0034370D01*
X0323145Y0035368D02*
X0337320Y0035368D01*
X0337721Y0034968D02*
X0340134Y0034968D01*
X0340154Y0034952D01*
X0340154Y0022227D01*
X0323145Y0022227D01*
X0323145Y0039063D01*
X0333626Y0039063D01*
X0337721Y0034968D01*
X0336322Y0036367D02*
X0323145Y0036367D01*
X0323145Y0037366D02*
X0335323Y0037366D01*
X0334325Y0038364D02*
X0323145Y0038364D01*
X0280972Y0029167D02*
X0279710Y0030428D01*
X0279127Y0029845D01*
X0272232Y0029845D01*
X0323145Y0025383D02*
X0340154Y0025383D01*
X0340154Y0024385D02*
X0323145Y0024385D01*
X0323145Y0023386D02*
X0340154Y0023386D01*
X0340154Y0022388D02*
X0323145Y0022388D01*
X0275732Y0011830D02*
X0270939Y0016622D01*
X0271057Y0016622D01*
X0275732Y0011830D02*
X0339672Y0011830D01*
X0339672Y0012679D01*
X0342217Y0015225D01*
X0406166Y0023799D02*
X0406797Y0023167D01*
X0418593Y0034963D01*
X0427636Y0034963D01*
X0433983Y0041310D01*
X0433983Y0042965D01*
X0437717Y0046699D01*
X0468445Y0046699D01*
X0477243Y0037902D01*
X0406166Y0023799D02*
X0400665Y0023799D01*
X0175276Y0017441D02*
X0171314Y0013479D01*
X0171314Y0013205D01*
X0133853Y0013205D01*
X0130116Y0016943D01*
X0139710Y0020428D02*
X0142099Y0018039D01*
X0142835Y0018039D01*
X0139710Y0020428D02*
X0139710Y0032231D01*
X0138881Y0033060D01*
D32*
X0280972Y0029167D02*
X0280972Y0017345D01*
D33*
X0294710Y0024168D02*
X0294710Y0040428D01*
X0318678Y0040428D01*
X0318678Y0024168D01*
X0294710Y0024168D01*
X0294710Y0024192D02*
X0318678Y0024192D01*
X0317232Y0024845D02*
X0294279Y0024845D01*
X0294279Y0035428D01*
X0294862Y0034845D01*
X0317232Y0034845D01*
X0318678Y0034979D02*
X0294710Y0034979D01*
X0294279Y0035428D02*
X0294279Y0039845D01*
X0317232Y0039845D01*
X0317232Y0030428D01*
X0316648Y0029845D01*
X0294279Y0029845D01*
X0294710Y0030185D02*
X0318678Y0030185D01*
X0317232Y0030428D02*
X0317232Y0025428D01*
X0318678Y0025391D02*
X0294710Y0025391D01*
X0294710Y0026589D02*
X0318678Y0026589D01*
X0318678Y0027788D02*
X0294710Y0027788D01*
X0294710Y0028986D02*
X0318678Y0028986D01*
X0318678Y0031383D02*
X0294710Y0031383D01*
X0294710Y0032582D02*
X0318678Y0032582D01*
X0318678Y0033780D02*
X0294710Y0033780D01*
X0294710Y0036177D02*
X0318678Y0036177D01*
X0318678Y0037376D02*
X0294710Y0037376D01*
X0294710Y0038574D02*
X0318678Y0038574D01*
X0318678Y0039773D02*
X0294710Y0039773D01*
X0455884Y0036063D02*
X0455884Y0031635D01*
X0458760Y0028759D01*
X0490513Y0027357D02*
X0490513Y0024704D01*
X0494789Y0020428D01*
X0458983Y0039163D02*
X0455884Y0036063D01*
D34*
X0115259Y0033060D02*
X0115259Y0018638D01*
X0039375Y0018638D01*
X0064710Y0018687D02*
X0064710Y0030428D01*
X0064710Y0035428D01*
X0064710Y0040428D01*
X0074710Y0040428D01*
X0084710Y0040428D01*
X0084710Y0035428D01*
X0084710Y0030428D01*
X0084710Y0025428D01*
X0069710Y0025428D01*
X0069710Y0035428D01*
X0074710Y0035428D01*
X0079710Y0035428D01*
X0079710Y0030428D01*
X0074710Y0030428D01*
X0074710Y0018687D02*
X0064710Y0018687D01*
M02*
