G75*
%MOIN*%
%OFA0B0*%
%FSLAX25Y25*%
%IPPOS*%
%LPD*%
%AMOC8*
5,1,8,0,0,1.08239X$1,22.5*
%
%ADD10C,0.00000*%
%ADD11C,0.00010*%
%ADD12C,0.00500*%
%ADD13C,0.00400*%
%ADD14R,0.04331X0.02362*%
%ADD15C,0.00200*%
D10*
X0005297Y0003489D02*
X0005029Y0050796D01*
X0170410Y0050796D01*
X0170410Y0034928D01*
X0233310Y0034928D01*
X0233310Y0050728D01*
X0424962Y0050786D01*
X0427363Y0054333D01*
X0478165Y0054324D01*
X0480836Y0050745D01*
X0587523Y0050838D01*
X0587732Y0003428D01*
X0228078Y0003503D01*
X0227770Y0003237D01*
X0223334Y0003250D01*
X0222935Y0003503D01*
X0005297Y0003489D01*
D11*
X0098534Y0034928D02*
X0098536Y0035067D01*
X0098542Y0035206D01*
X0098552Y0035345D01*
X0098566Y0035484D01*
X0098584Y0035622D01*
X0098605Y0035759D01*
X0098631Y0035896D01*
X0098661Y0036032D01*
X0098694Y0036168D01*
X0098732Y0036302D01*
X0098773Y0036435D01*
X0098818Y0036567D01*
X0098866Y0036697D01*
X0098919Y0036826D01*
X0098975Y0036954D01*
X0099034Y0037079D01*
X0099098Y0037203D01*
X0099164Y0037326D01*
X0099234Y0037446D01*
X0099308Y0037564D01*
X0099385Y0037680D01*
X0099465Y0037794D01*
X0099549Y0037906D01*
X0099635Y0038015D01*
X0099725Y0038121D01*
X0099818Y0038225D01*
X0099913Y0038326D01*
X0100012Y0038425D01*
X0100113Y0038520D01*
X0100217Y0038613D01*
X0100323Y0038703D01*
X0100432Y0038789D01*
X0100544Y0038873D01*
X0100658Y0038953D01*
X0100774Y0039030D01*
X0100892Y0039104D01*
X0101012Y0039174D01*
X0101135Y0039240D01*
X0101259Y0039304D01*
X0101384Y0039363D01*
X0101512Y0039419D01*
X0101641Y0039472D01*
X0101771Y0039520D01*
X0101903Y0039565D01*
X0102036Y0039606D01*
X0102170Y0039644D01*
X0102306Y0039677D01*
X0102442Y0039707D01*
X0102579Y0039733D01*
X0102716Y0039754D01*
X0102854Y0039772D01*
X0102993Y0039786D01*
X0103132Y0039796D01*
X0103271Y0039802D01*
X0103410Y0039804D01*
X0103549Y0039802D01*
X0103688Y0039796D01*
X0103827Y0039786D01*
X0103966Y0039772D01*
X0104104Y0039754D01*
X0104241Y0039733D01*
X0104378Y0039707D01*
X0104514Y0039677D01*
X0104650Y0039644D01*
X0104784Y0039606D01*
X0104917Y0039565D01*
X0105049Y0039520D01*
X0105179Y0039472D01*
X0105308Y0039419D01*
X0105436Y0039363D01*
X0105561Y0039304D01*
X0105685Y0039240D01*
X0105808Y0039174D01*
X0105928Y0039104D01*
X0106046Y0039030D01*
X0106162Y0038953D01*
X0106276Y0038873D01*
X0106388Y0038789D01*
X0106497Y0038703D01*
X0106603Y0038613D01*
X0106707Y0038520D01*
X0106808Y0038425D01*
X0106907Y0038326D01*
X0107002Y0038225D01*
X0107095Y0038121D01*
X0107185Y0038015D01*
X0107271Y0037906D01*
X0107355Y0037794D01*
X0107435Y0037680D01*
X0107512Y0037564D01*
X0107586Y0037446D01*
X0107656Y0037326D01*
X0107722Y0037203D01*
X0107786Y0037079D01*
X0107845Y0036954D01*
X0107901Y0036826D01*
X0107954Y0036697D01*
X0108002Y0036567D01*
X0108047Y0036435D01*
X0108088Y0036302D01*
X0108126Y0036168D01*
X0108159Y0036032D01*
X0108189Y0035896D01*
X0108215Y0035759D01*
X0108236Y0035622D01*
X0108254Y0035484D01*
X0108268Y0035345D01*
X0108278Y0035206D01*
X0108284Y0035067D01*
X0108286Y0034928D01*
X0108284Y0034789D01*
X0108278Y0034650D01*
X0108268Y0034511D01*
X0108254Y0034372D01*
X0108236Y0034234D01*
X0108215Y0034097D01*
X0108189Y0033960D01*
X0108159Y0033824D01*
X0108126Y0033688D01*
X0108088Y0033554D01*
X0108047Y0033421D01*
X0108002Y0033289D01*
X0107954Y0033159D01*
X0107901Y0033030D01*
X0107845Y0032902D01*
X0107786Y0032777D01*
X0107722Y0032653D01*
X0107656Y0032530D01*
X0107586Y0032410D01*
X0107512Y0032292D01*
X0107435Y0032176D01*
X0107355Y0032062D01*
X0107271Y0031950D01*
X0107185Y0031841D01*
X0107095Y0031735D01*
X0107002Y0031631D01*
X0106907Y0031530D01*
X0106808Y0031431D01*
X0106707Y0031336D01*
X0106603Y0031243D01*
X0106497Y0031153D01*
X0106388Y0031067D01*
X0106276Y0030983D01*
X0106162Y0030903D01*
X0106046Y0030826D01*
X0105928Y0030752D01*
X0105808Y0030682D01*
X0105685Y0030616D01*
X0105561Y0030552D01*
X0105436Y0030493D01*
X0105308Y0030437D01*
X0105179Y0030384D01*
X0105049Y0030336D01*
X0104917Y0030291D01*
X0104784Y0030250D01*
X0104650Y0030212D01*
X0104514Y0030179D01*
X0104378Y0030149D01*
X0104241Y0030123D01*
X0104104Y0030102D01*
X0103966Y0030084D01*
X0103827Y0030070D01*
X0103688Y0030060D01*
X0103549Y0030054D01*
X0103410Y0030052D01*
X0103271Y0030054D01*
X0103132Y0030060D01*
X0102993Y0030070D01*
X0102854Y0030084D01*
X0102716Y0030102D01*
X0102579Y0030123D01*
X0102442Y0030149D01*
X0102306Y0030179D01*
X0102170Y0030212D01*
X0102036Y0030250D01*
X0101903Y0030291D01*
X0101771Y0030336D01*
X0101641Y0030384D01*
X0101512Y0030437D01*
X0101384Y0030493D01*
X0101259Y0030552D01*
X0101135Y0030616D01*
X0101012Y0030682D01*
X0100892Y0030752D01*
X0100774Y0030826D01*
X0100658Y0030903D01*
X0100544Y0030983D01*
X0100432Y0031067D01*
X0100323Y0031153D01*
X0100217Y0031243D01*
X0100113Y0031336D01*
X0100012Y0031431D01*
X0099913Y0031530D01*
X0099818Y0031631D01*
X0099725Y0031735D01*
X0099635Y0031841D01*
X0099549Y0031950D01*
X0099465Y0032062D01*
X0099385Y0032176D01*
X0099308Y0032292D01*
X0099234Y0032410D01*
X0099164Y0032530D01*
X0099098Y0032653D01*
X0099034Y0032777D01*
X0098975Y0032902D01*
X0098919Y0033030D01*
X0098866Y0033159D01*
X0098818Y0033289D01*
X0098773Y0033421D01*
X0098732Y0033554D01*
X0098694Y0033688D01*
X0098661Y0033824D01*
X0098631Y0033960D01*
X0098605Y0034097D01*
X0098584Y0034234D01*
X0098566Y0034372D01*
X0098552Y0034511D01*
X0098542Y0034650D01*
X0098536Y0034789D01*
X0098534Y0034928D01*
X0149734Y0042828D02*
X0149736Y0042967D01*
X0149742Y0043106D01*
X0149752Y0043245D01*
X0149766Y0043384D01*
X0149784Y0043522D01*
X0149805Y0043659D01*
X0149831Y0043796D01*
X0149861Y0043932D01*
X0149894Y0044068D01*
X0149932Y0044202D01*
X0149973Y0044335D01*
X0150018Y0044467D01*
X0150066Y0044597D01*
X0150119Y0044726D01*
X0150175Y0044854D01*
X0150234Y0044979D01*
X0150298Y0045103D01*
X0150364Y0045226D01*
X0150434Y0045346D01*
X0150508Y0045464D01*
X0150585Y0045580D01*
X0150665Y0045694D01*
X0150749Y0045806D01*
X0150835Y0045915D01*
X0150925Y0046021D01*
X0151018Y0046125D01*
X0151113Y0046226D01*
X0151212Y0046325D01*
X0151313Y0046420D01*
X0151417Y0046513D01*
X0151523Y0046603D01*
X0151632Y0046689D01*
X0151744Y0046773D01*
X0151858Y0046853D01*
X0151974Y0046930D01*
X0152092Y0047004D01*
X0152212Y0047074D01*
X0152335Y0047140D01*
X0152459Y0047204D01*
X0152584Y0047263D01*
X0152712Y0047319D01*
X0152841Y0047372D01*
X0152971Y0047420D01*
X0153103Y0047465D01*
X0153236Y0047506D01*
X0153370Y0047544D01*
X0153506Y0047577D01*
X0153642Y0047607D01*
X0153779Y0047633D01*
X0153916Y0047654D01*
X0154054Y0047672D01*
X0154193Y0047686D01*
X0154332Y0047696D01*
X0154471Y0047702D01*
X0154610Y0047704D01*
X0154749Y0047702D01*
X0154888Y0047696D01*
X0155027Y0047686D01*
X0155166Y0047672D01*
X0155304Y0047654D01*
X0155441Y0047633D01*
X0155578Y0047607D01*
X0155714Y0047577D01*
X0155850Y0047544D01*
X0155984Y0047506D01*
X0156117Y0047465D01*
X0156249Y0047420D01*
X0156379Y0047372D01*
X0156508Y0047319D01*
X0156636Y0047263D01*
X0156761Y0047204D01*
X0156885Y0047140D01*
X0157008Y0047074D01*
X0157128Y0047004D01*
X0157246Y0046930D01*
X0157362Y0046853D01*
X0157476Y0046773D01*
X0157588Y0046689D01*
X0157697Y0046603D01*
X0157803Y0046513D01*
X0157907Y0046420D01*
X0158008Y0046325D01*
X0158107Y0046226D01*
X0158202Y0046125D01*
X0158295Y0046021D01*
X0158385Y0045915D01*
X0158471Y0045806D01*
X0158555Y0045694D01*
X0158635Y0045580D01*
X0158712Y0045464D01*
X0158786Y0045346D01*
X0158856Y0045226D01*
X0158922Y0045103D01*
X0158986Y0044979D01*
X0159045Y0044854D01*
X0159101Y0044726D01*
X0159154Y0044597D01*
X0159202Y0044467D01*
X0159247Y0044335D01*
X0159288Y0044202D01*
X0159326Y0044068D01*
X0159359Y0043932D01*
X0159389Y0043796D01*
X0159415Y0043659D01*
X0159436Y0043522D01*
X0159454Y0043384D01*
X0159468Y0043245D01*
X0159478Y0043106D01*
X0159484Y0042967D01*
X0159486Y0042828D01*
X0159484Y0042689D01*
X0159478Y0042550D01*
X0159468Y0042411D01*
X0159454Y0042272D01*
X0159436Y0042134D01*
X0159415Y0041997D01*
X0159389Y0041860D01*
X0159359Y0041724D01*
X0159326Y0041588D01*
X0159288Y0041454D01*
X0159247Y0041321D01*
X0159202Y0041189D01*
X0159154Y0041059D01*
X0159101Y0040930D01*
X0159045Y0040802D01*
X0158986Y0040677D01*
X0158922Y0040553D01*
X0158856Y0040430D01*
X0158786Y0040310D01*
X0158712Y0040192D01*
X0158635Y0040076D01*
X0158555Y0039962D01*
X0158471Y0039850D01*
X0158385Y0039741D01*
X0158295Y0039635D01*
X0158202Y0039531D01*
X0158107Y0039430D01*
X0158008Y0039331D01*
X0157907Y0039236D01*
X0157803Y0039143D01*
X0157697Y0039053D01*
X0157588Y0038967D01*
X0157476Y0038883D01*
X0157362Y0038803D01*
X0157246Y0038726D01*
X0157128Y0038652D01*
X0157008Y0038582D01*
X0156885Y0038516D01*
X0156761Y0038452D01*
X0156636Y0038393D01*
X0156508Y0038337D01*
X0156379Y0038284D01*
X0156249Y0038236D01*
X0156117Y0038191D01*
X0155984Y0038150D01*
X0155850Y0038112D01*
X0155714Y0038079D01*
X0155578Y0038049D01*
X0155441Y0038023D01*
X0155304Y0038002D01*
X0155166Y0037984D01*
X0155027Y0037970D01*
X0154888Y0037960D01*
X0154749Y0037954D01*
X0154610Y0037952D01*
X0154471Y0037954D01*
X0154332Y0037960D01*
X0154193Y0037970D01*
X0154054Y0037984D01*
X0153916Y0038002D01*
X0153779Y0038023D01*
X0153642Y0038049D01*
X0153506Y0038079D01*
X0153370Y0038112D01*
X0153236Y0038150D01*
X0153103Y0038191D01*
X0152971Y0038236D01*
X0152841Y0038284D01*
X0152712Y0038337D01*
X0152584Y0038393D01*
X0152459Y0038452D01*
X0152335Y0038516D01*
X0152212Y0038582D01*
X0152092Y0038652D01*
X0151974Y0038726D01*
X0151858Y0038803D01*
X0151744Y0038883D01*
X0151632Y0038967D01*
X0151523Y0039053D01*
X0151417Y0039143D01*
X0151313Y0039236D01*
X0151212Y0039331D01*
X0151113Y0039430D01*
X0151018Y0039531D01*
X0150925Y0039635D01*
X0150835Y0039741D01*
X0150749Y0039850D01*
X0150665Y0039962D01*
X0150585Y0040076D01*
X0150508Y0040192D01*
X0150434Y0040310D01*
X0150364Y0040430D01*
X0150298Y0040553D01*
X0150234Y0040677D01*
X0150175Y0040802D01*
X0150119Y0040930D01*
X0150066Y0041059D01*
X0150018Y0041189D01*
X0149973Y0041321D01*
X0149932Y0041454D01*
X0149894Y0041588D01*
X0149861Y0041724D01*
X0149831Y0041860D01*
X0149805Y0041997D01*
X0149784Y0042134D01*
X0149766Y0042272D01*
X0149752Y0042411D01*
X0149742Y0042550D01*
X0149736Y0042689D01*
X0149734Y0042828D01*
D12*
X0122176Y0047839D02*
X0122176Y0049739D01*
X0121648Y0049739D01*
X0121603Y0049737D01*
X0121559Y0049731D01*
X0121515Y0049722D01*
X0121472Y0049709D01*
X0121431Y0049692D01*
X0121390Y0049672D01*
X0121352Y0049648D01*
X0121316Y0049622D01*
X0121283Y0049592D01*
X0121252Y0049560D01*
X0121223Y0049525D01*
X0121198Y0049488D01*
X0121177Y0049449D01*
X0121158Y0049408D01*
X0121143Y0049366D01*
X0121132Y0049322D01*
X0121124Y0049278D01*
X0121120Y0049233D01*
X0121120Y0049189D01*
X0121124Y0049144D01*
X0121132Y0049100D01*
X0121143Y0049056D01*
X0121158Y0049014D01*
X0121177Y0048973D01*
X0121198Y0048934D01*
X0121223Y0048897D01*
X0121252Y0048862D01*
X0121283Y0048830D01*
X0121316Y0048800D01*
X0121352Y0048774D01*
X0121390Y0048750D01*
X0121431Y0048730D01*
X0121472Y0048713D01*
X0121515Y0048700D01*
X0121559Y0048691D01*
X0121603Y0048685D01*
X0121648Y0048683D01*
X0122176Y0048683D01*
X0121543Y0048683D02*
X0121120Y0047839D01*
X0120041Y0047839D02*
X0118986Y0047839D01*
X0119513Y0047839D02*
X0119513Y0049739D01*
X0120041Y0049317D01*
X0117775Y0049317D02*
X0117773Y0049277D01*
X0117767Y0049237D01*
X0117758Y0049198D01*
X0117745Y0049160D01*
X0117728Y0049124D01*
X0117708Y0049089D01*
X0117685Y0049056D01*
X0117658Y0049026D01*
X0117629Y0048998D01*
X0117598Y0048973D01*
X0117564Y0048952D01*
X0117528Y0048933D01*
X0117491Y0048918D01*
X0117452Y0048907D01*
X0117413Y0048899D01*
X0117373Y0048895D01*
X0117333Y0048895D01*
X0117293Y0048899D01*
X0117254Y0048907D01*
X0117215Y0048918D01*
X0117178Y0048933D01*
X0117142Y0048952D01*
X0117108Y0048973D01*
X0117077Y0048998D01*
X0117048Y0049026D01*
X0117021Y0049056D01*
X0116998Y0049089D01*
X0116978Y0049124D01*
X0116961Y0049160D01*
X0116948Y0049198D01*
X0116939Y0049237D01*
X0116933Y0049277D01*
X0116931Y0049317D01*
X0116933Y0049357D01*
X0116939Y0049397D01*
X0116948Y0049436D01*
X0116961Y0049474D01*
X0116978Y0049510D01*
X0116998Y0049545D01*
X0117021Y0049578D01*
X0117048Y0049608D01*
X0117077Y0049636D01*
X0117108Y0049661D01*
X0117142Y0049682D01*
X0117178Y0049701D01*
X0117215Y0049716D01*
X0117254Y0049727D01*
X0117293Y0049735D01*
X0117333Y0049739D01*
X0117373Y0049739D01*
X0117413Y0049735D01*
X0117452Y0049727D01*
X0117491Y0049716D01*
X0117528Y0049701D01*
X0117564Y0049682D01*
X0117598Y0049661D01*
X0117629Y0049636D01*
X0117658Y0049608D01*
X0117685Y0049578D01*
X0117708Y0049545D01*
X0117728Y0049510D01*
X0117745Y0049474D01*
X0117758Y0049436D01*
X0117767Y0049397D01*
X0117773Y0049357D01*
X0117775Y0049317D01*
X0117881Y0048367D02*
X0117879Y0048322D01*
X0117873Y0048278D01*
X0117864Y0048234D01*
X0117851Y0048191D01*
X0117834Y0048150D01*
X0117814Y0048109D01*
X0117790Y0048071D01*
X0117764Y0048035D01*
X0117734Y0048002D01*
X0117702Y0047971D01*
X0117667Y0047942D01*
X0117630Y0047917D01*
X0117591Y0047896D01*
X0117550Y0047877D01*
X0117508Y0047862D01*
X0117464Y0047851D01*
X0117420Y0047843D01*
X0117375Y0047839D01*
X0117331Y0047839D01*
X0117286Y0047843D01*
X0117242Y0047851D01*
X0117198Y0047862D01*
X0117156Y0047877D01*
X0117115Y0047896D01*
X0117076Y0047917D01*
X0117039Y0047942D01*
X0117004Y0047971D01*
X0116972Y0048002D01*
X0116942Y0048035D01*
X0116916Y0048071D01*
X0116892Y0048109D01*
X0116872Y0048150D01*
X0116855Y0048191D01*
X0116842Y0048234D01*
X0116833Y0048278D01*
X0116827Y0048322D01*
X0116825Y0048367D01*
X0116827Y0048412D01*
X0116833Y0048456D01*
X0116842Y0048500D01*
X0116855Y0048543D01*
X0116872Y0048584D01*
X0116892Y0048625D01*
X0116916Y0048663D01*
X0116942Y0048699D01*
X0116972Y0048732D01*
X0117004Y0048763D01*
X0117039Y0048792D01*
X0117076Y0048817D01*
X0117115Y0048838D01*
X0117156Y0048857D01*
X0117198Y0048872D01*
X0117242Y0048883D01*
X0117286Y0048891D01*
X0117331Y0048895D01*
X0117375Y0048895D01*
X0117420Y0048891D01*
X0117464Y0048883D01*
X0117508Y0048872D01*
X0117550Y0048857D01*
X0117591Y0048838D01*
X0117630Y0048817D01*
X0117667Y0048792D01*
X0117702Y0048763D01*
X0117734Y0048732D01*
X0117764Y0048699D01*
X0117790Y0048663D01*
X0117814Y0048625D01*
X0117834Y0048584D01*
X0117851Y0048543D01*
X0117864Y0048500D01*
X0117873Y0048456D01*
X0117879Y0048412D01*
X0117881Y0048367D01*
X0368214Y0028843D02*
X0368214Y0028315D01*
X0368847Y0028315D01*
X0368214Y0028315D02*
X0368216Y0028260D01*
X0368221Y0028205D01*
X0368230Y0028150D01*
X0368243Y0028097D01*
X0368259Y0028044D01*
X0368278Y0027992D01*
X0368301Y0027942D01*
X0368327Y0027893D01*
X0368356Y0027846D01*
X0368388Y0027801D01*
X0368423Y0027759D01*
X0368461Y0027718D01*
X0368502Y0027680D01*
X0368544Y0027645D01*
X0368589Y0027613D01*
X0368636Y0027584D01*
X0368685Y0027558D01*
X0368735Y0027535D01*
X0368787Y0027516D01*
X0368840Y0027500D01*
X0368893Y0027487D01*
X0368948Y0027478D01*
X0369003Y0027473D01*
X0369058Y0027471D01*
X0370349Y0027471D02*
X0370771Y0028315D01*
X0370876Y0028315D02*
X0371404Y0028315D01*
X0370876Y0028315D02*
X0370831Y0028317D01*
X0370787Y0028323D01*
X0370743Y0028332D01*
X0370700Y0028345D01*
X0370659Y0028362D01*
X0370618Y0028382D01*
X0370580Y0028406D01*
X0370544Y0028432D01*
X0370511Y0028462D01*
X0370480Y0028494D01*
X0370451Y0028529D01*
X0370426Y0028566D01*
X0370405Y0028605D01*
X0370386Y0028646D01*
X0370371Y0028688D01*
X0370360Y0028732D01*
X0370352Y0028776D01*
X0370348Y0028821D01*
X0370348Y0028865D01*
X0370352Y0028910D01*
X0370360Y0028954D01*
X0370371Y0028998D01*
X0370386Y0029040D01*
X0370405Y0029081D01*
X0370426Y0029120D01*
X0370451Y0029157D01*
X0370480Y0029192D01*
X0370511Y0029224D01*
X0370544Y0029254D01*
X0370580Y0029280D01*
X0370618Y0029304D01*
X0370659Y0029324D01*
X0370700Y0029341D01*
X0370743Y0029354D01*
X0370787Y0029363D01*
X0370831Y0029369D01*
X0370876Y0029371D01*
X0371404Y0029371D01*
X0371404Y0027471D01*
X0369269Y0028737D02*
X0369269Y0028843D01*
X0369269Y0028737D02*
X0369267Y0028698D01*
X0369262Y0028659D01*
X0369253Y0028622D01*
X0369241Y0028585D01*
X0369225Y0028549D01*
X0369206Y0028515D01*
X0369184Y0028483D01*
X0369159Y0028453D01*
X0369131Y0028425D01*
X0369101Y0028400D01*
X0369069Y0028378D01*
X0369035Y0028359D01*
X0368999Y0028343D01*
X0368962Y0028331D01*
X0368925Y0028322D01*
X0368886Y0028317D01*
X0368847Y0028315D01*
X0369269Y0028843D02*
X0369267Y0028888D01*
X0369261Y0028932D01*
X0369252Y0028976D01*
X0369239Y0029019D01*
X0369222Y0029060D01*
X0369202Y0029101D01*
X0369178Y0029139D01*
X0369152Y0029175D01*
X0369122Y0029208D01*
X0369090Y0029239D01*
X0369055Y0029268D01*
X0369018Y0029293D01*
X0368979Y0029314D01*
X0368938Y0029333D01*
X0368896Y0029348D01*
X0368852Y0029359D01*
X0368808Y0029367D01*
X0368763Y0029371D01*
X0368719Y0029371D01*
X0368674Y0029367D01*
X0368630Y0029359D01*
X0368586Y0029348D01*
X0368544Y0029333D01*
X0368503Y0029314D01*
X0368464Y0029293D01*
X0368427Y0029268D01*
X0368392Y0029239D01*
X0368360Y0029208D01*
X0368330Y0029175D01*
X0368304Y0029139D01*
X0368280Y0029101D01*
X0368260Y0029060D01*
X0368243Y0029019D01*
X0368230Y0028976D01*
X0368221Y0028932D01*
X0368215Y0028888D01*
X0368213Y0028843D01*
X0440299Y0022178D02*
X0440722Y0022178D01*
X0440761Y0022176D01*
X0440800Y0022171D01*
X0440837Y0022162D01*
X0440874Y0022150D01*
X0440910Y0022134D01*
X0440944Y0022115D01*
X0440976Y0022093D01*
X0441006Y0022068D01*
X0441034Y0022040D01*
X0441059Y0022010D01*
X0441081Y0021978D01*
X0441100Y0021944D01*
X0441116Y0021908D01*
X0441128Y0021871D01*
X0441137Y0021834D01*
X0441142Y0021795D01*
X0441144Y0021756D01*
X0441144Y0020700D01*
X0441142Y0020661D01*
X0441137Y0020622D01*
X0441128Y0020585D01*
X0441116Y0020548D01*
X0441100Y0020512D01*
X0441081Y0020478D01*
X0441059Y0020446D01*
X0441034Y0020416D01*
X0441006Y0020388D01*
X0440976Y0020363D01*
X0440944Y0020341D01*
X0440910Y0020322D01*
X0440874Y0020306D01*
X0440837Y0020294D01*
X0440800Y0020285D01*
X0440761Y0020280D01*
X0440722Y0020278D01*
X0440299Y0020278D01*
X0439332Y0020806D02*
X0439332Y0021334D01*
X0438699Y0021334D01*
X0439332Y0021334D02*
X0439330Y0021389D01*
X0439325Y0021444D01*
X0439316Y0021499D01*
X0439303Y0021552D01*
X0439287Y0021605D01*
X0439268Y0021657D01*
X0439245Y0021707D01*
X0439219Y0021756D01*
X0439190Y0021803D01*
X0439158Y0021848D01*
X0439123Y0021890D01*
X0439085Y0021931D01*
X0439044Y0021969D01*
X0439002Y0022004D01*
X0438957Y0022036D01*
X0438910Y0022065D01*
X0438861Y0022091D01*
X0438811Y0022114D01*
X0438759Y0022133D01*
X0438706Y0022149D01*
X0438653Y0022162D01*
X0438598Y0022171D01*
X0438543Y0022176D01*
X0438488Y0022178D01*
X0438277Y0020911D02*
X0438277Y0020806D01*
X0438277Y0020911D02*
X0438279Y0020950D01*
X0438284Y0020989D01*
X0438293Y0021026D01*
X0438305Y0021063D01*
X0438321Y0021099D01*
X0438340Y0021133D01*
X0438362Y0021165D01*
X0438387Y0021195D01*
X0438415Y0021223D01*
X0438445Y0021248D01*
X0438477Y0021270D01*
X0438511Y0021289D01*
X0438547Y0021305D01*
X0438584Y0021317D01*
X0438621Y0021326D01*
X0438660Y0021331D01*
X0438699Y0021333D01*
X0438277Y0020806D02*
X0438279Y0020761D01*
X0438285Y0020717D01*
X0438294Y0020673D01*
X0438307Y0020630D01*
X0438324Y0020589D01*
X0438344Y0020548D01*
X0438368Y0020510D01*
X0438394Y0020474D01*
X0438424Y0020441D01*
X0438456Y0020410D01*
X0438491Y0020381D01*
X0438528Y0020356D01*
X0438567Y0020335D01*
X0438608Y0020316D01*
X0438650Y0020301D01*
X0438694Y0020290D01*
X0438738Y0020282D01*
X0438783Y0020278D01*
X0438827Y0020278D01*
X0438872Y0020282D01*
X0438916Y0020290D01*
X0438960Y0020301D01*
X0439002Y0020316D01*
X0439043Y0020335D01*
X0439082Y0020356D01*
X0439119Y0020381D01*
X0439154Y0020410D01*
X0439186Y0020441D01*
X0439216Y0020474D01*
X0439242Y0020510D01*
X0439266Y0020548D01*
X0439286Y0020589D01*
X0439303Y0020630D01*
X0439316Y0020673D01*
X0439325Y0020717D01*
X0439331Y0020761D01*
X0439333Y0020806D01*
X0483268Y0020682D02*
X0484324Y0020682D01*
X0484324Y0019838D01*
X0483690Y0019838D01*
X0483690Y0019837D02*
X0483651Y0019835D01*
X0483612Y0019830D01*
X0483575Y0019821D01*
X0483538Y0019809D01*
X0483502Y0019793D01*
X0483468Y0019774D01*
X0483436Y0019752D01*
X0483406Y0019727D01*
X0483378Y0019699D01*
X0483353Y0019669D01*
X0483331Y0019637D01*
X0483312Y0019603D01*
X0483296Y0019567D01*
X0483284Y0019530D01*
X0483275Y0019493D01*
X0483270Y0019454D01*
X0483268Y0019415D01*
X0483268Y0019204D01*
X0483270Y0019165D01*
X0483275Y0019126D01*
X0483284Y0019089D01*
X0483296Y0019052D01*
X0483312Y0019016D01*
X0483331Y0018982D01*
X0483353Y0018950D01*
X0483378Y0018920D01*
X0483406Y0018892D01*
X0483436Y0018867D01*
X0483468Y0018845D01*
X0483502Y0018826D01*
X0483538Y0018810D01*
X0483575Y0018798D01*
X0483612Y0018789D01*
X0483651Y0018784D01*
X0483690Y0018782D01*
X0484324Y0018782D01*
X0485291Y0018782D02*
X0485713Y0018782D01*
X0485752Y0018784D01*
X0485791Y0018789D01*
X0485828Y0018798D01*
X0485865Y0018810D01*
X0485901Y0018826D01*
X0485935Y0018845D01*
X0485967Y0018867D01*
X0485997Y0018892D01*
X0486025Y0018920D01*
X0486050Y0018950D01*
X0486072Y0018982D01*
X0486091Y0019016D01*
X0486107Y0019052D01*
X0486119Y0019089D01*
X0486128Y0019126D01*
X0486133Y0019165D01*
X0486135Y0019204D01*
X0486135Y0020260D01*
X0486133Y0020299D01*
X0486128Y0020338D01*
X0486119Y0020375D01*
X0486107Y0020412D01*
X0486091Y0020448D01*
X0486072Y0020482D01*
X0486050Y0020514D01*
X0486025Y0020544D01*
X0485997Y0020572D01*
X0485967Y0020597D01*
X0485935Y0020619D01*
X0485901Y0020638D01*
X0485865Y0020654D01*
X0485828Y0020666D01*
X0485791Y0020675D01*
X0485752Y0020680D01*
X0485713Y0020682D01*
X0485291Y0020682D01*
X0498403Y0024874D02*
X0498405Y0024829D01*
X0498411Y0024785D01*
X0498420Y0024741D01*
X0498433Y0024698D01*
X0498450Y0024657D01*
X0498470Y0024616D01*
X0498494Y0024578D01*
X0498520Y0024542D01*
X0498550Y0024509D01*
X0498582Y0024478D01*
X0498617Y0024449D01*
X0498654Y0024424D01*
X0498693Y0024403D01*
X0498734Y0024384D01*
X0498776Y0024369D01*
X0498820Y0024358D01*
X0498864Y0024350D01*
X0498909Y0024346D01*
X0498953Y0024346D01*
X0498998Y0024350D01*
X0499042Y0024358D01*
X0499086Y0024369D01*
X0499128Y0024384D01*
X0499169Y0024403D01*
X0499208Y0024424D01*
X0499245Y0024449D01*
X0499280Y0024478D01*
X0499312Y0024509D01*
X0499342Y0024542D01*
X0499368Y0024578D01*
X0499392Y0024616D01*
X0499412Y0024657D01*
X0499429Y0024698D01*
X0499442Y0024741D01*
X0499451Y0024785D01*
X0499457Y0024829D01*
X0499459Y0024874D01*
X0499457Y0024919D01*
X0499451Y0024963D01*
X0499442Y0025007D01*
X0499429Y0025050D01*
X0499412Y0025091D01*
X0499392Y0025132D01*
X0499368Y0025170D01*
X0499342Y0025206D01*
X0499312Y0025239D01*
X0499280Y0025270D01*
X0499245Y0025299D01*
X0499208Y0025324D01*
X0499169Y0025345D01*
X0499128Y0025364D01*
X0499086Y0025379D01*
X0499042Y0025390D01*
X0498998Y0025398D01*
X0498953Y0025402D01*
X0498909Y0025402D01*
X0498864Y0025398D01*
X0498820Y0025390D01*
X0498776Y0025379D01*
X0498734Y0025364D01*
X0498693Y0025345D01*
X0498654Y0025324D01*
X0498617Y0025299D01*
X0498582Y0025270D01*
X0498550Y0025239D01*
X0498520Y0025206D01*
X0498494Y0025170D01*
X0498470Y0025132D01*
X0498450Y0025091D01*
X0498433Y0025050D01*
X0498420Y0025007D01*
X0498411Y0024963D01*
X0498405Y0024919D01*
X0498403Y0024874D01*
X0500538Y0024347D02*
X0500961Y0025191D01*
X0501066Y0025191D02*
X0501594Y0025191D01*
X0501066Y0025191D02*
X0501021Y0025193D01*
X0500977Y0025199D01*
X0500933Y0025208D01*
X0500890Y0025221D01*
X0500849Y0025238D01*
X0500808Y0025258D01*
X0500770Y0025282D01*
X0500734Y0025308D01*
X0500701Y0025338D01*
X0500670Y0025370D01*
X0500641Y0025405D01*
X0500616Y0025442D01*
X0500595Y0025481D01*
X0500576Y0025522D01*
X0500561Y0025564D01*
X0500550Y0025608D01*
X0500542Y0025652D01*
X0500538Y0025697D01*
X0500538Y0025741D01*
X0500542Y0025786D01*
X0500550Y0025830D01*
X0500561Y0025874D01*
X0500576Y0025916D01*
X0500595Y0025957D01*
X0500616Y0025996D01*
X0500641Y0026033D01*
X0500670Y0026068D01*
X0500701Y0026100D01*
X0500734Y0026130D01*
X0500770Y0026156D01*
X0500808Y0026180D01*
X0500849Y0026200D01*
X0500890Y0026217D01*
X0500933Y0026230D01*
X0500977Y0026239D01*
X0501021Y0026245D01*
X0501066Y0026247D01*
X0501594Y0026247D01*
X0501594Y0024347D01*
X0499353Y0025824D02*
X0499351Y0025784D01*
X0499345Y0025744D01*
X0499336Y0025705D01*
X0499323Y0025667D01*
X0499306Y0025631D01*
X0499286Y0025596D01*
X0499263Y0025563D01*
X0499236Y0025533D01*
X0499207Y0025505D01*
X0499176Y0025480D01*
X0499142Y0025459D01*
X0499106Y0025440D01*
X0499069Y0025425D01*
X0499030Y0025414D01*
X0498991Y0025406D01*
X0498951Y0025402D01*
X0498911Y0025402D01*
X0498871Y0025406D01*
X0498832Y0025414D01*
X0498793Y0025425D01*
X0498756Y0025440D01*
X0498720Y0025459D01*
X0498686Y0025480D01*
X0498655Y0025505D01*
X0498626Y0025533D01*
X0498599Y0025563D01*
X0498576Y0025596D01*
X0498556Y0025631D01*
X0498539Y0025667D01*
X0498526Y0025705D01*
X0498517Y0025744D01*
X0498511Y0025784D01*
X0498509Y0025824D01*
X0498511Y0025864D01*
X0498517Y0025904D01*
X0498526Y0025943D01*
X0498539Y0025981D01*
X0498556Y0026017D01*
X0498576Y0026052D01*
X0498599Y0026085D01*
X0498626Y0026115D01*
X0498655Y0026143D01*
X0498686Y0026168D01*
X0498720Y0026189D01*
X0498756Y0026208D01*
X0498793Y0026223D01*
X0498832Y0026234D01*
X0498871Y0026242D01*
X0498911Y0026246D01*
X0498951Y0026246D01*
X0498991Y0026242D01*
X0499030Y0026234D01*
X0499069Y0026223D01*
X0499106Y0026208D01*
X0499142Y0026189D01*
X0499176Y0026168D01*
X0499207Y0026143D01*
X0499236Y0026115D01*
X0499263Y0026085D01*
X0499286Y0026052D01*
X0499306Y0026017D01*
X0499323Y0025981D01*
X0499336Y0025943D01*
X0499345Y0025904D01*
X0499351Y0025864D01*
X0499353Y0025824D01*
X0450722Y0030278D02*
X0450299Y0030278D01*
X0450722Y0030278D02*
X0450761Y0030280D01*
X0450800Y0030285D01*
X0450837Y0030294D01*
X0450874Y0030306D01*
X0450910Y0030322D01*
X0450944Y0030341D01*
X0450976Y0030363D01*
X0451006Y0030388D01*
X0451034Y0030416D01*
X0451059Y0030446D01*
X0451081Y0030478D01*
X0451100Y0030512D01*
X0451116Y0030548D01*
X0451128Y0030585D01*
X0451137Y0030622D01*
X0451142Y0030661D01*
X0451144Y0030700D01*
X0451144Y0031756D01*
X0451142Y0031795D01*
X0451137Y0031834D01*
X0451128Y0031871D01*
X0451116Y0031908D01*
X0451100Y0031944D01*
X0451081Y0031978D01*
X0451059Y0032010D01*
X0451034Y0032040D01*
X0451006Y0032068D01*
X0450976Y0032093D01*
X0450944Y0032115D01*
X0450910Y0032134D01*
X0450874Y0032150D01*
X0450837Y0032162D01*
X0450800Y0032171D01*
X0450761Y0032176D01*
X0450722Y0032178D01*
X0450299Y0032178D01*
X0448910Y0032178D02*
X0449332Y0030700D01*
X0448277Y0030700D01*
X0448594Y0031122D02*
X0448594Y0030278D01*
X0547109Y0044063D02*
X0547636Y0042163D01*
X0549243Y0042163D02*
X0549666Y0043008D01*
X0549771Y0043008D02*
X0550299Y0043008D01*
X0549771Y0043008D02*
X0549726Y0043010D01*
X0549682Y0043016D01*
X0549638Y0043025D01*
X0549595Y0043038D01*
X0549554Y0043055D01*
X0549513Y0043075D01*
X0549475Y0043099D01*
X0549439Y0043125D01*
X0549406Y0043155D01*
X0549375Y0043187D01*
X0549346Y0043222D01*
X0549321Y0043259D01*
X0549300Y0043298D01*
X0549281Y0043339D01*
X0549266Y0043381D01*
X0549255Y0043425D01*
X0549247Y0043469D01*
X0549243Y0043514D01*
X0549243Y0043558D01*
X0549247Y0043603D01*
X0549255Y0043647D01*
X0549266Y0043691D01*
X0549281Y0043733D01*
X0549300Y0043774D01*
X0549321Y0043813D01*
X0549346Y0043850D01*
X0549375Y0043885D01*
X0549406Y0043917D01*
X0549439Y0043947D01*
X0549475Y0043973D01*
X0549513Y0043997D01*
X0549554Y0044017D01*
X0549595Y0044034D01*
X0549638Y0044047D01*
X0549682Y0044056D01*
X0549726Y0044062D01*
X0549771Y0044064D01*
X0549771Y0044063D02*
X0550299Y0044063D01*
X0550299Y0042163D01*
X0548164Y0043852D02*
X0548164Y0044063D01*
X0547109Y0044063D01*
X0511759Y0012891D02*
X0509859Y0012364D01*
X0511548Y0011836D02*
X0511759Y0011836D01*
X0511759Y0012891D01*
X0494454Y0012684D02*
X0494452Y0012626D01*
X0494446Y0012569D01*
X0494436Y0012512D01*
X0494423Y0012456D01*
X0494405Y0012401D01*
X0494384Y0012348D01*
X0494359Y0012296D01*
X0494331Y0012245D01*
X0494300Y0012197D01*
X0494265Y0012151D01*
X0494227Y0012108D01*
X0494186Y0012067D01*
X0494143Y0012029D01*
X0494097Y0011994D01*
X0494049Y0011963D01*
X0493998Y0011935D01*
X0493946Y0011910D01*
X0493893Y0011889D01*
X0493838Y0011871D01*
X0493782Y0011858D01*
X0493725Y0011848D01*
X0493668Y0011842D01*
X0493610Y0011840D01*
X0493082Y0011840D01*
X0493610Y0011840D02*
X0493610Y0012473D01*
X0493609Y0012473D02*
X0493607Y0012512D01*
X0493602Y0012551D01*
X0493593Y0012588D01*
X0493581Y0012625D01*
X0493565Y0012661D01*
X0493546Y0012695D01*
X0493524Y0012727D01*
X0493499Y0012757D01*
X0493471Y0012785D01*
X0493441Y0012810D01*
X0493409Y0012832D01*
X0493375Y0012851D01*
X0493339Y0012867D01*
X0493302Y0012879D01*
X0493265Y0012888D01*
X0493226Y0012893D01*
X0493187Y0012895D01*
X0493082Y0012895D01*
X0493082Y0012896D02*
X0493037Y0012894D01*
X0492993Y0012888D01*
X0492949Y0012879D01*
X0492906Y0012866D01*
X0492865Y0012849D01*
X0492824Y0012829D01*
X0492786Y0012805D01*
X0492750Y0012779D01*
X0492717Y0012749D01*
X0492686Y0012717D01*
X0492657Y0012682D01*
X0492632Y0012645D01*
X0492611Y0012606D01*
X0492592Y0012565D01*
X0492577Y0012523D01*
X0492566Y0012479D01*
X0492558Y0012435D01*
X0492554Y0012390D01*
X0492554Y0012346D01*
X0492558Y0012301D01*
X0492566Y0012257D01*
X0492577Y0012213D01*
X0492592Y0012171D01*
X0492611Y0012130D01*
X0492632Y0012091D01*
X0492657Y0012054D01*
X0492686Y0012019D01*
X0492717Y0011987D01*
X0492750Y0011957D01*
X0492786Y0011931D01*
X0492824Y0011907D01*
X0492865Y0011887D01*
X0492906Y0011870D01*
X0492949Y0011857D01*
X0492993Y0011848D01*
X0493037Y0011842D01*
X0493082Y0011840D01*
X0492554Y0010735D02*
X0492554Y0009680D01*
X0492554Y0010208D02*
X0494454Y0010208D01*
X0494032Y0009680D01*
X0493399Y0008178D02*
X0492554Y0008601D01*
X0493399Y0008073D02*
X0493399Y0007545D01*
X0493398Y0008073D02*
X0493400Y0008118D01*
X0493406Y0008162D01*
X0493415Y0008206D01*
X0493428Y0008249D01*
X0493445Y0008290D01*
X0493465Y0008331D01*
X0493489Y0008369D01*
X0493515Y0008405D01*
X0493545Y0008438D01*
X0493577Y0008469D01*
X0493612Y0008498D01*
X0493649Y0008523D01*
X0493688Y0008544D01*
X0493729Y0008563D01*
X0493771Y0008578D01*
X0493815Y0008589D01*
X0493859Y0008597D01*
X0493904Y0008601D01*
X0493948Y0008601D01*
X0493993Y0008597D01*
X0494037Y0008589D01*
X0494081Y0008578D01*
X0494123Y0008563D01*
X0494164Y0008544D01*
X0494203Y0008523D01*
X0494240Y0008498D01*
X0494275Y0008469D01*
X0494307Y0008438D01*
X0494337Y0008405D01*
X0494363Y0008369D01*
X0494387Y0008331D01*
X0494407Y0008290D01*
X0494424Y0008249D01*
X0494437Y0008206D01*
X0494446Y0008162D01*
X0494452Y0008118D01*
X0494454Y0008073D01*
X0494454Y0007545D01*
X0492554Y0007545D01*
X0509859Y0007541D02*
X0511759Y0007541D01*
X0511759Y0008069D01*
X0511757Y0008114D01*
X0511751Y0008158D01*
X0511742Y0008202D01*
X0511729Y0008245D01*
X0511712Y0008286D01*
X0511692Y0008327D01*
X0511668Y0008365D01*
X0511642Y0008401D01*
X0511612Y0008434D01*
X0511580Y0008465D01*
X0511545Y0008494D01*
X0511508Y0008519D01*
X0511469Y0008540D01*
X0511428Y0008559D01*
X0511386Y0008574D01*
X0511342Y0008585D01*
X0511298Y0008593D01*
X0511253Y0008597D01*
X0511209Y0008597D01*
X0511164Y0008593D01*
X0511120Y0008585D01*
X0511076Y0008574D01*
X0511034Y0008559D01*
X0510993Y0008540D01*
X0510954Y0008519D01*
X0510917Y0008494D01*
X0510882Y0008465D01*
X0510850Y0008434D01*
X0510820Y0008401D01*
X0510794Y0008365D01*
X0510770Y0008327D01*
X0510750Y0008286D01*
X0510733Y0008245D01*
X0510720Y0008202D01*
X0510711Y0008158D01*
X0510705Y0008114D01*
X0510703Y0008069D01*
X0510704Y0008069D02*
X0510704Y0007541D01*
X0510704Y0008174D02*
X0509859Y0008596D01*
X0509859Y0009676D02*
X0509859Y0010731D01*
X0509859Y0010204D02*
X0511759Y0010204D01*
X0511337Y0009676D01*
X0175668Y0009128D02*
X0175668Y0007228D01*
X0175668Y0008073D02*
X0175140Y0008073D01*
X0175035Y0008073D02*
X0174612Y0007228D01*
X0173533Y0007228D02*
X0172477Y0007228D01*
X0173005Y0007228D02*
X0173005Y0009128D01*
X0173533Y0008706D01*
X0175140Y0009129D02*
X0175095Y0009127D01*
X0175051Y0009121D01*
X0175007Y0009112D01*
X0174964Y0009099D01*
X0174923Y0009082D01*
X0174882Y0009062D01*
X0174844Y0009038D01*
X0174808Y0009012D01*
X0174775Y0008982D01*
X0174744Y0008950D01*
X0174715Y0008915D01*
X0174690Y0008878D01*
X0174669Y0008839D01*
X0174650Y0008798D01*
X0174635Y0008756D01*
X0174624Y0008712D01*
X0174616Y0008668D01*
X0174612Y0008623D01*
X0174612Y0008579D01*
X0174616Y0008534D01*
X0174624Y0008490D01*
X0174635Y0008446D01*
X0174650Y0008404D01*
X0174669Y0008363D01*
X0174690Y0008324D01*
X0174715Y0008287D01*
X0174744Y0008252D01*
X0174775Y0008220D01*
X0174808Y0008190D01*
X0174844Y0008164D01*
X0174882Y0008140D01*
X0174923Y0008120D01*
X0174964Y0008103D01*
X0175007Y0008090D01*
X0175051Y0008081D01*
X0175095Y0008075D01*
X0175140Y0008073D01*
X0171373Y0008284D02*
X0171373Y0009128D01*
X0170317Y0009128D01*
X0175140Y0009128D02*
X0175668Y0009128D01*
X0171373Y0008284D02*
X0170740Y0008284D01*
X0170701Y0008282D01*
X0170662Y0008277D01*
X0170625Y0008268D01*
X0170588Y0008256D01*
X0170552Y0008240D01*
X0170518Y0008221D01*
X0170486Y0008199D01*
X0170456Y0008174D01*
X0170428Y0008146D01*
X0170403Y0008116D01*
X0170381Y0008084D01*
X0170362Y0008050D01*
X0170346Y0008014D01*
X0170334Y0007977D01*
X0170325Y0007940D01*
X0170320Y0007901D01*
X0170318Y0007862D01*
X0170317Y0007862D02*
X0170317Y0007651D01*
X0170318Y0007651D02*
X0170320Y0007612D01*
X0170325Y0007573D01*
X0170334Y0007536D01*
X0170346Y0007499D01*
X0170362Y0007463D01*
X0170381Y0007429D01*
X0170403Y0007397D01*
X0170428Y0007367D01*
X0170456Y0007339D01*
X0170486Y0007314D01*
X0170518Y0007292D01*
X0170552Y0007273D01*
X0170588Y0007257D01*
X0170625Y0007245D01*
X0170662Y0007236D01*
X0170701Y0007231D01*
X0170740Y0007229D01*
X0170740Y0007228D02*
X0171373Y0007228D01*
X0170634Y0020691D02*
X0170634Y0021536D01*
X0170317Y0021113D02*
X0171373Y0021113D01*
X0170951Y0022591D01*
X0173005Y0022591D02*
X0173005Y0020691D01*
X0173533Y0020691D02*
X0172477Y0020691D01*
X0174612Y0020691D02*
X0175035Y0021536D01*
X0175140Y0021536D02*
X0175668Y0021536D01*
X0175140Y0021535D02*
X0175095Y0021537D01*
X0175051Y0021543D01*
X0175007Y0021552D01*
X0174964Y0021565D01*
X0174923Y0021582D01*
X0174882Y0021602D01*
X0174844Y0021626D01*
X0174808Y0021652D01*
X0174775Y0021682D01*
X0174744Y0021714D01*
X0174715Y0021749D01*
X0174690Y0021786D01*
X0174669Y0021825D01*
X0174650Y0021866D01*
X0174635Y0021908D01*
X0174624Y0021952D01*
X0174616Y0021996D01*
X0174612Y0022041D01*
X0174612Y0022085D01*
X0174616Y0022130D01*
X0174624Y0022174D01*
X0174635Y0022218D01*
X0174650Y0022260D01*
X0174669Y0022301D01*
X0174690Y0022340D01*
X0174715Y0022377D01*
X0174744Y0022412D01*
X0174775Y0022444D01*
X0174808Y0022474D01*
X0174844Y0022500D01*
X0174882Y0022524D01*
X0174923Y0022544D01*
X0174964Y0022561D01*
X0175007Y0022574D01*
X0175051Y0022583D01*
X0175095Y0022589D01*
X0175140Y0022591D01*
X0175668Y0022591D01*
X0175668Y0020691D01*
X0173533Y0022169D02*
X0173005Y0022591D01*
D13*
X0140472Y0015459D02*
X0140472Y0008767D01*
X0136142Y0008767D02*
X0136142Y0015459D01*
X0132281Y0015368D02*
X0132281Y0008675D01*
X0127950Y0008675D02*
X0127950Y0015368D01*
D14*
X0130116Y0013400D03*
X0138307Y0013491D03*
D15*
X0135254Y0015055D02*
X0135254Y0015666D01*
X0135252Y0015714D01*
X0135246Y0015762D01*
X0135237Y0015809D01*
X0135224Y0015855D01*
X0135207Y0015900D01*
X0135187Y0015943D01*
X0135164Y0015985D01*
X0135137Y0016025D01*
X0135108Y0016063D01*
X0135075Y0016098D01*
X0135040Y0016131D01*
X0135002Y0016160D01*
X0134962Y0016187D01*
X0134920Y0016210D01*
X0134877Y0016230D01*
X0134832Y0016247D01*
X0134786Y0016260D01*
X0134739Y0016269D01*
X0134691Y0016275D01*
X0134643Y0016277D01*
X0133665Y0016277D01*
X0133617Y0016275D01*
X0133569Y0016269D01*
X0133522Y0016260D01*
X0133476Y0016247D01*
X0133431Y0016230D01*
X0133388Y0016210D01*
X0133346Y0016187D01*
X0133306Y0016160D01*
X0133268Y0016131D01*
X0133233Y0016098D01*
X0133200Y0016063D01*
X0133171Y0016025D01*
X0133144Y0015985D01*
X0133121Y0015943D01*
X0133101Y0015900D01*
X0133084Y0015855D01*
X0133071Y0015809D01*
X0133062Y0015762D01*
X0133056Y0015714D01*
X0133054Y0015666D01*
X0133054Y0015055D01*
X0135254Y0015055D01*
X0127063Y0014963D02*
X0127063Y0015575D01*
X0127061Y0015623D01*
X0127055Y0015671D01*
X0127046Y0015718D01*
X0127033Y0015764D01*
X0127016Y0015809D01*
X0126996Y0015852D01*
X0126973Y0015894D01*
X0126946Y0015934D01*
X0126917Y0015972D01*
X0126884Y0016007D01*
X0126849Y0016040D01*
X0126811Y0016069D01*
X0126771Y0016096D01*
X0126729Y0016119D01*
X0126686Y0016139D01*
X0126641Y0016156D01*
X0126595Y0016169D01*
X0126548Y0016178D01*
X0126500Y0016184D01*
X0126452Y0016186D01*
X0125474Y0016186D01*
X0125426Y0016184D01*
X0125378Y0016178D01*
X0125331Y0016169D01*
X0125285Y0016156D01*
X0125240Y0016139D01*
X0125197Y0016119D01*
X0125155Y0016096D01*
X0125115Y0016069D01*
X0125077Y0016040D01*
X0125042Y0016007D01*
X0125009Y0015972D01*
X0124980Y0015934D01*
X0124953Y0015894D01*
X0124930Y0015852D01*
X0124910Y0015809D01*
X0124893Y0015764D01*
X0124880Y0015718D01*
X0124871Y0015671D01*
X0124865Y0015623D01*
X0124863Y0015575D01*
X0124863Y0014963D01*
X0127063Y0014963D01*
X0124863Y0017195D02*
X0124863Y0018418D01*
X0124863Y0017195D02*
X0126085Y0018234D01*
X0127063Y0017868D02*
X0127061Y0017816D01*
X0127055Y0017764D01*
X0127046Y0017712D01*
X0127032Y0017662D01*
X0127015Y0017612D01*
X0126994Y0017564D01*
X0126970Y0017518D01*
X0126943Y0017474D01*
X0126912Y0017431D01*
X0126878Y0017391D01*
X0126842Y0017354D01*
X0126802Y0017320D01*
X0126760Y0017288D01*
X0126717Y0017260D01*
X0126671Y0017235D01*
X0126623Y0017213D01*
X0126574Y0017195D01*
X0126085Y0018235D02*
X0126119Y0018268D01*
X0126156Y0018298D01*
X0126196Y0018326D01*
X0126237Y0018350D01*
X0126280Y0018370D01*
X0126325Y0018387D01*
X0126371Y0018401D01*
X0126418Y0018410D01*
X0126465Y0018416D01*
X0126513Y0018418D01*
X0126558Y0018416D01*
X0126604Y0018410D01*
X0126648Y0018401D01*
X0126692Y0018388D01*
X0126734Y0018372D01*
X0126775Y0018352D01*
X0126814Y0018328D01*
X0126851Y0018302D01*
X0126886Y0018273D01*
X0126918Y0018241D01*
X0126947Y0018206D01*
X0126973Y0018169D01*
X0126997Y0018130D01*
X0127017Y0018089D01*
X0127033Y0018047D01*
X0127046Y0018003D01*
X0127055Y0017959D01*
X0127061Y0017913D01*
X0127063Y0017868D01*
X0133054Y0017898D02*
X0135254Y0017898D01*
X0134765Y0017287D01*
X0133054Y0017287D02*
X0133054Y0018509D01*
X0389377Y0041300D02*
X0391577Y0041300D01*
X0391577Y0040689D02*
X0391577Y0041911D01*
X0390661Y0042939D02*
X0390294Y0043611D01*
X0389377Y0043367D02*
X0389379Y0043304D01*
X0389385Y0043242D01*
X0389394Y0043180D01*
X0389407Y0043119D01*
X0389424Y0043058D01*
X0389445Y0042999D01*
X0389469Y0042941D01*
X0389497Y0042885D01*
X0389528Y0042830D01*
X0389562Y0042777D01*
X0389599Y0042727D01*
X0389639Y0042679D01*
X0389683Y0042634D01*
X0390294Y0043611D02*
X0390271Y0043647D01*
X0390244Y0043681D01*
X0390215Y0043713D01*
X0390183Y0043742D01*
X0390149Y0043768D01*
X0390113Y0043791D01*
X0390074Y0043810D01*
X0390035Y0043827D01*
X0389994Y0043839D01*
X0389952Y0043849D01*
X0389909Y0043854D01*
X0389866Y0043856D01*
X0389823Y0043854D01*
X0389781Y0043849D01*
X0389739Y0043839D01*
X0389699Y0043827D01*
X0389659Y0043810D01*
X0389622Y0043790D01*
X0389586Y0043768D01*
X0389552Y0043742D01*
X0389520Y0043713D01*
X0389491Y0043681D01*
X0389465Y0043647D01*
X0389443Y0043612D01*
X0389423Y0043574D01*
X0389406Y0043534D01*
X0389394Y0043494D01*
X0389384Y0043452D01*
X0389379Y0043410D01*
X0389377Y0043367D01*
X0391395Y0043733D02*
X0391428Y0043685D01*
X0391459Y0043634D01*
X0391487Y0043582D01*
X0391510Y0043528D01*
X0391531Y0043473D01*
X0391548Y0043416D01*
X0391561Y0043359D01*
X0391570Y0043301D01*
X0391576Y0043242D01*
X0391578Y0043183D01*
X0391577Y0043183D02*
X0391575Y0043140D01*
X0391570Y0043098D01*
X0391560Y0043056D01*
X0391548Y0043016D01*
X0391531Y0042976D01*
X0391511Y0042939D01*
X0391489Y0042903D01*
X0391463Y0042869D01*
X0391434Y0042837D01*
X0391402Y0042808D01*
X0391368Y0042782D01*
X0391333Y0042760D01*
X0391295Y0042740D01*
X0391255Y0042723D01*
X0391215Y0042711D01*
X0391173Y0042701D01*
X0391131Y0042696D01*
X0391088Y0042694D01*
X0391045Y0042696D01*
X0391002Y0042701D01*
X0390960Y0042711D01*
X0390919Y0042723D01*
X0390880Y0042740D01*
X0390841Y0042759D01*
X0390805Y0042782D01*
X0390771Y0042808D01*
X0390739Y0042837D01*
X0390710Y0042869D01*
X0390683Y0042903D01*
X0390660Y0042939D01*
X0400566Y0041525D02*
X0402766Y0041525D01*
X0402766Y0040914D02*
X0402766Y0042136D01*
X0411977Y0042293D02*
X0414177Y0042293D01*
X0414177Y0042904D02*
X0414177Y0041681D01*
X0422105Y0042649D02*
X0424305Y0042649D01*
X0424305Y0042038D02*
X0424305Y0043260D01*
X0423816Y0044043D02*
X0423859Y0044045D01*
X0423901Y0044050D01*
X0423943Y0044060D01*
X0423983Y0044072D01*
X0424023Y0044089D01*
X0424061Y0044109D01*
X0424096Y0044131D01*
X0424130Y0044157D01*
X0424162Y0044186D01*
X0424191Y0044218D01*
X0424217Y0044252D01*
X0424239Y0044288D01*
X0424259Y0044325D01*
X0424276Y0044365D01*
X0424288Y0044405D01*
X0424298Y0044447D01*
X0424303Y0044489D01*
X0424305Y0044532D01*
X0423816Y0044042D02*
X0423773Y0044044D01*
X0423730Y0044049D01*
X0423688Y0044059D01*
X0423647Y0044071D01*
X0423608Y0044088D01*
X0423569Y0044107D01*
X0423533Y0044130D01*
X0423499Y0044156D01*
X0423467Y0044185D01*
X0423438Y0044217D01*
X0423411Y0044251D01*
X0423388Y0044287D01*
X0423021Y0044959D01*
X0422104Y0044715D02*
X0422106Y0044652D01*
X0422112Y0044590D01*
X0422121Y0044528D01*
X0422134Y0044467D01*
X0422151Y0044406D01*
X0422172Y0044347D01*
X0422196Y0044289D01*
X0422224Y0044233D01*
X0422255Y0044178D01*
X0422289Y0044125D01*
X0422326Y0044075D01*
X0422366Y0044027D01*
X0422410Y0043982D01*
X0423021Y0044959D02*
X0422998Y0044995D01*
X0422971Y0045029D01*
X0422942Y0045061D01*
X0422910Y0045090D01*
X0422876Y0045116D01*
X0422840Y0045139D01*
X0422801Y0045158D01*
X0422762Y0045175D01*
X0422721Y0045187D01*
X0422679Y0045197D01*
X0422636Y0045202D01*
X0422593Y0045204D01*
X0422550Y0045202D01*
X0422508Y0045197D01*
X0422466Y0045187D01*
X0422426Y0045175D01*
X0422386Y0045158D01*
X0422349Y0045138D01*
X0422313Y0045116D01*
X0422279Y0045090D01*
X0422247Y0045061D01*
X0422218Y0045029D01*
X0422192Y0044995D01*
X0422170Y0044960D01*
X0422150Y0044922D01*
X0422133Y0044882D01*
X0422121Y0044842D01*
X0422111Y0044800D01*
X0422106Y0044758D01*
X0422104Y0044715D01*
X0424122Y0045082D02*
X0424155Y0045034D01*
X0424186Y0044983D01*
X0424214Y0044931D01*
X0424237Y0044877D01*
X0424258Y0044822D01*
X0424275Y0044765D01*
X0424288Y0044708D01*
X0424297Y0044650D01*
X0424303Y0044591D01*
X0424305Y0044532D01*
X0413688Y0043686D02*
X0413645Y0043688D01*
X0413602Y0043693D01*
X0413560Y0043703D01*
X0413519Y0043715D01*
X0413480Y0043732D01*
X0413441Y0043751D01*
X0413405Y0043774D01*
X0413371Y0043800D01*
X0413339Y0043829D01*
X0413310Y0043861D01*
X0413283Y0043895D01*
X0413260Y0043931D01*
X0412894Y0044603D01*
X0411977Y0044359D02*
X0411979Y0044296D01*
X0411985Y0044234D01*
X0411994Y0044172D01*
X0412007Y0044111D01*
X0412024Y0044050D01*
X0412045Y0043991D01*
X0412069Y0043933D01*
X0412097Y0043877D01*
X0412128Y0043822D01*
X0412162Y0043769D01*
X0412199Y0043719D01*
X0412239Y0043671D01*
X0412283Y0043626D01*
X0414177Y0044175D02*
X0414175Y0044234D01*
X0414169Y0044293D01*
X0414160Y0044351D01*
X0414147Y0044408D01*
X0414130Y0044465D01*
X0414109Y0044520D01*
X0414086Y0044574D01*
X0414058Y0044626D01*
X0414027Y0044677D01*
X0413994Y0044725D01*
X0414177Y0044175D02*
X0414175Y0044132D01*
X0414170Y0044090D01*
X0414160Y0044048D01*
X0414148Y0044008D01*
X0414131Y0043968D01*
X0414111Y0043931D01*
X0414089Y0043895D01*
X0414063Y0043861D01*
X0414034Y0043829D01*
X0414002Y0043800D01*
X0413968Y0043774D01*
X0413933Y0043752D01*
X0413895Y0043732D01*
X0413855Y0043715D01*
X0413815Y0043703D01*
X0413773Y0043693D01*
X0413731Y0043688D01*
X0413688Y0043686D01*
X0412894Y0044603D02*
X0412871Y0044639D01*
X0412844Y0044673D01*
X0412815Y0044705D01*
X0412783Y0044734D01*
X0412749Y0044760D01*
X0412713Y0044783D01*
X0412674Y0044802D01*
X0412635Y0044819D01*
X0412594Y0044831D01*
X0412552Y0044841D01*
X0412509Y0044846D01*
X0412466Y0044848D01*
X0412423Y0044846D01*
X0412381Y0044841D01*
X0412339Y0044831D01*
X0412299Y0044819D01*
X0412259Y0044802D01*
X0412222Y0044782D01*
X0412186Y0044760D01*
X0412152Y0044734D01*
X0412120Y0044705D01*
X0412091Y0044673D01*
X0412065Y0044639D01*
X0412043Y0044604D01*
X0412023Y0044566D01*
X0412006Y0044526D01*
X0411994Y0044486D01*
X0411984Y0044444D01*
X0411979Y0044402D01*
X0411977Y0044359D01*
X0402766Y0045050D02*
X0402766Y0045661D01*
X0402764Y0045704D01*
X0402759Y0045746D01*
X0402749Y0045788D01*
X0402737Y0045828D01*
X0402720Y0045868D01*
X0402700Y0045906D01*
X0402678Y0045941D01*
X0402652Y0045975D01*
X0402623Y0046007D01*
X0402591Y0046036D01*
X0402557Y0046062D01*
X0402522Y0046084D01*
X0402484Y0046104D01*
X0402444Y0046121D01*
X0402404Y0046133D01*
X0402362Y0046143D01*
X0402320Y0046148D01*
X0402277Y0046150D01*
X0402234Y0046148D01*
X0402192Y0046143D01*
X0402150Y0046133D01*
X0402110Y0046121D01*
X0402070Y0046104D01*
X0402033Y0046084D01*
X0401997Y0046062D01*
X0401963Y0046036D01*
X0401931Y0046007D01*
X0401902Y0045975D01*
X0401876Y0045941D01*
X0401854Y0045906D01*
X0401834Y0045868D01*
X0401817Y0045828D01*
X0401805Y0045788D01*
X0401795Y0045746D01*
X0401790Y0045704D01*
X0401788Y0045661D01*
X0401789Y0045661D02*
X0401789Y0045050D01*
X0401788Y0045661D02*
X0401786Y0045709D01*
X0401780Y0045757D01*
X0401771Y0045804D01*
X0401758Y0045850D01*
X0401741Y0045895D01*
X0401721Y0045938D01*
X0401698Y0045980D01*
X0401671Y0046020D01*
X0401642Y0046058D01*
X0401609Y0046093D01*
X0401574Y0046126D01*
X0401536Y0046155D01*
X0401496Y0046182D01*
X0401454Y0046205D01*
X0401411Y0046225D01*
X0401366Y0046242D01*
X0401320Y0046255D01*
X0401273Y0046264D01*
X0401225Y0046270D01*
X0401177Y0046272D01*
X0401129Y0046270D01*
X0401081Y0046264D01*
X0401034Y0046255D01*
X0400988Y0046242D01*
X0400943Y0046225D01*
X0400900Y0046205D01*
X0400858Y0046182D01*
X0400818Y0046155D01*
X0400780Y0046126D01*
X0400745Y0046093D01*
X0400712Y0046058D01*
X0400683Y0046020D01*
X0400656Y0045980D01*
X0400633Y0045938D01*
X0400613Y0045895D01*
X0400596Y0045850D01*
X0400583Y0045804D01*
X0400574Y0045757D01*
X0400568Y0045709D01*
X0400566Y0045661D01*
X0400566Y0045050D01*
X0402766Y0045050D01*
X0411977Y0045591D02*
X0414177Y0046325D01*
X0411977Y0047058D01*
X0412527Y0046875D02*
X0412527Y0045775D01*
X0422105Y0045947D02*
X0424305Y0046681D01*
X0422105Y0047414D01*
X0422655Y0047231D02*
X0422655Y0046131D01*
X0413199Y0048912D02*
X0411977Y0047873D01*
X0411977Y0049096D01*
X0413688Y0047873D02*
X0413737Y0047891D01*
X0413785Y0047913D01*
X0413831Y0047938D01*
X0413874Y0047966D01*
X0413916Y0047998D01*
X0413956Y0048032D01*
X0413992Y0048069D01*
X0414026Y0048109D01*
X0414057Y0048152D01*
X0414084Y0048196D01*
X0414108Y0048242D01*
X0414129Y0048290D01*
X0414146Y0048340D01*
X0414160Y0048390D01*
X0414169Y0048442D01*
X0414175Y0048494D01*
X0414177Y0048546D01*
X0414175Y0048591D01*
X0414169Y0048637D01*
X0414160Y0048681D01*
X0414147Y0048725D01*
X0414131Y0048767D01*
X0414111Y0048808D01*
X0414087Y0048847D01*
X0414061Y0048884D01*
X0414032Y0048919D01*
X0414000Y0048951D01*
X0413965Y0048980D01*
X0413928Y0049006D01*
X0413889Y0049030D01*
X0413848Y0049050D01*
X0413806Y0049066D01*
X0413762Y0049079D01*
X0413718Y0049088D01*
X0413672Y0049094D01*
X0413627Y0049096D01*
X0413579Y0049094D01*
X0413532Y0049088D01*
X0413485Y0049079D01*
X0413439Y0049065D01*
X0413394Y0049048D01*
X0413351Y0049028D01*
X0413310Y0049004D01*
X0413270Y0048976D01*
X0413233Y0048946D01*
X0413199Y0048913D01*
X0422105Y0048841D02*
X0424305Y0048841D01*
X0423816Y0048230D01*
X0422105Y0048230D02*
X0422105Y0049452D01*
X0402766Y0047778D02*
X0402764Y0047823D01*
X0402758Y0047869D01*
X0402749Y0047913D01*
X0402736Y0047957D01*
X0402720Y0047999D01*
X0402700Y0048040D01*
X0402676Y0048079D01*
X0402650Y0048116D01*
X0402621Y0048151D01*
X0402589Y0048183D01*
X0402554Y0048212D01*
X0402517Y0048238D01*
X0402478Y0048262D01*
X0402437Y0048282D01*
X0402395Y0048298D01*
X0402351Y0048311D01*
X0402307Y0048320D01*
X0402261Y0048326D01*
X0402216Y0048328D01*
X0401789Y0048144D02*
X0400566Y0047106D01*
X0400566Y0048328D01*
X0402278Y0047105D02*
X0402327Y0047123D01*
X0402375Y0047145D01*
X0402421Y0047170D01*
X0402464Y0047198D01*
X0402506Y0047230D01*
X0402546Y0047264D01*
X0402582Y0047301D01*
X0402616Y0047341D01*
X0402647Y0047384D01*
X0402674Y0047428D01*
X0402698Y0047474D01*
X0402719Y0047522D01*
X0402736Y0047572D01*
X0402750Y0047622D01*
X0402759Y0047674D01*
X0402765Y0047726D01*
X0402767Y0047778D01*
X0402216Y0048328D02*
X0402168Y0048326D01*
X0402121Y0048320D01*
X0402074Y0048311D01*
X0402028Y0048297D01*
X0401983Y0048280D01*
X0401940Y0048260D01*
X0401899Y0048236D01*
X0401859Y0048208D01*
X0401822Y0048178D01*
X0401788Y0048145D01*
X0391577Y0047492D02*
X0389377Y0047492D01*
X0389377Y0046881D02*
X0389377Y0048103D01*
X0391088Y0046881D02*
X0391577Y0047492D01*
X0391577Y0045437D02*
X0391577Y0044826D01*
X0389377Y0044826D01*
X0389377Y0045437D01*
X0389379Y0045485D01*
X0389385Y0045533D01*
X0389394Y0045580D01*
X0389407Y0045626D01*
X0389424Y0045671D01*
X0389444Y0045714D01*
X0389467Y0045756D01*
X0389494Y0045796D01*
X0389523Y0045834D01*
X0389556Y0045869D01*
X0389591Y0045902D01*
X0389629Y0045931D01*
X0389669Y0045958D01*
X0389711Y0045981D01*
X0389754Y0046001D01*
X0389799Y0046018D01*
X0389845Y0046031D01*
X0389892Y0046040D01*
X0389940Y0046046D01*
X0389988Y0046048D01*
X0390036Y0046046D01*
X0390084Y0046040D01*
X0390131Y0046031D01*
X0390177Y0046018D01*
X0390222Y0046001D01*
X0390265Y0045981D01*
X0390307Y0045958D01*
X0390347Y0045931D01*
X0390385Y0045902D01*
X0390420Y0045869D01*
X0390453Y0045834D01*
X0390482Y0045796D01*
X0390509Y0045756D01*
X0390532Y0045714D01*
X0390552Y0045671D01*
X0390569Y0045626D01*
X0390582Y0045580D01*
X0390591Y0045533D01*
X0390597Y0045485D01*
X0390599Y0045437D01*
X0390600Y0045437D02*
X0390600Y0044826D01*
X0390599Y0045437D02*
X0390601Y0045480D01*
X0390606Y0045522D01*
X0390616Y0045564D01*
X0390628Y0045604D01*
X0390645Y0045644D01*
X0390665Y0045682D01*
X0390687Y0045717D01*
X0390713Y0045751D01*
X0390742Y0045783D01*
X0390774Y0045812D01*
X0390808Y0045838D01*
X0390844Y0045860D01*
X0390881Y0045880D01*
X0390921Y0045897D01*
X0390961Y0045909D01*
X0391003Y0045919D01*
X0391045Y0045924D01*
X0391088Y0045926D01*
X0391131Y0045924D01*
X0391173Y0045919D01*
X0391215Y0045909D01*
X0391255Y0045897D01*
X0391295Y0045880D01*
X0391333Y0045860D01*
X0391368Y0045838D01*
X0391402Y0045812D01*
X0391434Y0045783D01*
X0391463Y0045751D01*
X0391489Y0045717D01*
X0391511Y0045682D01*
X0391531Y0045644D01*
X0391548Y0045604D01*
X0391560Y0045564D01*
X0391570Y0045522D01*
X0391575Y0045480D01*
X0391577Y0045437D01*
X0401483Y0043835D02*
X0401850Y0043163D01*
X0402767Y0043408D02*
X0402765Y0043467D01*
X0402759Y0043526D01*
X0402750Y0043584D01*
X0402737Y0043641D01*
X0402720Y0043698D01*
X0402699Y0043753D01*
X0402676Y0043807D01*
X0402648Y0043859D01*
X0402617Y0043910D01*
X0402584Y0043958D01*
X0401849Y0043163D02*
X0401872Y0043127D01*
X0401899Y0043093D01*
X0401928Y0043061D01*
X0401960Y0043032D01*
X0401994Y0043006D01*
X0402030Y0042983D01*
X0402069Y0042964D01*
X0402108Y0042947D01*
X0402149Y0042935D01*
X0402191Y0042925D01*
X0402234Y0042920D01*
X0402277Y0042918D01*
X0402277Y0042919D02*
X0402320Y0042921D01*
X0402362Y0042926D01*
X0402404Y0042936D01*
X0402444Y0042948D01*
X0402484Y0042965D01*
X0402522Y0042985D01*
X0402557Y0043007D01*
X0402591Y0043033D01*
X0402623Y0043062D01*
X0402652Y0043094D01*
X0402678Y0043128D01*
X0402700Y0043164D01*
X0402720Y0043201D01*
X0402737Y0043241D01*
X0402749Y0043281D01*
X0402759Y0043323D01*
X0402764Y0043365D01*
X0402766Y0043408D01*
X0400872Y0042858D02*
X0400828Y0042903D01*
X0400788Y0042951D01*
X0400751Y0043001D01*
X0400717Y0043054D01*
X0400686Y0043109D01*
X0400658Y0043165D01*
X0400634Y0043223D01*
X0400613Y0043282D01*
X0400596Y0043343D01*
X0400583Y0043404D01*
X0400574Y0043466D01*
X0400568Y0043528D01*
X0400566Y0043591D01*
X0400568Y0043634D01*
X0400573Y0043676D01*
X0400583Y0043718D01*
X0400595Y0043758D01*
X0400612Y0043798D01*
X0400632Y0043836D01*
X0400654Y0043871D01*
X0400680Y0043905D01*
X0400709Y0043937D01*
X0400741Y0043966D01*
X0400775Y0043992D01*
X0400811Y0044014D01*
X0400848Y0044034D01*
X0400888Y0044051D01*
X0400928Y0044063D01*
X0400970Y0044073D01*
X0401012Y0044078D01*
X0401055Y0044080D01*
X0401098Y0044078D01*
X0401141Y0044073D01*
X0401183Y0044063D01*
X0401224Y0044051D01*
X0401263Y0044034D01*
X0401302Y0044015D01*
X0401338Y0043992D01*
X0401372Y0043966D01*
X0401404Y0043937D01*
X0401433Y0043905D01*
X0401460Y0043871D01*
X0401483Y0043835D01*
M02*
