G75*
%MOIN*%
%OFA0B0*%
%FSLAX25Y25*%
%IPPOS*%
%LPD*%
%AMOC8*
5,1,8,0,0,1.08239X$1,22.5*
%
%ADD10C,0.00000*%
%ADD11C,0.00010*%
%ADD12C,0.00630*%
%ADD13R,0.05906X0.05906*%
%ADD14R,0.03543X0.03346*%
%ADD15R,0.03346X0.03543*%
%ADD16R,0.12598X0.07087*%
%ADD17R,0.03150X0.02362*%
%ADD18R,0.04724X0.02362*%
D10*
X0005297Y0003489D02*
X0005029Y0050796D01*
X0170410Y0050796D01*
X0170410Y0034928D01*
X0233310Y0034928D01*
X0233310Y0050728D01*
X0424962Y0050786D01*
X0427363Y0054333D01*
X0478165Y0054324D01*
X0480836Y0050745D01*
X0587523Y0050838D01*
X0587732Y0003428D01*
X0228078Y0003503D01*
X0227770Y0003237D01*
X0223334Y0003250D01*
X0222935Y0003503D01*
X0005297Y0003489D01*
D11*
X0098534Y0034928D02*
X0098536Y0035067D01*
X0098542Y0035206D01*
X0098552Y0035345D01*
X0098566Y0035484D01*
X0098584Y0035622D01*
X0098605Y0035759D01*
X0098631Y0035896D01*
X0098661Y0036032D01*
X0098694Y0036168D01*
X0098732Y0036302D01*
X0098773Y0036435D01*
X0098818Y0036567D01*
X0098866Y0036697D01*
X0098919Y0036826D01*
X0098975Y0036954D01*
X0099034Y0037079D01*
X0099098Y0037203D01*
X0099164Y0037326D01*
X0099234Y0037446D01*
X0099308Y0037564D01*
X0099385Y0037680D01*
X0099465Y0037794D01*
X0099549Y0037906D01*
X0099635Y0038015D01*
X0099725Y0038121D01*
X0099818Y0038225D01*
X0099913Y0038326D01*
X0100012Y0038425D01*
X0100113Y0038520D01*
X0100217Y0038613D01*
X0100323Y0038703D01*
X0100432Y0038789D01*
X0100544Y0038873D01*
X0100658Y0038953D01*
X0100774Y0039030D01*
X0100892Y0039104D01*
X0101012Y0039174D01*
X0101135Y0039240D01*
X0101259Y0039304D01*
X0101384Y0039363D01*
X0101512Y0039419D01*
X0101641Y0039472D01*
X0101771Y0039520D01*
X0101903Y0039565D01*
X0102036Y0039606D01*
X0102170Y0039644D01*
X0102306Y0039677D01*
X0102442Y0039707D01*
X0102579Y0039733D01*
X0102716Y0039754D01*
X0102854Y0039772D01*
X0102993Y0039786D01*
X0103132Y0039796D01*
X0103271Y0039802D01*
X0103410Y0039804D01*
X0103549Y0039802D01*
X0103688Y0039796D01*
X0103827Y0039786D01*
X0103966Y0039772D01*
X0104104Y0039754D01*
X0104241Y0039733D01*
X0104378Y0039707D01*
X0104514Y0039677D01*
X0104650Y0039644D01*
X0104784Y0039606D01*
X0104917Y0039565D01*
X0105049Y0039520D01*
X0105179Y0039472D01*
X0105308Y0039419D01*
X0105436Y0039363D01*
X0105561Y0039304D01*
X0105685Y0039240D01*
X0105808Y0039174D01*
X0105928Y0039104D01*
X0106046Y0039030D01*
X0106162Y0038953D01*
X0106276Y0038873D01*
X0106388Y0038789D01*
X0106497Y0038703D01*
X0106603Y0038613D01*
X0106707Y0038520D01*
X0106808Y0038425D01*
X0106907Y0038326D01*
X0107002Y0038225D01*
X0107095Y0038121D01*
X0107185Y0038015D01*
X0107271Y0037906D01*
X0107355Y0037794D01*
X0107435Y0037680D01*
X0107512Y0037564D01*
X0107586Y0037446D01*
X0107656Y0037326D01*
X0107722Y0037203D01*
X0107786Y0037079D01*
X0107845Y0036954D01*
X0107901Y0036826D01*
X0107954Y0036697D01*
X0108002Y0036567D01*
X0108047Y0036435D01*
X0108088Y0036302D01*
X0108126Y0036168D01*
X0108159Y0036032D01*
X0108189Y0035896D01*
X0108215Y0035759D01*
X0108236Y0035622D01*
X0108254Y0035484D01*
X0108268Y0035345D01*
X0108278Y0035206D01*
X0108284Y0035067D01*
X0108286Y0034928D01*
X0108284Y0034789D01*
X0108278Y0034650D01*
X0108268Y0034511D01*
X0108254Y0034372D01*
X0108236Y0034234D01*
X0108215Y0034097D01*
X0108189Y0033960D01*
X0108159Y0033824D01*
X0108126Y0033688D01*
X0108088Y0033554D01*
X0108047Y0033421D01*
X0108002Y0033289D01*
X0107954Y0033159D01*
X0107901Y0033030D01*
X0107845Y0032902D01*
X0107786Y0032777D01*
X0107722Y0032653D01*
X0107656Y0032530D01*
X0107586Y0032410D01*
X0107512Y0032292D01*
X0107435Y0032176D01*
X0107355Y0032062D01*
X0107271Y0031950D01*
X0107185Y0031841D01*
X0107095Y0031735D01*
X0107002Y0031631D01*
X0106907Y0031530D01*
X0106808Y0031431D01*
X0106707Y0031336D01*
X0106603Y0031243D01*
X0106497Y0031153D01*
X0106388Y0031067D01*
X0106276Y0030983D01*
X0106162Y0030903D01*
X0106046Y0030826D01*
X0105928Y0030752D01*
X0105808Y0030682D01*
X0105685Y0030616D01*
X0105561Y0030552D01*
X0105436Y0030493D01*
X0105308Y0030437D01*
X0105179Y0030384D01*
X0105049Y0030336D01*
X0104917Y0030291D01*
X0104784Y0030250D01*
X0104650Y0030212D01*
X0104514Y0030179D01*
X0104378Y0030149D01*
X0104241Y0030123D01*
X0104104Y0030102D01*
X0103966Y0030084D01*
X0103827Y0030070D01*
X0103688Y0030060D01*
X0103549Y0030054D01*
X0103410Y0030052D01*
X0103271Y0030054D01*
X0103132Y0030060D01*
X0102993Y0030070D01*
X0102854Y0030084D01*
X0102716Y0030102D01*
X0102579Y0030123D01*
X0102442Y0030149D01*
X0102306Y0030179D01*
X0102170Y0030212D01*
X0102036Y0030250D01*
X0101903Y0030291D01*
X0101771Y0030336D01*
X0101641Y0030384D01*
X0101512Y0030437D01*
X0101384Y0030493D01*
X0101259Y0030552D01*
X0101135Y0030616D01*
X0101012Y0030682D01*
X0100892Y0030752D01*
X0100774Y0030826D01*
X0100658Y0030903D01*
X0100544Y0030983D01*
X0100432Y0031067D01*
X0100323Y0031153D01*
X0100217Y0031243D01*
X0100113Y0031336D01*
X0100012Y0031431D01*
X0099913Y0031530D01*
X0099818Y0031631D01*
X0099725Y0031735D01*
X0099635Y0031841D01*
X0099549Y0031950D01*
X0099465Y0032062D01*
X0099385Y0032176D01*
X0099308Y0032292D01*
X0099234Y0032410D01*
X0099164Y0032530D01*
X0099098Y0032653D01*
X0099034Y0032777D01*
X0098975Y0032902D01*
X0098919Y0033030D01*
X0098866Y0033159D01*
X0098818Y0033289D01*
X0098773Y0033421D01*
X0098732Y0033554D01*
X0098694Y0033688D01*
X0098661Y0033824D01*
X0098631Y0033960D01*
X0098605Y0034097D01*
X0098584Y0034234D01*
X0098566Y0034372D01*
X0098552Y0034511D01*
X0098542Y0034650D01*
X0098536Y0034789D01*
X0098534Y0034928D01*
X0149734Y0042828D02*
X0149736Y0042967D01*
X0149742Y0043106D01*
X0149752Y0043245D01*
X0149766Y0043384D01*
X0149784Y0043522D01*
X0149805Y0043659D01*
X0149831Y0043796D01*
X0149861Y0043932D01*
X0149894Y0044068D01*
X0149932Y0044202D01*
X0149973Y0044335D01*
X0150018Y0044467D01*
X0150066Y0044597D01*
X0150119Y0044726D01*
X0150175Y0044854D01*
X0150234Y0044979D01*
X0150298Y0045103D01*
X0150364Y0045226D01*
X0150434Y0045346D01*
X0150508Y0045464D01*
X0150585Y0045580D01*
X0150665Y0045694D01*
X0150749Y0045806D01*
X0150835Y0045915D01*
X0150925Y0046021D01*
X0151018Y0046125D01*
X0151113Y0046226D01*
X0151212Y0046325D01*
X0151313Y0046420D01*
X0151417Y0046513D01*
X0151523Y0046603D01*
X0151632Y0046689D01*
X0151744Y0046773D01*
X0151858Y0046853D01*
X0151974Y0046930D01*
X0152092Y0047004D01*
X0152212Y0047074D01*
X0152335Y0047140D01*
X0152459Y0047204D01*
X0152584Y0047263D01*
X0152712Y0047319D01*
X0152841Y0047372D01*
X0152971Y0047420D01*
X0153103Y0047465D01*
X0153236Y0047506D01*
X0153370Y0047544D01*
X0153506Y0047577D01*
X0153642Y0047607D01*
X0153779Y0047633D01*
X0153916Y0047654D01*
X0154054Y0047672D01*
X0154193Y0047686D01*
X0154332Y0047696D01*
X0154471Y0047702D01*
X0154610Y0047704D01*
X0154749Y0047702D01*
X0154888Y0047696D01*
X0155027Y0047686D01*
X0155166Y0047672D01*
X0155304Y0047654D01*
X0155441Y0047633D01*
X0155578Y0047607D01*
X0155714Y0047577D01*
X0155850Y0047544D01*
X0155984Y0047506D01*
X0156117Y0047465D01*
X0156249Y0047420D01*
X0156379Y0047372D01*
X0156508Y0047319D01*
X0156636Y0047263D01*
X0156761Y0047204D01*
X0156885Y0047140D01*
X0157008Y0047074D01*
X0157128Y0047004D01*
X0157246Y0046930D01*
X0157362Y0046853D01*
X0157476Y0046773D01*
X0157588Y0046689D01*
X0157697Y0046603D01*
X0157803Y0046513D01*
X0157907Y0046420D01*
X0158008Y0046325D01*
X0158107Y0046226D01*
X0158202Y0046125D01*
X0158295Y0046021D01*
X0158385Y0045915D01*
X0158471Y0045806D01*
X0158555Y0045694D01*
X0158635Y0045580D01*
X0158712Y0045464D01*
X0158786Y0045346D01*
X0158856Y0045226D01*
X0158922Y0045103D01*
X0158986Y0044979D01*
X0159045Y0044854D01*
X0159101Y0044726D01*
X0159154Y0044597D01*
X0159202Y0044467D01*
X0159247Y0044335D01*
X0159288Y0044202D01*
X0159326Y0044068D01*
X0159359Y0043932D01*
X0159389Y0043796D01*
X0159415Y0043659D01*
X0159436Y0043522D01*
X0159454Y0043384D01*
X0159468Y0043245D01*
X0159478Y0043106D01*
X0159484Y0042967D01*
X0159486Y0042828D01*
X0159484Y0042689D01*
X0159478Y0042550D01*
X0159468Y0042411D01*
X0159454Y0042272D01*
X0159436Y0042134D01*
X0159415Y0041997D01*
X0159389Y0041860D01*
X0159359Y0041724D01*
X0159326Y0041588D01*
X0159288Y0041454D01*
X0159247Y0041321D01*
X0159202Y0041189D01*
X0159154Y0041059D01*
X0159101Y0040930D01*
X0159045Y0040802D01*
X0158986Y0040677D01*
X0158922Y0040553D01*
X0158856Y0040430D01*
X0158786Y0040310D01*
X0158712Y0040192D01*
X0158635Y0040076D01*
X0158555Y0039962D01*
X0158471Y0039850D01*
X0158385Y0039741D01*
X0158295Y0039635D01*
X0158202Y0039531D01*
X0158107Y0039430D01*
X0158008Y0039331D01*
X0157907Y0039236D01*
X0157803Y0039143D01*
X0157697Y0039053D01*
X0157588Y0038967D01*
X0157476Y0038883D01*
X0157362Y0038803D01*
X0157246Y0038726D01*
X0157128Y0038652D01*
X0157008Y0038582D01*
X0156885Y0038516D01*
X0156761Y0038452D01*
X0156636Y0038393D01*
X0156508Y0038337D01*
X0156379Y0038284D01*
X0156249Y0038236D01*
X0156117Y0038191D01*
X0155984Y0038150D01*
X0155850Y0038112D01*
X0155714Y0038079D01*
X0155578Y0038049D01*
X0155441Y0038023D01*
X0155304Y0038002D01*
X0155166Y0037984D01*
X0155027Y0037970D01*
X0154888Y0037960D01*
X0154749Y0037954D01*
X0154610Y0037952D01*
X0154471Y0037954D01*
X0154332Y0037960D01*
X0154193Y0037970D01*
X0154054Y0037984D01*
X0153916Y0038002D01*
X0153779Y0038023D01*
X0153642Y0038049D01*
X0153506Y0038079D01*
X0153370Y0038112D01*
X0153236Y0038150D01*
X0153103Y0038191D01*
X0152971Y0038236D01*
X0152841Y0038284D01*
X0152712Y0038337D01*
X0152584Y0038393D01*
X0152459Y0038452D01*
X0152335Y0038516D01*
X0152212Y0038582D01*
X0152092Y0038652D01*
X0151974Y0038726D01*
X0151858Y0038803D01*
X0151744Y0038883D01*
X0151632Y0038967D01*
X0151523Y0039053D01*
X0151417Y0039143D01*
X0151313Y0039236D01*
X0151212Y0039331D01*
X0151113Y0039430D01*
X0151018Y0039531D01*
X0150925Y0039635D01*
X0150835Y0039741D01*
X0150749Y0039850D01*
X0150665Y0039962D01*
X0150585Y0040076D01*
X0150508Y0040192D01*
X0150434Y0040310D01*
X0150364Y0040430D01*
X0150298Y0040553D01*
X0150234Y0040677D01*
X0150175Y0040802D01*
X0150119Y0040930D01*
X0150066Y0041059D01*
X0150018Y0041189D01*
X0149973Y0041321D01*
X0149932Y0041454D01*
X0149894Y0041588D01*
X0149861Y0041724D01*
X0149831Y0041860D01*
X0149805Y0041997D01*
X0149784Y0042134D01*
X0149766Y0042272D01*
X0149752Y0042411D01*
X0149742Y0042550D01*
X0149736Y0042689D01*
X0149734Y0042828D01*
D12*
X0457599Y0028618D02*
X0457599Y0028462D01*
X0457599Y0028618D02*
X0459921Y0028618D01*
X0459921Y0028462D01*
X0457599Y0028462D01*
X0457599Y0027043D02*
X0457599Y0026887D01*
X0457599Y0027043D02*
X0459921Y0027043D01*
X0459921Y0026887D01*
X0457599Y0026887D01*
X0457599Y0025468D02*
X0457599Y0025312D01*
X0457599Y0025468D02*
X0459921Y0025468D01*
X0459921Y0025312D01*
X0457599Y0025312D01*
X0457599Y0023893D02*
X0457599Y0023737D01*
X0457599Y0023893D02*
X0459921Y0023893D01*
X0459921Y0023737D01*
X0457599Y0023737D01*
X0457599Y0022319D02*
X0457599Y0022163D01*
X0457599Y0022319D02*
X0459921Y0022319D01*
X0459921Y0022163D01*
X0457599Y0022163D01*
X0457599Y0020744D02*
X0457599Y0020588D01*
X0457599Y0020744D02*
X0459921Y0020744D01*
X0459921Y0020588D01*
X0457599Y0020588D01*
X0457599Y0019169D02*
X0457599Y0019013D01*
X0457599Y0019169D02*
X0459921Y0019169D01*
X0459921Y0019013D01*
X0457599Y0019013D01*
X0457599Y0017594D02*
X0457599Y0017438D01*
X0457599Y0017594D02*
X0459921Y0017594D01*
X0459921Y0017438D01*
X0457599Y0017438D01*
X0473499Y0017438D02*
X0473499Y0017594D01*
X0475821Y0017594D01*
X0475821Y0017438D01*
X0473499Y0017438D01*
X0473499Y0019013D02*
X0473499Y0019169D01*
X0475821Y0019169D01*
X0475821Y0019013D01*
X0473499Y0019013D01*
X0473499Y0020588D02*
X0473499Y0020744D01*
X0475821Y0020744D01*
X0475821Y0020588D01*
X0473499Y0020588D01*
X0473499Y0022163D02*
X0473499Y0022319D01*
X0475821Y0022319D01*
X0475821Y0022163D01*
X0473499Y0022163D01*
X0473499Y0023737D02*
X0473499Y0023893D01*
X0475821Y0023893D01*
X0475821Y0023737D01*
X0473499Y0023737D01*
X0473499Y0025312D02*
X0473499Y0025468D01*
X0475821Y0025468D01*
X0475821Y0025312D01*
X0473499Y0025312D01*
X0473499Y0026887D02*
X0473499Y0027043D01*
X0475821Y0027043D01*
X0475821Y0026887D01*
X0473499Y0026887D01*
X0473499Y0028462D02*
X0473499Y0028618D01*
X0475821Y0028618D01*
X0475821Y0028462D01*
X0473499Y0028462D01*
X0472300Y0029817D02*
X0472144Y0029817D01*
X0472144Y0032139D01*
X0472300Y0032139D01*
X0472300Y0029817D01*
X0472300Y0030415D02*
X0472144Y0030415D01*
X0472144Y0031013D02*
X0472300Y0031013D01*
X0472300Y0031611D02*
X0472144Y0031611D01*
X0470725Y0029817D02*
X0470569Y0029817D01*
X0470569Y0032139D01*
X0470725Y0032139D01*
X0470725Y0029817D01*
X0470725Y0030415D02*
X0470569Y0030415D01*
X0470569Y0031013D02*
X0470725Y0031013D01*
X0470725Y0031611D02*
X0470569Y0031611D01*
X0469151Y0029817D02*
X0468995Y0029817D01*
X0468995Y0032139D01*
X0469151Y0032139D01*
X0469151Y0029817D01*
X0469151Y0030415D02*
X0468995Y0030415D01*
X0468995Y0031013D02*
X0469151Y0031013D01*
X0469151Y0031611D02*
X0468995Y0031611D01*
X0467576Y0029817D02*
X0467420Y0029817D01*
X0467420Y0032139D01*
X0467576Y0032139D01*
X0467576Y0029817D01*
X0467576Y0030415D02*
X0467420Y0030415D01*
X0467420Y0031013D02*
X0467576Y0031013D01*
X0467576Y0031611D02*
X0467420Y0031611D01*
X0466001Y0029817D02*
X0465845Y0029817D01*
X0465845Y0032139D01*
X0466001Y0032139D01*
X0466001Y0029817D01*
X0466001Y0030415D02*
X0465845Y0030415D01*
X0465845Y0031013D02*
X0466001Y0031013D01*
X0466001Y0031611D02*
X0465845Y0031611D01*
X0464426Y0029817D02*
X0464270Y0029817D01*
X0464270Y0032139D01*
X0464426Y0032139D01*
X0464426Y0029817D01*
X0464426Y0030415D02*
X0464270Y0030415D01*
X0464270Y0031013D02*
X0464426Y0031013D01*
X0464426Y0031611D02*
X0464270Y0031611D01*
X0462851Y0029817D02*
X0462695Y0029817D01*
X0462695Y0032139D01*
X0462851Y0032139D01*
X0462851Y0029817D01*
X0462851Y0030415D02*
X0462695Y0030415D01*
X0462695Y0031013D02*
X0462851Y0031013D01*
X0462851Y0031611D02*
X0462695Y0031611D01*
X0461277Y0029817D02*
X0461121Y0029817D01*
X0461121Y0032139D01*
X0461277Y0032139D01*
X0461277Y0029817D01*
X0461277Y0030415D02*
X0461121Y0030415D01*
X0461121Y0031013D02*
X0461277Y0031013D01*
X0461277Y0031611D02*
X0461121Y0031611D01*
X0461277Y0013917D02*
X0461121Y0013917D01*
X0461121Y0016239D01*
X0461277Y0016239D01*
X0461277Y0013917D01*
X0461277Y0014515D02*
X0461121Y0014515D01*
X0461121Y0015113D02*
X0461277Y0015113D01*
X0461277Y0015711D02*
X0461121Y0015711D01*
X0462695Y0013917D02*
X0462851Y0013917D01*
X0462695Y0013917D02*
X0462695Y0016239D01*
X0462851Y0016239D01*
X0462851Y0013917D01*
X0462851Y0014515D02*
X0462695Y0014515D01*
X0462695Y0015113D02*
X0462851Y0015113D01*
X0462851Y0015711D02*
X0462695Y0015711D01*
X0464270Y0013917D02*
X0464426Y0013917D01*
X0464270Y0013917D02*
X0464270Y0016239D01*
X0464426Y0016239D01*
X0464426Y0013917D01*
X0464426Y0014515D02*
X0464270Y0014515D01*
X0464270Y0015113D02*
X0464426Y0015113D01*
X0464426Y0015711D02*
X0464270Y0015711D01*
X0465845Y0013917D02*
X0466001Y0013917D01*
X0465845Y0013917D02*
X0465845Y0016239D01*
X0466001Y0016239D01*
X0466001Y0013917D01*
X0466001Y0014515D02*
X0465845Y0014515D01*
X0465845Y0015113D02*
X0466001Y0015113D01*
X0466001Y0015711D02*
X0465845Y0015711D01*
X0467420Y0013917D02*
X0467576Y0013917D01*
X0467420Y0013917D02*
X0467420Y0016239D01*
X0467576Y0016239D01*
X0467576Y0013917D01*
X0467576Y0014515D02*
X0467420Y0014515D01*
X0467420Y0015113D02*
X0467576Y0015113D01*
X0467576Y0015711D02*
X0467420Y0015711D01*
X0468995Y0013917D02*
X0469151Y0013917D01*
X0468995Y0013917D02*
X0468995Y0016239D01*
X0469151Y0016239D01*
X0469151Y0013917D01*
X0469151Y0014515D02*
X0468995Y0014515D01*
X0468995Y0015113D02*
X0469151Y0015113D01*
X0469151Y0015711D02*
X0468995Y0015711D01*
X0470569Y0013917D02*
X0470725Y0013917D01*
X0470569Y0013917D02*
X0470569Y0016239D01*
X0470725Y0016239D01*
X0470725Y0013917D01*
X0470725Y0014515D02*
X0470569Y0014515D01*
X0470569Y0015113D02*
X0470725Y0015113D01*
X0470725Y0015711D02*
X0470569Y0015711D01*
X0472144Y0013917D02*
X0472300Y0013917D01*
X0472144Y0013917D02*
X0472144Y0016239D01*
X0472300Y0016239D01*
X0472300Y0013917D01*
X0472300Y0014515D02*
X0472144Y0014515D01*
X0472144Y0015113D02*
X0472300Y0015113D01*
X0472300Y0015711D02*
X0472144Y0015711D01*
D13*
X0466710Y0023028D03*
D14*
X0450810Y0021411D03*
X0442110Y0023676D03*
X0442110Y0028243D03*
X0348255Y0029628D03*
X0348255Y0025061D03*
X0263255Y0025061D03*
X0251705Y0028329D03*
X0263255Y0029628D03*
X0251705Y0032895D03*
X0442146Y0014545D03*
X0450810Y0016845D03*
X0482009Y0012901D03*
X0489812Y0012671D03*
X0482009Y0008334D03*
X0489812Y0008104D03*
X0442146Y0009978D03*
D15*
X0430994Y0016128D03*
X0426427Y0016128D03*
G36*
X0396563Y0016742D02*
X0398929Y0019108D01*
X0401433Y0016604D01*
X0399067Y0014238D01*
X0396563Y0016742D01*
G37*
G36*
X0399793Y0019971D02*
X0402159Y0022337D01*
X0404663Y0019833D01*
X0402297Y0017467D01*
X0399793Y0019971D01*
G37*
X0426427Y0022128D03*
X0430994Y0022128D03*
X0353257Y0018089D03*
X0348690Y0018089D03*
X0330539Y0017345D03*
X0325972Y0017345D03*
X0285539Y0017345D03*
X0280972Y0017345D03*
X0267689Y0017549D03*
X0263122Y0017549D03*
X0458983Y0039163D03*
X0463550Y0039163D03*
D16*
X0567048Y0039993D03*
X0567048Y0017945D03*
X0039375Y0018638D03*
X0039375Y0040685D03*
D17*
X0494789Y0020428D03*
X0504632Y0020428D03*
D18*
X0339279Y0024845D03*
X0317232Y0024845D03*
X0294279Y0024845D03*
X0272232Y0024845D03*
X0272232Y0029845D03*
X0294279Y0029845D03*
X0317232Y0029845D03*
X0339279Y0029845D03*
X0339279Y0034845D03*
X0317232Y0034845D03*
X0294279Y0034845D03*
X0272232Y0034845D03*
X0272232Y0039845D03*
X0294279Y0039845D03*
X0317232Y0039845D03*
X0339279Y0039845D03*
M02*
