G75*
%MOIN*%
%OFA0B0*%
%FSLAX25Y25*%
%IPPOS*%
%LPD*%
%AMOC8*
5,1,8,0,0,1.08239X$1,22.5*
%
%ADD10C,0.00000*%
%ADD11C,0.00010*%
%ADD12C,0.00004*%
%ADD13C,0.07087*%
%ADD14R,0.03346X0.03543*%
%ADD15R,0.03543X0.03346*%
%ADD16R,0.02362X0.03150*%
%ADD17C,0.01102*%
%ADD18C,0.07087*%
%ADD19C,0.00600*%
%ADD20C,0.02578*%
%ADD21C,0.00800*%
%ADD22C,0.02400*%
%ADD23C,0.01200*%
%ADD24C,0.00300*%
%ADD25C,0.05000*%
%ADD26C,0.01000*%
%ADD27C,0.01600*%
%ADD28C,0.04000*%
%ADD29C,0.06500*%
%ADD30C,0.02000*%
%ADD31C,0.10000*%
D10*
X0005297Y0003489D02*
X0005029Y0050796D01*
X0170410Y0050796D01*
X0170410Y0034928D01*
X0233310Y0034928D01*
X0233310Y0050728D01*
X0424962Y0050786D01*
X0427363Y0054333D01*
X0478165Y0054324D01*
X0480836Y0050745D01*
X0587523Y0050838D01*
X0587732Y0003428D01*
X0228078Y0003503D01*
X0227770Y0003237D01*
X0223334Y0003250D01*
X0222935Y0003503D01*
X0005297Y0003489D01*
D11*
X0098534Y0034928D02*
X0098536Y0035067D01*
X0098542Y0035206D01*
X0098552Y0035345D01*
X0098566Y0035484D01*
X0098584Y0035622D01*
X0098605Y0035759D01*
X0098631Y0035896D01*
X0098661Y0036032D01*
X0098694Y0036168D01*
X0098732Y0036302D01*
X0098773Y0036435D01*
X0098818Y0036567D01*
X0098866Y0036697D01*
X0098919Y0036826D01*
X0098975Y0036954D01*
X0099034Y0037079D01*
X0099098Y0037203D01*
X0099164Y0037326D01*
X0099234Y0037446D01*
X0099308Y0037564D01*
X0099385Y0037680D01*
X0099465Y0037794D01*
X0099549Y0037906D01*
X0099635Y0038015D01*
X0099725Y0038121D01*
X0099818Y0038225D01*
X0099913Y0038326D01*
X0100012Y0038425D01*
X0100113Y0038520D01*
X0100217Y0038613D01*
X0100323Y0038703D01*
X0100432Y0038789D01*
X0100544Y0038873D01*
X0100658Y0038953D01*
X0100774Y0039030D01*
X0100892Y0039104D01*
X0101012Y0039174D01*
X0101135Y0039240D01*
X0101259Y0039304D01*
X0101384Y0039363D01*
X0101512Y0039419D01*
X0101641Y0039472D01*
X0101771Y0039520D01*
X0101903Y0039565D01*
X0102036Y0039606D01*
X0102170Y0039644D01*
X0102306Y0039677D01*
X0102442Y0039707D01*
X0102579Y0039733D01*
X0102716Y0039754D01*
X0102854Y0039772D01*
X0102993Y0039786D01*
X0103132Y0039796D01*
X0103271Y0039802D01*
X0103410Y0039804D01*
X0103549Y0039802D01*
X0103688Y0039796D01*
X0103827Y0039786D01*
X0103966Y0039772D01*
X0104104Y0039754D01*
X0104241Y0039733D01*
X0104378Y0039707D01*
X0104514Y0039677D01*
X0104650Y0039644D01*
X0104784Y0039606D01*
X0104917Y0039565D01*
X0105049Y0039520D01*
X0105179Y0039472D01*
X0105308Y0039419D01*
X0105436Y0039363D01*
X0105561Y0039304D01*
X0105685Y0039240D01*
X0105808Y0039174D01*
X0105928Y0039104D01*
X0106046Y0039030D01*
X0106162Y0038953D01*
X0106276Y0038873D01*
X0106388Y0038789D01*
X0106497Y0038703D01*
X0106603Y0038613D01*
X0106707Y0038520D01*
X0106808Y0038425D01*
X0106907Y0038326D01*
X0107002Y0038225D01*
X0107095Y0038121D01*
X0107185Y0038015D01*
X0107271Y0037906D01*
X0107355Y0037794D01*
X0107435Y0037680D01*
X0107512Y0037564D01*
X0107586Y0037446D01*
X0107656Y0037326D01*
X0107722Y0037203D01*
X0107786Y0037079D01*
X0107845Y0036954D01*
X0107901Y0036826D01*
X0107954Y0036697D01*
X0108002Y0036567D01*
X0108047Y0036435D01*
X0108088Y0036302D01*
X0108126Y0036168D01*
X0108159Y0036032D01*
X0108189Y0035896D01*
X0108215Y0035759D01*
X0108236Y0035622D01*
X0108254Y0035484D01*
X0108268Y0035345D01*
X0108278Y0035206D01*
X0108284Y0035067D01*
X0108286Y0034928D01*
X0108284Y0034789D01*
X0108278Y0034650D01*
X0108268Y0034511D01*
X0108254Y0034372D01*
X0108236Y0034234D01*
X0108215Y0034097D01*
X0108189Y0033960D01*
X0108159Y0033824D01*
X0108126Y0033688D01*
X0108088Y0033554D01*
X0108047Y0033421D01*
X0108002Y0033289D01*
X0107954Y0033159D01*
X0107901Y0033030D01*
X0107845Y0032902D01*
X0107786Y0032777D01*
X0107722Y0032653D01*
X0107656Y0032530D01*
X0107586Y0032410D01*
X0107512Y0032292D01*
X0107435Y0032176D01*
X0107355Y0032062D01*
X0107271Y0031950D01*
X0107185Y0031841D01*
X0107095Y0031735D01*
X0107002Y0031631D01*
X0106907Y0031530D01*
X0106808Y0031431D01*
X0106707Y0031336D01*
X0106603Y0031243D01*
X0106497Y0031153D01*
X0106388Y0031067D01*
X0106276Y0030983D01*
X0106162Y0030903D01*
X0106046Y0030826D01*
X0105928Y0030752D01*
X0105808Y0030682D01*
X0105685Y0030616D01*
X0105561Y0030552D01*
X0105436Y0030493D01*
X0105308Y0030437D01*
X0105179Y0030384D01*
X0105049Y0030336D01*
X0104917Y0030291D01*
X0104784Y0030250D01*
X0104650Y0030212D01*
X0104514Y0030179D01*
X0104378Y0030149D01*
X0104241Y0030123D01*
X0104104Y0030102D01*
X0103966Y0030084D01*
X0103827Y0030070D01*
X0103688Y0030060D01*
X0103549Y0030054D01*
X0103410Y0030052D01*
X0103271Y0030054D01*
X0103132Y0030060D01*
X0102993Y0030070D01*
X0102854Y0030084D01*
X0102716Y0030102D01*
X0102579Y0030123D01*
X0102442Y0030149D01*
X0102306Y0030179D01*
X0102170Y0030212D01*
X0102036Y0030250D01*
X0101903Y0030291D01*
X0101771Y0030336D01*
X0101641Y0030384D01*
X0101512Y0030437D01*
X0101384Y0030493D01*
X0101259Y0030552D01*
X0101135Y0030616D01*
X0101012Y0030682D01*
X0100892Y0030752D01*
X0100774Y0030826D01*
X0100658Y0030903D01*
X0100544Y0030983D01*
X0100432Y0031067D01*
X0100323Y0031153D01*
X0100217Y0031243D01*
X0100113Y0031336D01*
X0100012Y0031431D01*
X0099913Y0031530D01*
X0099818Y0031631D01*
X0099725Y0031735D01*
X0099635Y0031841D01*
X0099549Y0031950D01*
X0099465Y0032062D01*
X0099385Y0032176D01*
X0099308Y0032292D01*
X0099234Y0032410D01*
X0099164Y0032530D01*
X0099098Y0032653D01*
X0099034Y0032777D01*
X0098975Y0032902D01*
X0098919Y0033030D01*
X0098866Y0033159D01*
X0098818Y0033289D01*
X0098773Y0033421D01*
X0098732Y0033554D01*
X0098694Y0033688D01*
X0098661Y0033824D01*
X0098631Y0033960D01*
X0098605Y0034097D01*
X0098584Y0034234D01*
X0098566Y0034372D01*
X0098552Y0034511D01*
X0098542Y0034650D01*
X0098536Y0034789D01*
X0098534Y0034928D01*
X0149734Y0042828D02*
X0149736Y0042967D01*
X0149742Y0043106D01*
X0149752Y0043245D01*
X0149766Y0043384D01*
X0149784Y0043522D01*
X0149805Y0043659D01*
X0149831Y0043796D01*
X0149861Y0043932D01*
X0149894Y0044068D01*
X0149932Y0044202D01*
X0149973Y0044335D01*
X0150018Y0044467D01*
X0150066Y0044597D01*
X0150119Y0044726D01*
X0150175Y0044854D01*
X0150234Y0044979D01*
X0150298Y0045103D01*
X0150364Y0045226D01*
X0150434Y0045346D01*
X0150508Y0045464D01*
X0150585Y0045580D01*
X0150665Y0045694D01*
X0150749Y0045806D01*
X0150835Y0045915D01*
X0150925Y0046021D01*
X0151018Y0046125D01*
X0151113Y0046226D01*
X0151212Y0046325D01*
X0151313Y0046420D01*
X0151417Y0046513D01*
X0151523Y0046603D01*
X0151632Y0046689D01*
X0151744Y0046773D01*
X0151858Y0046853D01*
X0151974Y0046930D01*
X0152092Y0047004D01*
X0152212Y0047074D01*
X0152335Y0047140D01*
X0152459Y0047204D01*
X0152584Y0047263D01*
X0152712Y0047319D01*
X0152841Y0047372D01*
X0152971Y0047420D01*
X0153103Y0047465D01*
X0153236Y0047506D01*
X0153370Y0047544D01*
X0153506Y0047577D01*
X0153642Y0047607D01*
X0153779Y0047633D01*
X0153916Y0047654D01*
X0154054Y0047672D01*
X0154193Y0047686D01*
X0154332Y0047696D01*
X0154471Y0047702D01*
X0154610Y0047704D01*
X0154749Y0047702D01*
X0154888Y0047696D01*
X0155027Y0047686D01*
X0155166Y0047672D01*
X0155304Y0047654D01*
X0155441Y0047633D01*
X0155578Y0047607D01*
X0155714Y0047577D01*
X0155850Y0047544D01*
X0155984Y0047506D01*
X0156117Y0047465D01*
X0156249Y0047420D01*
X0156379Y0047372D01*
X0156508Y0047319D01*
X0156636Y0047263D01*
X0156761Y0047204D01*
X0156885Y0047140D01*
X0157008Y0047074D01*
X0157128Y0047004D01*
X0157246Y0046930D01*
X0157362Y0046853D01*
X0157476Y0046773D01*
X0157588Y0046689D01*
X0157697Y0046603D01*
X0157803Y0046513D01*
X0157907Y0046420D01*
X0158008Y0046325D01*
X0158107Y0046226D01*
X0158202Y0046125D01*
X0158295Y0046021D01*
X0158385Y0045915D01*
X0158471Y0045806D01*
X0158555Y0045694D01*
X0158635Y0045580D01*
X0158712Y0045464D01*
X0158786Y0045346D01*
X0158856Y0045226D01*
X0158922Y0045103D01*
X0158986Y0044979D01*
X0159045Y0044854D01*
X0159101Y0044726D01*
X0159154Y0044597D01*
X0159202Y0044467D01*
X0159247Y0044335D01*
X0159288Y0044202D01*
X0159326Y0044068D01*
X0159359Y0043932D01*
X0159389Y0043796D01*
X0159415Y0043659D01*
X0159436Y0043522D01*
X0159454Y0043384D01*
X0159468Y0043245D01*
X0159478Y0043106D01*
X0159484Y0042967D01*
X0159486Y0042828D01*
X0159484Y0042689D01*
X0159478Y0042550D01*
X0159468Y0042411D01*
X0159454Y0042272D01*
X0159436Y0042134D01*
X0159415Y0041997D01*
X0159389Y0041860D01*
X0159359Y0041724D01*
X0159326Y0041588D01*
X0159288Y0041454D01*
X0159247Y0041321D01*
X0159202Y0041189D01*
X0159154Y0041059D01*
X0159101Y0040930D01*
X0159045Y0040802D01*
X0158986Y0040677D01*
X0158922Y0040553D01*
X0158856Y0040430D01*
X0158786Y0040310D01*
X0158712Y0040192D01*
X0158635Y0040076D01*
X0158555Y0039962D01*
X0158471Y0039850D01*
X0158385Y0039741D01*
X0158295Y0039635D01*
X0158202Y0039531D01*
X0158107Y0039430D01*
X0158008Y0039331D01*
X0157907Y0039236D01*
X0157803Y0039143D01*
X0157697Y0039053D01*
X0157588Y0038967D01*
X0157476Y0038883D01*
X0157362Y0038803D01*
X0157246Y0038726D01*
X0157128Y0038652D01*
X0157008Y0038582D01*
X0156885Y0038516D01*
X0156761Y0038452D01*
X0156636Y0038393D01*
X0156508Y0038337D01*
X0156379Y0038284D01*
X0156249Y0038236D01*
X0156117Y0038191D01*
X0155984Y0038150D01*
X0155850Y0038112D01*
X0155714Y0038079D01*
X0155578Y0038049D01*
X0155441Y0038023D01*
X0155304Y0038002D01*
X0155166Y0037984D01*
X0155027Y0037970D01*
X0154888Y0037960D01*
X0154749Y0037954D01*
X0154610Y0037952D01*
X0154471Y0037954D01*
X0154332Y0037960D01*
X0154193Y0037970D01*
X0154054Y0037984D01*
X0153916Y0038002D01*
X0153779Y0038023D01*
X0153642Y0038049D01*
X0153506Y0038079D01*
X0153370Y0038112D01*
X0153236Y0038150D01*
X0153103Y0038191D01*
X0152971Y0038236D01*
X0152841Y0038284D01*
X0152712Y0038337D01*
X0152584Y0038393D01*
X0152459Y0038452D01*
X0152335Y0038516D01*
X0152212Y0038582D01*
X0152092Y0038652D01*
X0151974Y0038726D01*
X0151858Y0038803D01*
X0151744Y0038883D01*
X0151632Y0038967D01*
X0151523Y0039053D01*
X0151417Y0039143D01*
X0151313Y0039236D01*
X0151212Y0039331D01*
X0151113Y0039430D01*
X0151018Y0039531D01*
X0150925Y0039635D01*
X0150835Y0039741D01*
X0150749Y0039850D01*
X0150665Y0039962D01*
X0150585Y0040076D01*
X0150508Y0040192D01*
X0150434Y0040310D01*
X0150364Y0040430D01*
X0150298Y0040553D01*
X0150234Y0040677D01*
X0150175Y0040802D01*
X0150119Y0040930D01*
X0150066Y0041059D01*
X0150018Y0041189D01*
X0149973Y0041321D01*
X0149932Y0041454D01*
X0149894Y0041588D01*
X0149861Y0041724D01*
X0149831Y0041860D01*
X0149805Y0041997D01*
X0149784Y0042134D01*
X0149766Y0042272D01*
X0149752Y0042411D01*
X0149742Y0042550D01*
X0149736Y0042689D01*
X0149734Y0042828D01*
D12*
X0144370Y0033037D02*
X0144372Y0033134D01*
X0144378Y0033231D01*
X0144388Y0033327D01*
X0144402Y0033423D01*
X0144420Y0033519D01*
X0144441Y0033613D01*
X0144467Y0033707D01*
X0144496Y0033799D01*
X0144530Y0033890D01*
X0144566Y0033980D01*
X0144607Y0034068D01*
X0144651Y0034154D01*
X0144699Y0034239D01*
X0144750Y0034321D01*
X0144804Y0034402D01*
X0144862Y0034480D01*
X0144923Y0034555D01*
X0144986Y0034628D01*
X0145053Y0034699D01*
X0145123Y0034766D01*
X0145195Y0034831D01*
X0145270Y0034892D01*
X0145348Y0034951D01*
X0145427Y0035006D01*
X0145509Y0035058D01*
X0145593Y0035106D01*
X0145679Y0035151D01*
X0145767Y0035193D01*
X0145856Y0035231D01*
X0145947Y0035265D01*
X0146039Y0035295D01*
X0146132Y0035322D01*
X0146227Y0035344D01*
X0146322Y0035363D01*
X0146418Y0035378D01*
X0146514Y0035389D01*
X0146611Y0035396D01*
X0146708Y0035399D01*
X0146805Y0035398D01*
X0146902Y0035393D01*
X0146998Y0035384D01*
X0147094Y0035371D01*
X0147190Y0035354D01*
X0147285Y0035333D01*
X0147378Y0035309D01*
X0147471Y0035280D01*
X0147563Y0035248D01*
X0147653Y0035212D01*
X0147741Y0035173D01*
X0147828Y0035129D01*
X0147913Y0035083D01*
X0147996Y0035032D01*
X0148077Y0034979D01*
X0148155Y0034922D01*
X0148232Y0034862D01*
X0148305Y0034799D01*
X0148376Y0034733D01*
X0148444Y0034664D01*
X0148510Y0034592D01*
X0148572Y0034518D01*
X0148631Y0034441D01*
X0148687Y0034362D01*
X0148740Y0034280D01*
X0148790Y0034197D01*
X0148835Y0034111D01*
X0148878Y0034024D01*
X0148917Y0033935D01*
X0148952Y0033845D01*
X0148983Y0033753D01*
X0149010Y0033660D01*
X0149034Y0033566D01*
X0149054Y0033471D01*
X0149070Y0033375D01*
X0149082Y0033279D01*
X0149090Y0033182D01*
X0149094Y0033085D01*
X0149094Y0032989D01*
X0149090Y0032892D01*
X0149082Y0032795D01*
X0149070Y0032699D01*
X0149054Y0032603D01*
X0149034Y0032508D01*
X0149010Y0032414D01*
X0148983Y0032321D01*
X0148952Y0032229D01*
X0148917Y0032139D01*
X0148878Y0032050D01*
X0148835Y0031963D01*
X0148790Y0031877D01*
X0148740Y0031794D01*
X0148687Y0031712D01*
X0148631Y0031633D01*
X0148572Y0031556D01*
X0148510Y0031482D01*
X0148444Y0031410D01*
X0148376Y0031341D01*
X0148305Y0031275D01*
X0148232Y0031212D01*
X0148155Y0031152D01*
X0148077Y0031095D01*
X0147996Y0031042D01*
X0147913Y0030991D01*
X0147828Y0030945D01*
X0147741Y0030901D01*
X0147653Y0030862D01*
X0147563Y0030826D01*
X0147471Y0030794D01*
X0147378Y0030765D01*
X0147285Y0030741D01*
X0147190Y0030720D01*
X0147094Y0030703D01*
X0146998Y0030690D01*
X0146902Y0030681D01*
X0146805Y0030676D01*
X0146708Y0030675D01*
X0146611Y0030678D01*
X0146514Y0030685D01*
X0146418Y0030696D01*
X0146322Y0030711D01*
X0146227Y0030730D01*
X0146132Y0030752D01*
X0146039Y0030779D01*
X0145947Y0030809D01*
X0145856Y0030843D01*
X0145767Y0030881D01*
X0145679Y0030923D01*
X0145593Y0030968D01*
X0145509Y0031016D01*
X0145427Y0031068D01*
X0145348Y0031123D01*
X0145270Y0031182D01*
X0145195Y0031243D01*
X0145123Y0031308D01*
X0145053Y0031375D01*
X0144986Y0031446D01*
X0144923Y0031519D01*
X0144862Y0031594D01*
X0144804Y0031672D01*
X0144750Y0031753D01*
X0144699Y0031835D01*
X0144651Y0031920D01*
X0144607Y0032006D01*
X0144566Y0032094D01*
X0144530Y0032184D01*
X0144496Y0032275D01*
X0144467Y0032367D01*
X0144441Y0032461D01*
X0144420Y0032555D01*
X0144402Y0032651D01*
X0144388Y0032747D01*
X0144378Y0032843D01*
X0144372Y0032940D01*
X0144370Y0033037D01*
X0136496Y0033037D02*
X0136498Y0033134D01*
X0136504Y0033231D01*
X0136514Y0033327D01*
X0136528Y0033423D01*
X0136546Y0033519D01*
X0136567Y0033613D01*
X0136593Y0033707D01*
X0136622Y0033799D01*
X0136656Y0033890D01*
X0136692Y0033980D01*
X0136733Y0034068D01*
X0136777Y0034154D01*
X0136825Y0034239D01*
X0136876Y0034321D01*
X0136930Y0034402D01*
X0136988Y0034480D01*
X0137049Y0034555D01*
X0137112Y0034628D01*
X0137179Y0034699D01*
X0137249Y0034766D01*
X0137321Y0034831D01*
X0137396Y0034892D01*
X0137474Y0034951D01*
X0137553Y0035006D01*
X0137635Y0035058D01*
X0137719Y0035106D01*
X0137805Y0035151D01*
X0137893Y0035193D01*
X0137982Y0035231D01*
X0138073Y0035265D01*
X0138165Y0035295D01*
X0138258Y0035322D01*
X0138353Y0035344D01*
X0138448Y0035363D01*
X0138544Y0035378D01*
X0138640Y0035389D01*
X0138737Y0035396D01*
X0138834Y0035399D01*
X0138931Y0035398D01*
X0139028Y0035393D01*
X0139124Y0035384D01*
X0139220Y0035371D01*
X0139316Y0035354D01*
X0139411Y0035333D01*
X0139504Y0035309D01*
X0139597Y0035280D01*
X0139689Y0035248D01*
X0139779Y0035212D01*
X0139867Y0035173D01*
X0139954Y0035129D01*
X0140039Y0035083D01*
X0140122Y0035032D01*
X0140203Y0034979D01*
X0140281Y0034922D01*
X0140358Y0034862D01*
X0140431Y0034799D01*
X0140502Y0034733D01*
X0140570Y0034664D01*
X0140636Y0034592D01*
X0140698Y0034518D01*
X0140757Y0034441D01*
X0140813Y0034362D01*
X0140866Y0034280D01*
X0140916Y0034197D01*
X0140961Y0034111D01*
X0141004Y0034024D01*
X0141043Y0033935D01*
X0141078Y0033845D01*
X0141109Y0033753D01*
X0141136Y0033660D01*
X0141160Y0033566D01*
X0141180Y0033471D01*
X0141196Y0033375D01*
X0141208Y0033279D01*
X0141216Y0033182D01*
X0141220Y0033085D01*
X0141220Y0032989D01*
X0141216Y0032892D01*
X0141208Y0032795D01*
X0141196Y0032699D01*
X0141180Y0032603D01*
X0141160Y0032508D01*
X0141136Y0032414D01*
X0141109Y0032321D01*
X0141078Y0032229D01*
X0141043Y0032139D01*
X0141004Y0032050D01*
X0140961Y0031963D01*
X0140916Y0031877D01*
X0140866Y0031794D01*
X0140813Y0031712D01*
X0140757Y0031633D01*
X0140698Y0031556D01*
X0140636Y0031482D01*
X0140570Y0031410D01*
X0140502Y0031341D01*
X0140431Y0031275D01*
X0140358Y0031212D01*
X0140281Y0031152D01*
X0140203Y0031095D01*
X0140122Y0031042D01*
X0140039Y0030991D01*
X0139954Y0030945D01*
X0139867Y0030901D01*
X0139779Y0030862D01*
X0139689Y0030826D01*
X0139597Y0030794D01*
X0139504Y0030765D01*
X0139411Y0030741D01*
X0139316Y0030720D01*
X0139220Y0030703D01*
X0139124Y0030690D01*
X0139028Y0030681D01*
X0138931Y0030676D01*
X0138834Y0030675D01*
X0138737Y0030678D01*
X0138640Y0030685D01*
X0138544Y0030696D01*
X0138448Y0030711D01*
X0138353Y0030730D01*
X0138258Y0030752D01*
X0138165Y0030779D01*
X0138073Y0030809D01*
X0137982Y0030843D01*
X0137893Y0030881D01*
X0137805Y0030923D01*
X0137719Y0030968D01*
X0137635Y0031016D01*
X0137553Y0031068D01*
X0137474Y0031123D01*
X0137396Y0031182D01*
X0137321Y0031243D01*
X0137249Y0031308D01*
X0137179Y0031375D01*
X0137112Y0031446D01*
X0137049Y0031519D01*
X0136988Y0031594D01*
X0136930Y0031672D01*
X0136876Y0031753D01*
X0136825Y0031835D01*
X0136777Y0031920D01*
X0136733Y0032006D01*
X0136692Y0032094D01*
X0136656Y0032184D01*
X0136622Y0032275D01*
X0136593Y0032367D01*
X0136567Y0032461D01*
X0136546Y0032555D01*
X0136528Y0032651D01*
X0136514Y0032747D01*
X0136504Y0032843D01*
X0136498Y0032940D01*
X0136496Y0033037D01*
X0128622Y0033037D02*
X0128624Y0033134D01*
X0128630Y0033231D01*
X0128640Y0033327D01*
X0128654Y0033423D01*
X0128672Y0033519D01*
X0128693Y0033613D01*
X0128719Y0033707D01*
X0128748Y0033799D01*
X0128782Y0033890D01*
X0128818Y0033980D01*
X0128859Y0034068D01*
X0128903Y0034154D01*
X0128951Y0034239D01*
X0129002Y0034321D01*
X0129056Y0034402D01*
X0129114Y0034480D01*
X0129175Y0034555D01*
X0129238Y0034628D01*
X0129305Y0034699D01*
X0129375Y0034766D01*
X0129447Y0034831D01*
X0129522Y0034892D01*
X0129600Y0034951D01*
X0129679Y0035006D01*
X0129761Y0035058D01*
X0129845Y0035106D01*
X0129931Y0035151D01*
X0130019Y0035193D01*
X0130108Y0035231D01*
X0130199Y0035265D01*
X0130291Y0035295D01*
X0130384Y0035322D01*
X0130479Y0035344D01*
X0130574Y0035363D01*
X0130670Y0035378D01*
X0130766Y0035389D01*
X0130863Y0035396D01*
X0130960Y0035399D01*
X0131057Y0035398D01*
X0131154Y0035393D01*
X0131250Y0035384D01*
X0131346Y0035371D01*
X0131442Y0035354D01*
X0131537Y0035333D01*
X0131630Y0035309D01*
X0131723Y0035280D01*
X0131815Y0035248D01*
X0131905Y0035212D01*
X0131993Y0035173D01*
X0132080Y0035129D01*
X0132165Y0035083D01*
X0132248Y0035032D01*
X0132329Y0034979D01*
X0132407Y0034922D01*
X0132484Y0034862D01*
X0132557Y0034799D01*
X0132628Y0034733D01*
X0132696Y0034664D01*
X0132762Y0034592D01*
X0132824Y0034518D01*
X0132883Y0034441D01*
X0132939Y0034362D01*
X0132992Y0034280D01*
X0133042Y0034197D01*
X0133087Y0034111D01*
X0133130Y0034024D01*
X0133169Y0033935D01*
X0133204Y0033845D01*
X0133235Y0033753D01*
X0133262Y0033660D01*
X0133286Y0033566D01*
X0133306Y0033471D01*
X0133322Y0033375D01*
X0133334Y0033279D01*
X0133342Y0033182D01*
X0133346Y0033085D01*
X0133346Y0032989D01*
X0133342Y0032892D01*
X0133334Y0032795D01*
X0133322Y0032699D01*
X0133306Y0032603D01*
X0133286Y0032508D01*
X0133262Y0032414D01*
X0133235Y0032321D01*
X0133204Y0032229D01*
X0133169Y0032139D01*
X0133130Y0032050D01*
X0133087Y0031963D01*
X0133042Y0031877D01*
X0132992Y0031794D01*
X0132939Y0031712D01*
X0132883Y0031633D01*
X0132824Y0031556D01*
X0132762Y0031482D01*
X0132696Y0031410D01*
X0132628Y0031341D01*
X0132557Y0031275D01*
X0132484Y0031212D01*
X0132407Y0031152D01*
X0132329Y0031095D01*
X0132248Y0031042D01*
X0132165Y0030991D01*
X0132080Y0030945D01*
X0131993Y0030901D01*
X0131905Y0030862D01*
X0131815Y0030826D01*
X0131723Y0030794D01*
X0131630Y0030765D01*
X0131537Y0030741D01*
X0131442Y0030720D01*
X0131346Y0030703D01*
X0131250Y0030690D01*
X0131154Y0030681D01*
X0131057Y0030676D01*
X0130960Y0030675D01*
X0130863Y0030678D01*
X0130766Y0030685D01*
X0130670Y0030696D01*
X0130574Y0030711D01*
X0130479Y0030730D01*
X0130384Y0030752D01*
X0130291Y0030779D01*
X0130199Y0030809D01*
X0130108Y0030843D01*
X0130019Y0030881D01*
X0129931Y0030923D01*
X0129845Y0030968D01*
X0129761Y0031016D01*
X0129679Y0031068D01*
X0129600Y0031123D01*
X0129522Y0031182D01*
X0129447Y0031243D01*
X0129375Y0031308D01*
X0129305Y0031375D01*
X0129238Y0031446D01*
X0129175Y0031519D01*
X0129114Y0031594D01*
X0129056Y0031672D01*
X0129002Y0031753D01*
X0128951Y0031835D01*
X0128903Y0031920D01*
X0128859Y0032006D01*
X0128818Y0032094D01*
X0128782Y0032184D01*
X0128748Y0032275D01*
X0128719Y0032367D01*
X0128693Y0032461D01*
X0128672Y0032555D01*
X0128654Y0032651D01*
X0128640Y0032747D01*
X0128630Y0032843D01*
X0128624Y0032940D01*
X0128622Y0033037D01*
X0120748Y0033037D02*
X0120750Y0033134D01*
X0120756Y0033231D01*
X0120766Y0033327D01*
X0120780Y0033423D01*
X0120798Y0033519D01*
X0120819Y0033613D01*
X0120845Y0033707D01*
X0120874Y0033799D01*
X0120908Y0033890D01*
X0120944Y0033980D01*
X0120985Y0034068D01*
X0121029Y0034154D01*
X0121077Y0034239D01*
X0121128Y0034321D01*
X0121182Y0034402D01*
X0121240Y0034480D01*
X0121301Y0034555D01*
X0121364Y0034628D01*
X0121431Y0034699D01*
X0121501Y0034766D01*
X0121573Y0034831D01*
X0121648Y0034892D01*
X0121726Y0034951D01*
X0121805Y0035006D01*
X0121887Y0035058D01*
X0121971Y0035106D01*
X0122057Y0035151D01*
X0122145Y0035193D01*
X0122234Y0035231D01*
X0122325Y0035265D01*
X0122417Y0035295D01*
X0122510Y0035322D01*
X0122605Y0035344D01*
X0122700Y0035363D01*
X0122796Y0035378D01*
X0122892Y0035389D01*
X0122989Y0035396D01*
X0123086Y0035399D01*
X0123183Y0035398D01*
X0123280Y0035393D01*
X0123376Y0035384D01*
X0123472Y0035371D01*
X0123568Y0035354D01*
X0123663Y0035333D01*
X0123756Y0035309D01*
X0123849Y0035280D01*
X0123941Y0035248D01*
X0124031Y0035212D01*
X0124119Y0035173D01*
X0124206Y0035129D01*
X0124291Y0035083D01*
X0124374Y0035032D01*
X0124455Y0034979D01*
X0124533Y0034922D01*
X0124610Y0034862D01*
X0124683Y0034799D01*
X0124754Y0034733D01*
X0124822Y0034664D01*
X0124888Y0034592D01*
X0124950Y0034518D01*
X0125009Y0034441D01*
X0125065Y0034362D01*
X0125118Y0034280D01*
X0125168Y0034197D01*
X0125213Y0034111D01*
X0125256Y0034024D01*
X0125295Y0033935D01*
X0125330Y0033845D01*
X0125361Y0033753D01*
X0125388Y0033660D01*
X0125412Y0033566D01*
X0125432Y0033471D01*
X0125448Y0033375D01*
X0125460Y0033279D01*
X0125468Y0033182D01*
X0125472Y0033085D01*
X0125472Y0032989D01*
X0125468Y0032892D01*
X0125460Y0032795D01*
X0125448Y0032699D01*
X0125432Y0032603D01*
X0125412Y0032508D01*
X0125388Y0032414D01*
X0125361Y0032321D01*
X0125330Y0032229D01*
X0125295Y0032139D01*
X0125256Y0032050D01*
X0125213Y0031963D01*
X0125168Y0031877D01*
X0125118Y0031794D01*
X0125065Y0031712D01*
X0125009Y0031633D01*
X0124950Y0031556D01*
X0124888Y0031482D01*
X0124822Y0031410D01*
X0124754Y0031341D01*
X0124683Y0031275D01*
X0124610Y0031212D01*
X0124533Y0031152D01*
X0124455Y0031095D01*
X0124374Y0031042D01*
X0124291Y0030991D01*
X0124206Y0030945D01*
X0124119Y0030901D01*
X0124031Y0030862D01*
X0123941Y0030826D01*
X0123849Y0030794D01*
X0123756Y0030765D01*
X0123663Y0030741D01*
X0123568Y0030720D01*
X0123472Y0030703D01*
X0123376Y0030690D01*
X0123280Y0030681D01*
X0123183Y0030676D01*
X0123086Y0030675D01*
X0122989Y0030678D01*
X0122892Y0030685D01*
X0122796Y0030696D01*
X0122700Y0030711D01*
X0122605Y0030730D01*
X0122510Y0030752D01*
X0122417Y0030779D01*
X0122325Y0030809D01*
X0122234Y0030843D01*
X0122145Y0030881D01*
X0122057Y0030923D01*
X0121971Y0030968D01*
X0121887Y0031016D01*
X0121805Y0031068D01*
X0121726Y0031123D01*
X0121648Y0031182D01*
X0121573Y0031243D01*
X0121501Y0031308D01*
X0121431Y0031375D01*
X0121364Y0031446D01*
X0121301Y0031519D01*
X0121240Y0031594D01*
X0121182Y0031672D01*
X0121128Y0031753D01*
X0121077Y0031835D01*
X0121029Y0031920D01*
X0120985Y0032006D01*
X0120944Y0032094D01*
X0120908Y0032184D01*
X0120874Y0032275D01*
X0120845Y0032367D01*
X0120819Y0032461D01*
X0120798Y0032555D01*
X0120780Y0032651D01*
X0120766Y0032747D01*
X0120756Y0032843D01*
X0120750Y0032940D01*
X0120748Y0033037D01*
X0112874Y0033037D02*
X0112876Y0033134D01*
X0112882Y0033231D01*
X0112892Y0033327D01*
X0112906Y0033423D01*
X0112924Y0033519D01*
X0112945Y0033613D01*
X0112971Y0033707D01*
X0113000Y0033799D01*
X0113034Y0033890D01*
X0113070Y0033980D01*
X0113111Y0034068D01*
X0113155Y0034154D01*
X0113203Y0034239D01*
X0113254Y0034321D01*
X0113308Y0034402D01*
X0113366Y0034480D01*
X0113427Y0034555D01*
X0113490Y0034628D01*
X0113557Y0034699D01*
X0113627Y0034766D01*
X0113699Y0034831D01*
X0113774Y0034892D01*
X0113852Y0034951D01*
X0113931Y0035006D01*
X0114013Y0035058D01*
X0114097Y0035106D01*
X0114183Y0035151D01*
X0114271Y0035193D01*
X0114360Y0035231D01*
X0114451Y0035265D01*
X0114543Y0035295D01*
X0114636Y0035322D01*
X0114731Y0035344D01*
X0114826Y0035363D01*
X0114922Y0035378D01*
X0115018Y0035389D01*
X0115115Y0035396D01*
X0115212Y0035399D01*
X0115309Y0035398D01*
X0115406Y0035393D01*
X0115502Y0035384D01*
X0115598Y0035371D01*
X0115694Y0035354D01*
X0115789Y0035333D01*
X0115882Y0035309D01*
X0115975Y0035280D01*
X0116067Y0035248D01*
X0116157Y0035212D01*
X0116245Y0035173D01*
X0116332Y0035129D01*
X0116417Y0035083D01*
X0116500Y0035032D01*
X0116581Y0034979D01*
X0116659Y0034922D01*
X0116736Y0034862D01*
X0116809Y0034799D01*
X0116880Y0034733D01*
X0116948Y0034664D01*
X0117014Y0034592D01*
X0117076Y0034518D01*
X0117135Y0034441D01*
X0117191Y0034362D01*
X0117244Y0034280D01*
X0117294Y0034197D01*
X0117339Y0034111D01*
X0117382Y0034024D01*
X0117421Y0033935D01*
X0117456Y0033845D01*
X0117487Y0033753D01*
X0117514Y0033660D01*
X0117538Y0033566D01*
X0117558Y0033471D01*
X0117574Y0033375D01*
X0117586Y0033279D01*
X0117594Y0033182D01*
X0117598Y0033085D01*
X0117598Y0032989D01*
X0117594Y0032892D01*
X0117586Y0032795D01*
X0117574Y0032699D01*
X0117558Y0032603D01*
X0117538Y0032508D01*
X0117514Y0032414D01*
X0117487Y0032321D01*
X0117456Y0032229D01*
X0117421Y0032139D01*
X0117382Y0032050D01*
X0117339Y0031963D01*
X0117294Y0031877D01*
X0117244Y0031794D01*
X0117191Y0031712D01*
X0117135Y0031633D01*
X0117076Y0031556D01*
X0117014Y0031482D01*
X0116948Y0031410D01*
X0116880Y0031341D01*
X0116809Y0031275D01*
X0116736Y0031212D01*
X0116659Y0031152D01*
X0116581Y0031095D01*
X0116500Y0031042D01*
X0116417Y0030991D01*
X0116332Y0030945D01*
X0116245Y0030901D01*
X0116157Y0030862D01*
X0116067Y0030826D01*
X0115975Y0030794D01*
X0115882Y0030765D01*
X0115789Y0030741D01*
X0115694Y0030720D01*
X0115598Y0030703D01*
X0115502Y0030690D01*
X0115406Y0030681D01*
X0115309Y0030676D01*
X0115212Y0030675D01*
X0115115Y0030678D01*
X0115018Y0030685D01*
X0114922Y0030696D01*
X0114826Y0030711D01*
X0114731Y0030730D01*
X0114636Y0030752D01*
X0114543Y0030779D01*
X0114451Y0030809D01*
X0114360Y0030843D01*
X0114271Y0030881D01*
X0114183Y0030923D01*
X0114097Y0030968D01*
X0114013Y0031016D01*
X0113931Y0031068D01*
X0113852Y0031123D01*
X0113774Y0031182D01*
X0113699Y0031243D01*
X0113627Y0031308D01*
X0113557Y0031375D01*
X0113490Y0031446D01*
X0113427Y0031519D01*
X0113366Y0031594D01*
X0113308Y0031672D01*
X0113254Y0031753D01*
X0113203Y0031835D01*
X0113155Y0031920D01*
X0113111Y0032006D01*
X0113070Y0032094D01*
X0113034Y0032184D01*
X0113000Y0032275D01*
X0112971Y0032367D01*
X0112945Y0032461D01*
X0112924Y0032555D01*
X0112906Y0032651D01*
X0112892Y0032747D01*
X0112882Y0032843D01*
X0112876Y0032940D01*
X0112874Y0033037D01*
D13*
X0115259Y0029517D02*
X0115259Y0036603D01*
X0123133Y0036603D02*
X0123133Y0029517D01*
X0131007Y0029517D02*
X0131007Y0036603D01*
X0138881Y0036603D02*
X0138881Y0029517D01*
X0146755Y0029517D02*
X0146755Y0036603D01*
D14*
X0121784Y0044589D03*
X0117217Y0044589D03*
X0367525Y0032621D03*
X0372092Y0032621D03*
X0447427Y0035428D03*
X0451994Y0035428D03*
X0497808Y0028284D03*
X0502375Y0028284D03*
X0486985Y0023932D03*
X0482418Y0023932D03*
X0441994Y0025428D03*
X0437427Y0025428D03*
X0546420Y0038913D03*
X0550987Y0038913D03*
X0175276Y0017441D03*
X0170709Y0017441D03*
X0170709Y0012193D03*
X0175276Y0012193D03*
D15*
X0497967Y0012690D03*
X0506626Y0012780D03*
X0506626Y0008213D03*
X0497967Y0008123D03*
D16*
X0138307Y0007192D03*
X0130116Y0007100D03*
X0130116Y0016943D03*
X0138307Y0017034D03*
D17*
X0029001Y0046767D02*
X0010419Y0046767D01*
X0029001Y0046767D02*
X0029001Y0034089D01*
X0010419Y0034089D01*
X0010419Y0046767D01*
X0010419Y0035136D02*
X0029001Y0035136D01*
X0029001Y0036183D02*
X0010419Y0036183D01*
X0010419Y0037230D02*
X0029001Y0037230D01*
X0029001Y0038277D02*
X0010419Y0038277D01*
X0010419Y0039324D02*
X0029001Y0039324D01*
X0029001Y0040371D02*
X0010419Y0040371D01*
X0010419Y0041418D02*
X0029001Y0041418D01*
X0029001Y0042465D02*
X0010419Y0042465D01*
X0010419Y0043512D02*
X0029001Y0043512D01*
X0029001Y0044559D02*
X0010419Y0044559D01*
X0010419Y0045606D02*
X0029001Y0045606D01*
X0029001Y0046653D02*
X0010419Y0046653D01*
X0357232Y0048829D02*
X0375814Y0048829D01*
X0375814Y0036151D01*
X0357232Y0036151D01*
X0357232Y0048829D01*
X0357232Y0037198D02*
X0375814Y0037198D01*
X0375814Y0038245D02*
X0357232Y0038245D01*
X0357232Y0039292D02*
X0375814Y0039292D01*
X0375814Y0040339D02*
X0357232Y0040339D01*
X0357232Y0041386D02*
X0375814Y0041386D01*
X0375814Y0042433D02*
X0357232Y0042433D01*
X0357232Y0043480D02*
X0375814Y0043480D01*
X0375814Y0044527D02*
X0357232Y0044527D01*
X0357232Y0045574D02*
X0375814Y0045574D01*
X0375814Y0046621D02*
X0357232Y0046621D01*
X0357232Y0047668D02*
X0375814Y0047668D01*
X0375814Y0048715D02*
X0357232Y0048715D01*
X0497813Y0033851D02*
X0516395Y0033851D01*
X0497813Y0033851D02*
X0497813Y0046529D01*
X0516395Y0046529D01*
X0516395Y0033851D01*
X0516395Y0034898D02*
X0497813Y0034898D01*
X0497813Y0035945D02*
X0516395Y0035945D01*
X0516395Y0036992D02*
X0497813Y0036992D01*
X0497813Y0038039D02*
X0516395Y0038039D01*
X0516395Y0039086D02*
X0497813Y0039086D01*
X0497813Y0040133D02*
X0516395Y0040133D01*
X0516395Y0041180D02*
X0497813Y0041180D01*
X0497813Y0042227D02*
X0516395Y0042227D01*
X0516395Y0043274D02*
X0497813Y0043274D01*
X0497813Y0044321D02*
X0516395Y0044321D01*
X0516395Y0045368D02*
X0497813Y0045368D01*
X0497813Y0046415D02*
X0516395Y0046415D01*
X0557463Y0046002D02*
X0576045Y0046002D01*
X0576045Y0033324D01*
X0557463Y0033324D01*
X0557463Y0046002D01*
X0557463Y0034371D02*
X0576045Y0034371D01*
X0576045Y0035418D02*
X0557463Y0035418D01*
X0557463Y0036465D02*
X0576045Y0036465D01*
X0576045Y0037512D02*
X0557463Y0037512D01*
X0557463Y0038559D02*
X0576045Y0038559D01*
X0576045Y0039606D02*
X0557463Y0039606D01*
X0557463Y0040653D02*
X0576045Y0040653D01*
X0576045Y0041700D02*
X0557463Y0041700D01*
X0557463Y0042747D02*
X0576045Y0042747D01*
X0576045Y0043794D02*
X0557463Y0043794D01*
X0557463Y0044841D02*
X0576045Y0044841D01*
X0576045Y0045888D02*
X0557463Y0045888D01*
D18*
X0427963Y0039763D03*
X0418239Y0040035D03*
X0406547Y0040620D03*
X0395153Y0042167D03*
D19*
X0400154Y0047168D01*
X0419075Y0047168D01*
X0426480Y0039763D01*
X0427963Y0039763D01*
X0418239Y0040035D02*
X0428558Y0029716D01*
X0428558Y0025221D01*
X0433710Y0020069D01*
X0433710Y0016183D01*
X0438007Y0011886D01*
X0455765Y0011886D01*
X0455792Y0011913D01*
X0457191Y0011913D01*
X0459114Y0013086D02*
X0479088Y0013086D01*
X0481102Y0015101D01*
X0482916Y0015101D01*
X0484930Y0013086D01*
X0492920Y0013086D01*
X0494986Y0015152D01*
X0495428Y0015152D01*
X0495829Y0015553D01*
X0509245Y0015553D01*
X0509711Y0015087D01*
X0509711Y0010864D01*
X0508853Y0010006D01*
X0508420Y0010006D01*
X0506626Y0008213D01*
X0498056Y0008213D01*
X0497967Y0008123D01*
X0464252Y0009902D02*
X0464044Y0009695D01*
X0461695Y0009695D01*
X0461665Y0009724D01*
X0456284Y0009724D01*
X0455550Y0010459D01*
X0437566Y0010459D01*
X0432510Y0015515D01*
X0432510Y0019572D01*
X0427358Y0024723D01*
X0427358Y0028684D01*
X0425791Y0030252D01*
X0415486Y0030252D01*
X0407179Y0038560D01*
X0407179Y0039989D01*
X0406547Y0040620D01*
X0395153Y0042167D02*
X0409257Y0028063D01*
X0424884Y0028063D01*
X0449221Y0033201D02*
X0452238Y0030183D01*
X0456102Y0030183D01*
X0456338Y0029948D01*
X0458270Y0029948D01*
X0458750Y0029468D01*
X0459384Y0028834D01*
X0461197Y0028834D01*
X0462311Y0029948D01*
X0482752Y0029948D01*
X0486985Y0025714D01*
X0486985Y0023932D01*
X0493456Y0023932D01*
X0497808Y0028284D01*
X0502375Y0028284D02*
X0507104Y0033013D01*
X0507104Y0040190D01*
X0489720Y0041513D02*
X0476956Y0041513D01*
X0476358Y0042112D02*
X0490318Y0042112D01*
X0490748Y0042542D02*
X0483338Y0035132D01*
X0470388Y0048082D01*
X0430030Y0048082D01*
X0426478Y0044529D01*
X0425763Y0044529D01*
X0423921Y0046371D01*
X0423921Y0048486D01*
X0424257Y0048486D01*
X0424461Y0048348D01*
X0425182Y0048486D01*
X0425915Y0048487D01*
X0426090Y0048661D01*
X0426332Y0048708D01*
X0426744Y0049315D01*
X0427262Y0049834D01*
X0427262Y0050081D01*
X0427721Y0050760D01*
X0428910Y0051948D01*
X0477068Y0051948D01*
X0478537Y0049980D01*
X0478537Y0049790D01*
X0479093Y0049235D01*
X0479563Y0048606D01*
X0479751Y0048578D01*
X0479886Y0048444D01*
X0480644Y0048445D01*
X0481187Y0047902D01*
X0490748Y0047902D01*
X0490748Y0042542D01*
X0490748Y0042710D02*
X0475759Y0042710D01*
X0475161Y0043309D02*
X0490748Y0043309D01*
X0490748Y0043907D02*
X0474562Y0043907D01*
X0473964Y0044506D02*
X0490748Y0044506D01*
X0490748Y0045104D02*
X0473365Y0045104D01*
X0472767Y0045703D02*
X0490748Y0045703D01*
X0490748Y0046301D02*
X0472168Y0046301D01*
X0471570Y0046900D02*
X0490748Y0046900D01*
X0490748Y0047499D02*
X0470971Y0047499D01*
X0480992Y0048097D02*
X0423921Y0048097D01*
X0423921Y0047499D02*
X0429447Y0047499D01*
X0428848Y0046900D02*
X0423921Y0046900D01*
X0423991Y0046301D02*
X0428250Y0046301D01*
X0427651Y0045703D02*
X0424589Y0045703D01*
X0425188Y0045104D02*
X0427053Y0045104D01*
X0389688Y0045104D02*
X0381538Y0045104D01*
X0381538Y0044506D02*
X0389688Y0044506D01*
X0389688Y0043907D02*
X0381538Y0043907D01*
X0381538Y0043309D02*
X0389688Y0043309D01*
X0389688Y0042710D02*
X0381538Y0042710D01*
X0381538Y0042112D02*
X0389688Y0042112D01*
X0389688Y0041513D02*
X0381538Y0041513D01*
X0381538Y0040915D02*
X0389688Y0040915D01*
X0389688Y0040316D02*
X0381538Y0040316D01*
X0381538Y0039718D02*
X0389688Y0039718D01*
X0389688Y0039119D02*
X0381538Y0039119D01*
X0381538Y0038521D02*
X0389688Y0038521D01*
X0389688Y0038261D02*
X0392171Y0035777D01*
X0397759Y0035777D01*
X0397992Y0035544D01*
X0397992Y0034118D01*
X0382392Y0018518D01*
X0357307Y0018518D01*
X0352523Y0023303D01*
X0352523Y0023459D01*
X0358024Y0028960D01*
X0360914Y0026070D01*
X0376105Y0026070D01*
X0381538Y0031503D01*
X0381538Y0046913D01*
X0381588Y0047038D01*
X0389467Y0047038D01*
X0389688Y0046817D01*
X0389688Y0038261D01*
X0390026Y0037922D02*
X0381538Y0037922D01*
X0381538Y0037324D02*
X0390625Y0037324D01*
X0391223Y0036725D02*
X0381538Y0036725D01*
X0381538Y0036127D02*
X0391822Y0036127D01*
X0397992Y0035528D02*
X0381538Y0035528D01*
X0381538Y0034930D02*
X0397992Y0034930D01*
X0397992Y0034331D02*
X0381538Y0034331D01*
X0381538Y0033733D02*
X0397607Y0033733D01*
X0397008Y0033134D02*
X0381538Y0033134D01*
X0381538Y0032536D02*
X0396410Y0032536D01*
X0395811Y0031937D02*
X0381538Y0031937D01*
X0381374Y0031339D02*
X0395213Y0031339D01*
X0394614Y0030740D02*
X0380775Y0030740D01*
X0380177Y0030142D02*
X0394016Y0030142D01*
X0393417Y0029543D02*
X0379578Y0029543D01*
X0378980Y0028945D02*
X0392819Y0028945D01*
X0392220Y0028346D02*
X0378381Y0028346D01*
X0377783Y0027748D02*
X0391622Y0027748D01*
X0391023Y0027149D02*
X0377184Y0027149D01*
X0376586Y0026551D02*
X0390425Y0026551D01*
X0389826Y0025952D02*
X0355016Y0025952D01*
X0355092Y0025952D02*
X0351615Y0025952D01*
X0351615Y0025354D02*
X0354494Y0025354D01*
X0354418Y0025354D02*
X0389228Y0025354D01*
X0388629Y0024755D02*
X0353819Y0024755D01*
X0353895Y0024755D02*
X0351615Y0024755D01*
X0351615Y0024173D02*
X0351615Y0032541D01*
X0351165Y0032991D01*
X0347124Y0032991D01*
X0345552Y0034563D01*
X0345552Y0038839D01*
X0341144Y0043248D01*
X0335223Y0043248D01*
X0332932Y0040957D01*
X0332932Y0039289D01*
X0322744Y0039289D01*
X0322744Y0039268D01*
X0322738Y0039199D01*
X0322738Y0048455D01*
X0351392Y0048464D01*
X0351570Y0048286D01*
X0351570Y0036539D01*
X0358082Y0030027D01*
X0358082Y0028942D01*
X0352639Y0023499D01*
X0352289Y0023499D01*
X0351615Y0024173D01*
X0351631Y0024157D02*
X0353297Y0024157D01*
X0353221Y0024157D02*
X0388031Y0024157D01*
X0387432Y0023558D02*
X0352622Y0023558D01*
X0352698Y0023558D02*
X0352230Y0023558D01*
X0352866Y0022960D02*
X0386834Y0022960D01*
X0386235Y0022361D02*
X0353464Y0022361D01*
X0354063Y0021763D02*
X0385637Y0021763D01*
X0385038Y0021164D02*
X0354661Y0021164D01*
X0355260Y0020566D02*
X0384440Y0020566D01*
X0383841Y0019967D02*
X0355858Y0019967D01*
X0356457Y0019368D02*
X0383243Y0019368D01*
X0382644Y0018770D02*
X0357055Y0018770D01*
X0355691Y0026551D02*
X0351615Y0026551D01*
X0355615Y0026551D02*
X0360433Y0026551D01*
X0359835Y0027149D02*
X0356213Y0027149D01*
X0356289Y0027149D02*
X0351615Y0027149D01*
X0351615Y0027748D02*
X0356888Y0027748D01*
X0356812Y0027748D02*
X0359236Y0027748D01*
X0358638Y0028346D02*
X0357410Y0028346D01*
X0357486Y0028346D02*
X0351615Y0028346D01*
X0351615Y0028945D02*
X0358082Y0028945D01*
X0358039Y0028945D02*
X0358009Y0028945D01*
X0358082Y0029543D02*
X0351615Y0029543D01*
X0351615Y0030142D02*
X0357968Y0030142D01*
X0357369Y0030740D02*
X0351615Y0030740D01*
X0351615Y0031339D02*
X0356771Y0031339D01*
X0356172Y0031937D02*
X0351615Y0031937D01*
X0351615Y0032536D02*
X0355574Y0032536D01*
X0354975Y0033134D02*
X0346981Y0033134D01*
X0346382Y0033733D02*
X0354377Y0033733D01*
X0353778Y0034331D02*
X0345784Y0034331D01*
X0345552Y0034930D02*
X0353180Y0034930D01*
X0352581Y0035528D02*
X0345552Y0035528D01*
X0345552Y0036127D02*
X0351983Y0036127D01*
X0351570Y0036725D02*
X0345552Y0036725D01*
X0345552Y0037324D02*
X0351570Y0037324D01*
X0351570Y0037922D02*
X0345552Y0037922D01*
X0345552Y0038521D02*
X0351570Y0038521D01*
X0351570Y0039119D02*
X0345272Y0039119D01*
X0344673Y0039718D02*
X0351570Y0039718D01*
X0351570Y0040316D02*
X0344075Y0040316D01*
X0343476Y0040915D02*
X0351570Y0040915D01*
X0351570Y0041513D02*
X0342878Y0041513D01*
X0342279Y0042112D02*
X0351570Y0042112D01*
X0351570Y0042710D02*
X0341681Y0042710D01*
X0351570Y0043309D02*
X0322738Y0043309D01*
X0322738Y0043907D02*
X0351570Y0043907D01*
X0351570Y0044506D02*
X0322738Y0044506D01*
X0322738Y0045104D02*
X0351570Y0045104D01*
X0351570Y0045703D02*
X0322738Y0045703D01*
X0322738Y0046301D02*
X0351570Y0046301D01*
X0351570Y0046900D02*
X0322738Y0046900D01*
X0322738Y0047499D02*
X0351570Y0047499D01*
X0351570Y0048097D02*
X0322738Y0048097D01*
X0322738Y0042710D02*
X0334686Y0042710D01*
X0334087Y0042112D02*
X0322738Y0042112D01*
X0322738Y0041513D02*
X0333489Y0041513D01*
X0332932Y0040915D02*
X0322738Y0040915D01*
X0322738Y0040316D02*
X0332932Y0040316D01*
X0332932Y0039718D02*
X0322738Y0039718D01*
X0366523Y0042490D02*
X0367525Y0041488D01*
X0367525Y0032621D01*
X0433015Y0034407D02*
X0437417Y0038809D01*
X0438679Y0038809D01*
X0439004Y0039134D01*
X0448811Y0039134D01*
X0451994Y0035951D01*
X0451994Y0035428D01*
X0449221Y0033634D02*
X0447427Y0035428D01*
X0449221Y0033634D02*
X0449221Y0033201D01*
X0482343Y0036127D02*
X0484333Y0036127D01*
X0484932Y0036725D02*
X0481745Y0036725D01*
X0481146Y0037324D02*
X0485530Y0037324D01*
X0486129Y0037922D02*
X0480548Y0037922D01*
X0479949Y0038521D02*
X0486727Y0038521D01*
X0487326Y0039119D02*
X0479350Y0039119D01*
X0478752Y0039718D02*
X0487924Y0039718D01*
X0488523Y0040316D02*
X0478153Y0040316D01*
X0477555Y0040915D02*
X0489121Y0040915D01*
X0483735Y0035528D02*
X0482942Y0035528D01*
X0478370Y0027994D02*
X0462055Y0027994D01*
X0461694Y0027634D01*
X0458887Y0027634D01*
X0458526Y0027994D01*
X0455195Y0027994D01*
X0463730Y0025954D02*
X0469445Y0025954D01*
X0469475Y0025924D01*
X0469475Y0020342D01*
X0469445Y0020312D01*
X0463926Y0020312D01*
X0463730Y0020508D01*
X0463730Y0025954D01*
X0463730Y0025952D02*
X0469446Y0025952D01*
X0469475Y0025354D02*
X0463730Y0025354D01*
X0463730Y0024755D02*
X0469475Y0024755D01*
X0469475Y0024157D02*
X0463730Y0024157D01*
X0463730Y0023558D02*
X0469475Y0023558D01*
X0469475Y0022960D02*
X0463730Y0022960D01*
X0463730Y0022361D02*
X0469475Y0022361D01*
X0469475Y0021763D02*
X0463730Y0021763D01*
X0463730Y0021164D02*
X0469475Y0021164D01*
X0469475Y0020566D02*
X0463730Y0020566D01*
X0465420Y0024180D02*
X0467824Y0021776D01*
X0467977Y0021776D01*
X0480323Y0026027D02*
X0482418Y0023932D01*
X0480483Y0025882D02*
X0480323Y0026041D01*
X0480323Y0026027D01*
X0480323Y0026041D02*
X0478370Y0027994D01*
X0447117Y0013086D02*
X0444076Y0016127D01*
X0437211Y0016127D01*
X0455268Y0013086D02*
X0456284Y0014102D01*
X0458098Y0014102D01*
X0459114Y0013086D01*
X0455268Y0013086D02*
X0447117Y0013086D01*
X0419710Y0010699D02*
X0413935Y0004923D01*
X0227772Y0004923D01*
X0227174Y0004325D01*
X0223354Y0004325D01*
X0222529Y0005149D01*
X0145532Y0005149D01*
X0144982Y0005700D01*
X0259656Y0020482D02*
X0266082Y0020482D01*
X0267585Y0021984D01*
X0494986Y0015152D02*
X0495541Y0015707D01*
X0389688Y0045703D02*
X0381538Y0045703D01*
X0381538Y0046301D02*
X0389688Y0046301D01*
X0389604Y0046900D02*
X0381538Y0046900D01*
X0426268Y0048696D02*
X0479496Y0048696D01*
X0479034Y0049294D02*
X0426729Y0049294D01*
X0427262Y0049893D02*
X0478537Y0049893D01*
X0478156Y0050491D02*
X0427540Y0050491D01*
X0428051Y0051090D02*
X0477709Y0051090D01*
X0477262Y0051688D02*
X0428650Y0051688D01*
X0019710Y0045428D02*
X0019710Y0040428D01*
X0019710Y0045428D02*
X0014710Y0045428D01*
D20*
X0014710Y0045428D03*
X0019710Y0045428D03*
X0024710Y0045428D03*
X0024710Y0040428D03*
X0019710Y0040428D03*
X0014710Y0040428D03*
X0064710Y0040428D03*
X0074710Y0040428D03*
X0084710Y0040428D03*
X0084710Y0035428D03*
X0074710Y0035428D03*
X0064710Y0035428D03*
X0024710Y0035428D03*
X0019710Y0035428D03*
X0014710Y0035428D03*
X0064710Y0030428D03*
X0074710Y0030428D03*
X0084710Y0030428D03*
X0152348Y0032140D03*
X0157736Y0029439D03*
X0166048Y0028290D03*
X0172927Y0028348D03*
X0179748Y0028290D03*
X0188117Y0028061D03*
X0197174Y0027716D03*
X0208238Y0027888D03*
X0216320Y0027888D03*
X0226122Y0027946D03*
X0234377Y0028061D03*
X0239708Y0031967D03*
X0257249Y0034955D03*
X0246357Y0036851D03*
X0251918Y0039953D03*
X0240969Y0043343D03*
X0246357Y0046215D03*
X0297184Y0039195D03*
X0301960Y0039155D03*
X0306896Y0039116D03*
X0311434Y0039195D03*
X0325533Y0036938D03*
X0329347Y0037037D03*
X0333261Y0037004D03*
X0311593Y0034771D03*
X0306777Y0035050D03*
X0301841Y0035010D03*
X0297582Y0035090D03*
X0287687Y0032714D03*
X0302557Y0030506D03*
X0307015Y0030426D03*
X0311593Y0030147D03*
X0297383Y0030346D03*
X0279662Y0030359D03*
X0287228Y0027601D03*
X0280292Y0026222D03*
X0297462Y0025643D03*
X0302358Y0025682D03*
X0306737Y0025722D03*
X0311712Y0025682D03*
X0325035Y0026012D03*
X0328584Y0025979D03*
X0333029Y0026079D03*
X0348255Y0025061D03*
X0353007Y0026769D03*
X0356196Y0029466D03*
X0353591Y0031310D03*
X0372092Y0032621D03*
X0351660Y0034233D03*
X0333394Y0033285D03*
X0329447Y0033351D03*
X0325433Y0033517D03*
X0333328Y0029964D03*
X0329248Y0029864D03*
X0325201Y0029698D03*
X0384041Y0037034D03*
X0387723Y0037123D03*
X0384086Y0040767D03*
X0387454Y0041082D03*
X0387319Y0044410D03*
X0383547Y0044455D03*
X0348651Y0046238D03*
X0344564Y0046193D03*
X0338501Y0046373D03*
X0331540Y0046283D03*
X0325477Y0046059D03*
X0324534Y0042416D03*
X0330462Y0042236D03*
X0287744Y0038287D03*
X0424884Y0028063D03*
X0434710Y0028243D03*
X0455195Y0027994D03*
X0445971Y0025428D03*
X0465420Y0024180D03*
X0467977Y0021776D03*
X0419710Y0020428D03*
X0398998Y0016673D03*
X0419710Y0015428D03*
X0437211Y0016127D03*
X0482009Y0012912D03*
X0502700Y0012971D03*
X0464252Y0009902D03*
X0482009Y0008334D03*
X0489812Y0008104D03*
X0457191Y0011913D03*
X0419710Y0010699D03*
X0342217Y0015225D03*
X0267585Y0021984D03*
X0259656Y0020482D03*
X0175276Y0017441D03*
X0142835Y0018039D03*
X0130116Y0016943D03*
X0104710Y0020428D03*
X0089710Y0020428D03*
X0039375Y0018638D03*
X0019710Y0010428D03*
X0226266Y0006778D03*
X0226820Y0010556D03*
X0400665Y0023799D03*
X0460291Y0031023D03*
X0458373Y0034547D03*
X0447427Y0035428D03*
X0469747Y0035366D03*
X0477243Y0037902D03*
X0483069Y0039718D03*
X0486257Y0042596D03*
X0480329Y0042821D03*
X0482485Y0045429D03*
X0487066Y0046103D03*
X0477724Y0045923D03*
X0474581Y0048531D03*
X0470808Y0049970D03*
X0465733Y0050060D03*
X0461242Y0050150D03*
X0455943Y0049880D03*
X0451092Y0050195D03*
X0446287Y0049970D03*
X0441975Y0049835D03*
X0437215Y0049700D03*
X0432859Y0049655D03*
X0428906Y0049161D03*
X0426032Y0046778D03*
X0432835Y0045578D03*
X0437772Y0040998D03*
X0550987Y0038913D03*
X0563483Y0038603D03*
X0567078Y0038002D03*
X0571117Y0038640D03*
X0568946Y0039663D03*
X0567337Y0041976D03*
X0571229Y0042163D03*
X0563183Y0041938D03*
X0490513Y0027357D03*
X0521359Y0020634D03*
D21*
X0542610Y0041885D01*
X0548591Y0041885D01*
X0549294Y0041182D01*
X0549294Y0040693D01*
X0551073Y0038913D01*
X0546420Y0038913D02*
X0525044Y0017537D01*
X0488238Y0017537D01*
X0484112Y0021663D01*
X0484112Y0022238D01*
X0482418Y0023932D01*
X0445971Y0025428D02*
X0441994Y0025428D01*
X0440300Y0027122D01*
X0440300Y0027697D01*
X0439597Y0028400D01*
X0439022Y0028400D01*
X0433015Y0034407D01*
X0432835Y0034587D01*
X0432835Y0045578D01*
X0437772Y0040998D02*
X0451921Y0040998D01*
X0458373Y0034547D01*
X0437427Y0025526D02*
X0434710Y0028243D01*
X0437427Y0025526D02*
X0437427Y0025428D01*
X0434819Y0010537D02*
X0421238Y0024117D01*
X0418182Y0024117D01*
X0413887Y0019822D01*
X0413887Y0016585D01*
X0408281Y0010978D01*
X0231912Y0010978D01*
X0225449Y0017441D01*
X0175276Y0017441D01*
X0176835Y0013752D02*
X0175276Y0012193D01*
X0176835Y0013752D02*
X0227158Y0013752D01*
X0231332Y0009578D01*
X0408861Y0009578D01*
X0415287Y0016005D01*
X0415287Y0019242D01*
X0418762Y0022717D01*
X0420658Y0022717D01*
X0435617Y0007759D01*
X0454431Y0007759D01*
X0455977Y0006213D01*
X0465780Y0006213D01*
X0467900Y0008334D01*
X0482009Y0008334D01*
X0487529Y0010386D02*
X0489812Y0008104D01*
X0487529Y0010386D02*
X0483193Y0010386D01*
X0482957Y0010623D01*
X0481061Y0010623D01*
X0480974Y0010537D01*
X0466541Y0010537D01*
X0466541Y0008954D01*
X0465200Y0007613D01*
X0456557Y0007613D01*
X0455011Y0009159D01*
X0437028Y0009159D01*
X0435650Y0010537D01*
X0434819Y0010537D01*
X0416687Y0014385D02*
X0410481Y0008178D01*
X0229159Y0008178D01*
X0229159Y0008218D01*
X0226820Y0010556D01*
X0226266Y0006778D02*
X0411061Y0006778D01*
X0419710Y0015428D01*
X0416687Y0014385D02*
X0416687Y0017405D01*
X0419710Y0020428D01*
X0398998Y0016673D02*
X0390279Y0012378D01*
X0322760Y0012378D01*
X0309416Y0025722D01*
X0306737Y0025722D01*
X0334710Y0030428D02*
X0339710Y0025428D01*
X0334710Y0030428D02*
X0333792Y0030428D01*
X0333328Y0029964D01*
X0482009Y0012912D02*
X0482230Y0012690D01*
X0482869Y0012690D01*
X0483773Y0011786D01*
X0493459Y0011786D01*
X0494363Y0012690D01*
X0497967Y0012690D01*
X0502700Y0012971D02*
X0506434Y0012971D01*
X0506626Y0012780D01*
X0114363Y0025073D02*
X0114355Y0025073D01*
D22*
X0019710Y0010428D02*
X0019710Y0040428D01*
D23*
X0294710Y0040391D02*
X0294710Y0040428D01*
X0318638Y0040428D01*
X0318638Y0024008D01*
X0294756Y0024008D01*
X0294756Y0040391D01*
X0294710Y0040391D01*
X0294756Y0039773D02*
X0318638Y0039773D01*
X0318638Y0038574D02*
X0294756Y0038574D01*
X0294756Y0037376D02*
X0318638Y0037376D01*
X0318638Y0036177D02*
X0294756Y0036177D01*
X0294756Y0034979D02*
X0318638Y0034979D01*
X0318638Y0033780D02*
X0294756Y0033780D01*
X0294756Y0032582D02*
X0318638Y0032582D01*
X0318638Y0031383D02*
X0294756Y0031383D01*
X0294756Y0030185D02*
X0318638Y0030185D01*
X0318638Y0028986D02*
X0294756Y0028986D01*
X0294756Y0027788D02*
X0318638Y0027788D01*
X0318638Y0026589D02*
X0294756Y0026589D01*
X0294756Y0025391D02*
X0318638Y0025391D01*
X0318638Y0024192D02*
X0294756Y0024192D01*
X0460291Y0031023D02*
X0462046Y0032778D01*
X0484710Y0032778D01*
X0490131Y0027357D01*
X0490513Y0027357D01*
X0550987Y0038913D02*
X0551073Y0038913D01*
X0568196Y0038913D01*
X0568946Y0039663D01*
X0566754Y0039663D01*
X0568946Y0039663D02*
X0569710Y0040428D01*
X0144982Y0005700D02*
X0143461Y0007220D01*
X0137132Y0007100D01*
D24*
X0234692Y0016025D02*
X0247372Y0016025D01*
X0247074Y0015727D02*
X0234990Y0015727D01*
X0235289Y0015428D02*
X0246775Y0015428D01*
X0246552Y0015205D02*
X0235513Y0015205D01*
X0227667Y0023051D01*
X0155647Y0023051D01*
X0151063Y0027634D01*
X0151105Y0027715D01*
X0151333Y0028418D01*
X0151448Y0029147D01*
X0151448Y0032910D01*
X0149805Y0032910D01*
X0149846Y0033037D01*
X0149790Y0033210D01*
X0151448Y0033210D01*
X0151448Y0035412D01*
X0156150Y0035412D01*
X0160018Y0031545D01*
X0232313Y0031545D01*
X0233547Y0032778D01*
X0234201Y0032778D01*
X0235460Y0034037D01*
X0235460Y0034692D01*
X0236139Y0035370D01*
X0236139Y0043490D01*
X0241230Y0048580D01*
X0247951Y0048582D01*
X0265313Y0031221D01*
X0289043Y0031221D01*
X0289883Y0030380D01*
X0289883Y0022791D01*
X0278187Y0022791D01*
X0274232Y0026746D01*
X0258093Y0026746D01*
X0246552Y0015205D01*
X0247671Y0016324D02*
X0234393Y0016324D01*
X0234095Y0016622D02*
X0247969Y0016622D01*
X0248268Y0016921D02*
X0233796Y0016921D01*
X0233498Y0017219D02*
X0248566Y0017219D01*
X0248865Y0017518D02*
X0233199Y0017518D01*
X0232901Y0017816D02*
X0249163Y0017816D01*
X0249462Y0018115D02*
X0232602Y0018115D01*
X0232304Y0018413D02*
X0249760Y0018413D01*
X0250059Y0018712D02*
X0232005Y0018712D01*
X0231707Y0019010D02*
X0250357Y0019010D01*
X0250656Y0019309D02*
X0231408Y0019309D01*
X0231110Y0019607D02*
X0250954Y0019607D01*
X0251253Y0019906D02*
X0230811Y0019906D01*
X0230513Y0020204D02*
X0251551Y0020204D01*
X0251850Y0020503D02*
X0230214Y0020503D01*
X0229916Y0020801D02*
X0252148Y0020801D01*
X0252447Y0021100D02*
X0229617Y0021100D01*
X0229319Y0021399D02*
X0252745Y0021399D01*
X0253044Y0021697D02*
X0229020Y0021697D01*
X0228722Y0021996D02*
X0253342Y0021996D01*
X0253641Y0022294D02*
X0228423Y0022294D01*
X0228125Y0022593D02*
X0253939Y0022593D01*
X0254238Y0022891D02*
X0227826Y0022891D01*
X0254536Y0023190D02*
X0155508Y0023190D01*
X0155209Y0023488D02*
X0254835Y0023488D01*
X0255134Y0023787D02*
X0154911Y0023787D01*
X0154612Y0024085D02*
X0255432Y0024085D01*
X0255731Y0024384D02*
X0154314Y0024384D01*
X0154015Y0024682D02*
X0256029Y0024682D01*
X0256328Y0024981D02*
X0153717Y0024981D01*
X0153418Y0025279D02*
X0256626Y0025279D01*
X0256925Y0025578D02*
X0153120Y0025578D01*
X0152821Y0025876D02*
X0257223Y0025876D01*
X0257522Y0026175D02*
X0152523Y0026175D01*
X0152224Y0026473D02*
X0257820Y0026473D01*
X0274505Y0026473D02*
X0289883Y0026473D01*
X0289883Y0026175D02*
X0274804Y0026175D01*
X0275102Y0025876D02*
X0289883Y0025876D01*
X0289883Y0025578D02*
X0275401Y0025578D01*
X0275699Y0025279D02*
X0289883Y0025279D01*
X0289883Y0024981D02*
X0275998Y0024981D01*
X0276296Y0024682D02*
X0289883Y0024682D01*
X0289883Y0024384D02*
X0276595Y0024384D01*
X0276894Y0024085D02*
X0289883Y0024085D01*
X0289883Y0023787D02*
X0277192Y0023787D01*
X0277491Y0023488D02*
X0289883Y0023488D01*
X0289883Y0023190D02*
X0277789Y0023190D01*
X0278088Y0022891D02*
X0289883Y0022891D01*
X0289883Y0026772D02*
X0151926Y0026772D01*
X0151627Y0027070D02*
X0289883Y0027070D01*
X0289883Y0027369D02*
X0151329Y0027369D01*
X0151080Y0027667D02*
X0289883Y0027667D01*
X0289883Y0027966D02*
X0151186Y0027966D01*
X0151283Y0028264D02*
X0289883Y0028264D01*
X0289883Y0028563D02*
X0151356Y0028563D01*
X0151403Y0028861D02*
X0289883Y0028861D01*
X0289883Y0029160D02*
X0151448Y0029160D01*
X0151448Y0029458D02*
X0289883Y0029458D01*
X0289883Y0029757D02*
X0151448Y0029757D01*
X0151448Y0030055D02*
X0289883Y0030055D01*
X0289883Y0030354D02*
X0151448Y0030354D01*
X0151448Y0030652D02*
X0289611Y0030652D01*
X0289312Y0030951D02*
X0151448Y0030951D01*
X0151448Y0031249D02*
X0265284Y0031249D01*
X0264986Y0031548D02*
X0232317Y0031548D01*
X0232615Y0031846D02*
X0264687Y0031846D01*
X0264389Y0032145D02*
X0232914Y0032145D01*
X0233212Y0032443D02*
X0264090Y0032443D01*
X0263792Y0032742D02*
X0233511Y0032742D01*
X0234463Y0033040D02*
X0263493Y0033040D01*
X0263195Y0033339D02*
X0234762Y0033339D01*
X0235060Y0033637D02*
X0262896Y0033637D01*
X0262598Y0033936D02*
X0235359Y0033936D01*
X0235460Y0034234D02*
X0262299Y0034234D01*
X0262001Y0034533D02*
X0235460Y0034533D01*
X0235600Y0034832D02*
X0261702Y0034832D01*
X0261404Y0035130D02*
X0235899Y0035130D01*
X0236139Y0035429D02*
X0261105Y0035429D01*
X0260807Y0035727D02*
X0236139Y0035727D01*
X0236139Y0036026D02*
X0260508Y0036026D01*
X0260210Y0036324D02*
X0236139Y0036324D01*
X0236139Y0036623D02*
X0259911Y0036623D01*
X0259613Y0036921D02*
X0236139Y0036921D01*
X0236139Y0037220D02*
X0259314Y0037220D01*
X0259016Y0037518D02*
X0236139Y0037518D01*
X0236139Y0037817D02*
X0258717Y0037817D01*
X0258419Y0038115D02*
X0236139Y0038115D01*
X0236139Y0038414D02*
X0258120Y0038414D01*
X0257822Y0038712D02*
X0236139Y0038712D01*
X0236139Y0039011D02*
X0257523Y0039011D01*
X0257225Y0039309D02*
X0236139Y0039309D01*
X0236139Y0039608D02*
X0256926Y0039608D01*
X0256628Y0039906D02*
X0236139Y0039906D01*
X0236139Y0040205D02*
X0256329Y0040205D01*
X0256031Y0040503D02*
X0236139Y0040503D01*
X0236139Y0040802D02*
X0255732Y0040802D01*
X0255434Y0041100D02*
X0236139Y0041100D01*
X0236139Y0041399D02*
X0255135Y0041399D01*
X0254837Y0041697D02*
X0236139Y0041697D01*
X0236139Y0041996D02*
X0254538Y0041996D01*
X0254240Y0042294D02*
X0236139Y0042294D01*
X0236139Y0042593D02*
X0253941Y0042593D01*
X0253643Y0042891D02*
X0236139Y0042891D01*
X0236139Y0043190D02*
X0253344Y0043190D01*
X0253045Y0043488D02*
X0236139Y0043488D01*
X0236436Y0043787D02*
X0252747Y0043787D01*
X0252448Y0044085D02*
X0236735Y0044085D01*
X0237033Y0044384D02*
X0252150Y0044384D01*
X0251851Y0044682D02*
X0237332Y0044682D01*
X0237630Y0044981D02*
X0251553Y0044981D01*
X0251254Y0045279D02*
X0237929Y0045279D01*
X0238227Y0045578D02*
X0250956Y0045578D01*
X0250657Y0045876D02*
X0238526Y0045876D01*
X0238824Y0046175D02*
X0250359Y0046175D01*
X0250060Y0046473D02*
X0239123Y0046473D01*
X0239421Y0046772D02*
X0249762Y0046772D01*
X0249463Y0047070D02*
X0239720Y0047070D01*
X0240018Y0047369D02*
X0249165Y0047369D01*
X0248866Y0047668D02*
X0240317Y0047668D01*
X0240615Y0047966D02*
X0248568Y0047966D01*
X0248269Y0048265D02*
X0240914Y0048265D01*
X0241212Y0048563D02*
X0247971Y0048563D01*
X0156432Y0035130D02*
X0151448Y0035130D01*
X0151448Y0034832D02*
X0156731Y0034832D01*
X0157029Y0034533D02*
X0151448Y0034533D01*
X0151448Y0034234D02*
X0157328Y0034234D01*
X0157626Y0033936D02*
X0151448Y0033936D01*
X0151448Y0033637D02*
X0157925Y0033637D01*
X0158223Y0033339D02*
X0151448Y0033339D01*
X0151448Y0032742D02*
X0158820Y0032742D01*
X0158522Y0033040D02*
X0149845Y0033040D01*
X0151448Y0032443D02*
X0159119Y0032443D01*
X0159417Y0032145D02*
X0151448Y0032145D01*
X0151448Y0031846D02*
X0159716Y0031846D01*
X0160014Y0031548D02*
X0151448Y0031548D01*
D25*
X0152196Y0030774D02*
X0152196Y0032942D01*
X0152196Y0033060D01*
X0152078Y0033060D02*
X0152196Y0032942D01*
X0159710Y0025428D01*
X0152196Y0030774D02*
X0150780Y0029358D01*
X0152078Y0033060D02*
X0146755Y0033060D01*
D26*
X0131007Y0033060D02*
X0131007Y0024131D01*
X0134710Y0020428D01*
X0167722Y0020428D01*
X0170709Y0017441D01*
X0167736Y0015166D02*
X0164863Y0018039D01*
X0142835Y0018039D01*
X0138307Y0017034D02*
X0148085Y0007257D01*
X0175276Y0007257D01*
X0175471Y0007257D01*
X0175276Y0007257D02*
X0175276Y0012193D01*
X0170709Y0012193D02*
X0168532Y0014370D01*
X0168498Y0014370D01*
X0167736Y0015131D01*
X0167736Y0015166D01*
X0114710Y0028073D02*
X0114710Y0028664D01*
X0113828Y0029546D01*
X0115259Y0030977D01*
X0115259Y0033060D01*
X0111772Y0034472D02*
X0111772Y0031602D01*
X0113828Y0029546D01*
X0111772Y0034472D02*
X0113801Y0036502D01*
X0115259Y0036502D01*
X0322979Y0036367D02*
X0336853Y0036367D01*
X0335855Y0037366D02*
X0322979Y0037366D01*
X0322979Y0038364D02*
X0334856Y0038364D01*
X0333659Y0039495D02*
X0333360Y0039196D01*
X0323078Y0039196D01*
X0322979Y0039096D01*
X0322979Y0022160D01*
X0323012Y0022193D01*
X0340359Y0022193D01*
X0340359Y0032861D01*
X0333692Y0039528D01*
X0333659Y0039495D01*
X0333527Y0039363D02*
X0333858Y0039363D01*
X0337852Y0035368D02*
X0322979Y0035368D01*
X0322979Y0034370D02*
X0338850Y0034370D01*
X0339849Y0033371D02*
X0322979Y0033371D01*
X0322979Y0032373D02*
X0340359Y0032373D01*
X0340359Y0031374D02*
X0322979Y0031374D01*
X0322979Y0030376D02*
X0340359Y0030376D01*
X0340359Y0029377D02*
X0322979Y0029377D01*
X0322979Y0028379D02*
X0340359Y0028379D01*
X0340359Y0027380D02*
X0322979Y0027380D01*
X0322979Y0026382D02*
X0340359Y0026382D01*
X0340359Y0025383D02*
X0322979Y0025383D01*
X0322979Y0024385D02*
X0340359Y0024385D01*
X0340077Y0025061D02*
X0339710Y0025428D01*
X0340077Y0025061D02*
X0348255Y0025061D01*
X0340359Y0023386D02*
X0322979Y0023386D01*
X0322979Y0022388D02*
X0340359Y0022388D01*
X0392203Y0015225D02*
X0399998Y0023019D01*
X0399998Y0023132D01*
X0400665Y0023799D01*
X0392203Y0015225D02*
X0342217Y0015225D01*
X0469747Y0035366D02*
X0472282Y0037902D01*
X0477243Y0037902D01*
D27*
X0123133Y0033060D02*
X0123133Y0043240D01*
X0121784Y0044589D01*
X0117217Y0044589D02*
X0115259Y0042631D01*
X0115259Y0036502D01*
X0115259Y0033060D01*
D28*
X0114710Y0028073D02*
X0112355Y0028073D01*
X0104710Y0020428D01*
X0102920Y0018638D01*
D29*
X0089710Y0020428D02*
X0054710Y0020428D01*
X0054710Y0040428D01*
X0059710Y0045428D01*
X0089710Y0045428D01*
X0089710Y0020428D01*
X0089710Y0021422D02*
X0054710Y0021422D01*
X0054710Y0027921D02*
X0089710Y0027921D01*
X0114710Y0028664D02*
X0115259Y0029213D01*
X0115259Y0033060D01*
X0089710Y0034419D02*
X0054710Y0034419D01*
X0055200Y0040918D02*
X0089710Y0040918D01*
D30*
X0104710Y0020428D02*
X0112053Y0020428D01*
X0125381Y0007100D01*
X0130116Y0007100D01*
X0137132Y0007100D01*
X0138216Y0007100D01*
X0138307Y0007192D01*
D31*
X0114355Y0025073D02*
X0107920Y0018638D01*
X0102920Y0018638D01*
X0039375Y0018638D01*
X0113218Y0025073D02*
X0114363Y0025073D01*
M02*
